<svg width="21" height="20" viewBox="0 0 21 20" fill="none" xmlns="http://www.w3.org/2000/svg">
<path d="M20.5135 19.1587C19.2916 19.1308 18.0989 19.1308 16.877 19.1587C16.6152 19.1587 16.557 19.103 16.557 18.8519C16.557 16.7878 16.557 14.6959 16.557 12.6318C16.557 12.1576 16.5279 11.6835 16.3824 11.2372C15.9461 9.78674 14.2006 9.25678 12.9496 10.233C12.2805 10.7351 12.0187 11.4324 12.0187 12.2692C12.0187 14.2217 12.0187 16.1742 12.0187 18.1267C12.0187 18.3777 11.9896 18.6288 12.0187 18.9077C12.0478 19.1308 11.9314 19.1866 11.7277 19.1587C10.4768 19.1587 9.25494 19.1587 8.00399 19.1587C7.77125 19.1587 7.71307 19.103 7.71307 18.8798C7.74216 17.1226 7.74216 15.3653 7.74216 13.5802C7.74216 11.4045 7.74216 9.22888 7.71307 7.08114C7.71307 6.8301 7.77125 6.77431 8.00399 6.77431C9.25494 6.77431 10.4768 6.77431 11.7277 6.77431C11.9605 6.77431 12.0187 6.8301 12.0187 7.05324C12.0187 7.49953 12.0187 7.94581 12.0187 8.47578C12.1059 8.3921 12.135 8.36421 12.1641 8.33631C13.2987 6.74642 14.8988 6.30014 16.7897 6.57906C18.9716 6.91378 20.368 8.36421 20.7171 10.5956C20.8044 11.1256 20.8335 11.6556 20.8335 12.1855C20.8335 14.417 20.8335 16.6205 20.8335 18.8519C20.8335 19.0751 20.7753 19.1587 20.5135 19.1587Z" fill="white"/>
<path d="M5.38572 12.9665C5.38572 14.919 5.38572 16.8715 5.38572 18.824C5.38572 19.0751 5.32754 19.1587 5.06571 19.1587C3.84386 19.1308 2.622 19.1587 1.40014 19.1587C1.1674 19.1587 1.10922 19.1029 1.10922 18.8798C1.10922 14.9469 1.10922 10.9861 1.10922 7.05324C1.10922 6.85799 1.1674 6.77431 1.40014 6.77431C2.65109 6.77431 3.90204 6.77431 5.15299 6.77431C5.41482 6.77431 5.44391 6.85799 5.44391 7.08113C5.38572 9.03363 5.38572 10.9861 5.38572 12.9665Z" fill="white"/>
<path d="M5.58937 3.53874C5.29845 4.65446 4.10568 5.29599 2.73836 5.07285C1.28377 4.84971 0.4692 3.48296 0.992853 2.1441C1.34196 1.30731 2.18562 0.805243 3.26202 0.833136C4.89116 0.805243 5.96756 2.06042 5.58937 3.53874Z" fill="white"/>
</svg>
