<svg width="40" height="40" viewBox="0 0 40 40" fill="none" xmlns="http://www.w3.org/2000/svg">
<path d="M16.3896 20.0013C16.3896 18.007 18.0059 16.3899 20.0003 16.3899C21.9946 16.3899 23.6118 18.007 23.6118 20.0013C23.6118 21.9956 21.9946 23.6127 20.0003 23.6127C18.0059 23.6127 16.3896 21.9956 16.3896 20.0013ZM14.4373 20.0013C14.4373 23.0736 16.9278 25.5641 20.0003 25.5641C23.0727 25.5641 25.5633 23.0736 25.5633 20.0013C25.5633 16.929 23.0727 14.4385 20.0003 14.4385C16.9278 14.4385 14.4373 16.929 14.4373 20.0013ZM24.4835 14.2179C24.4834 14.4751 24.5595 14.7264 24.7023 14.9403C24.845 15.1541 25.048 15.3208 25.2855 15.4193C25.523 15.5178 25.7844 15.5437 26.0366 15.4936C26.2888 15.4435 26.5205 15.3198 26.7024 15.1381C26.8843 14.9563 27.0082 14.7248 27.0585 14.4726C27.1087 14.2204 27.0831 13.959 26.9848 13.7215C26.8865 13.4839 26.7199 13.2808 26.5062 13.1378C26.2925 12.9949 26.0412 12.9186 25.784 12.9185H25.7835C25.4389 12.9186 25.1084 13.0556 24.8646 13.2992C24.6208 13.5429 24.4838 13.8733 24.4835 14.2179ZM15.6234 28.8194C14.5672 28.7713 13.9931 28.5953 13.6116 28.4467C13.1057 28.2498 12.7449 28.0153 12.3654 27.6364C11.986 27.2575 11.7511 26.8969 11.555 26.3911C11.4063 26.0098 11.2304 25.4356 11.1824 24.3794C11.1298 23.2374 11.1194 22.8944 11.1194 20.0014C11.1194 17.1084 11.1307 16.7663 11.1824 15.6234C11.2305 14.5672 11.4077 13.9941 11.555 13.6116C11.752 13.1058 11.9865 12.745 12.3654 12.3655C12.7443 11.9861 13.1049 11.7512 13.6116 11.5552C13.9929 11.4065 14.5672 11.2305 15.6234 11.1825C16.7654 11.13 17.1084 11.1195 20.0003 11.1195C22.8921 11.1195 23.2355 11.1309 24.3784 11.1825C25.4347 11.2306 26.0078 11.4079 26.3903 11.5552C26.8961 11.7512 27.257 11.9866 27.6364 12.3655C28.0159 12.7444 28.2499 13.1058 28.4468 13.6116C28.5955 13.993 28.7715 14.5672 28.8195 15.6234C28.872 16.7663 28.8825 17.1084 28.8825 20.0014C28.8825 22.8944 28.872 23.2365 28.8195 24.3794C28.7714 25.4356 28.5946 26.0096 28.4468 26.3911C28.2499 26.8969 28.0154 27.2578 27.6364 27.6364C27.2575 28.0149 26.8961 28.2498 26.3903 28.4467C26.0089 28.5954 25.4347 28.7714 24.3784 28.8194C23.2364 28.8719 22.8934 28.8824 20.0003 28.8824C17.1071 28.8824 16.765 28.8719 15.6234 28.8194ZM15.5337 9.23358C14.3804 9.2861 13.5923 9.46896 12.9041 9.73676C12.1913 10.0133 11.5879 10.3843 10.9849 10.9863C10.382 11.5883 10.0119 12.1926 9.73532 12.9054C9.46751 13.594 9.28464 14.3817 9.23211 15.5349C9.17872 16.69 9.1665 17.0593 9.1665 20.0013C9.1665 22.9433 9.17872 23.3126 9.23211 24.4677C9.28464 25.621 9.46751 26.4086 9.73532 27.0972C10.0119 27.8095 10.3821 28.4146 10.9849 29.0163C11.5878 29.618 12.1913 29.9885 12.9041 30.2658C13.5936 30.5336 14.3804 30.7165 15.5337 30.769C16.6895 30.8215 17.0582 30.8346 20.0003 30.8346C22.9424 30.8346 23.3117 30.8224 24.4668 30.769C25.6202 30.7165 26.4078 30.5336 27.0965 30.2658C27.8088 29.9885 28.4126 29.6183 29.0156 29.0163C29.6186 28.4143 29.9879 27.8095 30.2652 27.0972C30.533 26.4086 30.7168 25.6209 30.7684 24.4677C30.821 23.3117 30.8332 22.9433 30.8332 20.0013C30.8332 17.0593 30.821 16.69 30.7684 15.5349C30.7159 14.3816 30.533 13.5936 30.2652 12.9054C29.9879 12.1931 29.6176 11.5893 29.0156 10.9863C28.4136 10.3834 27.8088 10.0133 27.0973 9.73676C26.4078 9.46896 25.6201 9.28523 24.4677 9.23358C23.3125 9.18106 22.9432 9.16797 20.0011 9.16797C17.059 9.16797 16.6895 9.18019 15.5337 9.23358Z" fill="white"/>
<rect x="0.75" y="0.75" width="38.5" height="38.5" rx="19.25" stroke="white" stroke-width="1.5"/>
</svg>
