<svg width="22" height="22" viewBox="0 0 22 22" fill="none" xmlns="http://www.w3.org/2000/svg">
<path d="M7.38959 11.0013C7.38959 9.00702 9.00591 7.3899 11.0003 7.3899C12.9946 7.3899 14.6118 9.00702 14.6118 11.0013C14.6118 12.9956 12.9946 14.6127 11.0003 14.6127C9.00591 14.6127 7.38959 12.9956 7.38959 11.0013ZM5.43726 11.0013C5.43726 14.0736 7.92782 16.5641 11.0003 16.5641C14.0727 16.5641 16.5633 14.0736 16.5633 11.0013C16.5633 7.92897 14.0727 5.43852 11.0003 5.43852C7.92782 5.43852 5.43726 7.92897 5.43726 11.0013ZM15.4835 5.21795C15.4834 5.47506 15.5595 5.72644 15.7023 5.94028C15.845 6.15412 16.048 6.32082 16.2855 6.41931C16.523 6.5178 16.7844 6.54365 17.0366 6.49359C17.2888 6.44353 17.5205 6.31981 17.7024 6.13808C17.8843 5.95634 18.0082 5.72475 18.0585 5.4726C18.1087 5.22044 18.0831 4.95904 17.9848 4.72146C17.8865 4.48388 17.7199 4.28078 17.5062 4.13785C17.2925 3.99492 17.0412 3.91857 16.784 3.91847H16.7835C16.4389 3.91863 16.1084 4.05557 15.8646 4.29922C15.6208 4.54287 15.4838 4.87331 15.4835 5.21795ZM6.62343 19.8194C5.56718 19.7713 4.99308 19.5953 4.61156 19.4467C4.10575 19.2498 3.74485 19.0153 3.36541 18.6364C2.98597 18.2575 2.75109 17.8969 2.55505 17.3911C2.40632 17.0098 2.23038 16.4356 2.18236 15.3794C2.12984 14.2374 2.11936 13.8944 2.11936 11.0014C2.11936 8.10837 2.13071 7.7663 2.18236 6.62342C2.23047 5.56722 2.40771 4.99409 2.55505 4.61163C2.75196 4.10584 2.98649 3.74496 3.36541 3.36554C3.74433 2.98611 4.10488 2.75124 4.61156 2.5552C4.9929 2.40648 5.56718 2.23055 6.62343 2.18254C7.7654 2.13002 8.10844 2.11953 11.0003 2.11953C13.8921 2.11953 14.2355 2.13088 15.3784 2.18254C16.4347 2.23064 17.0078 2.40787 17.3903 2.5552C17.8961 2.75124 18.257 2.98663 18.6364 3.36554C19.0159 3.74444 19.2499 4.10584 19.4468 4.61163C19.5955 4.99296 19.7715 5.56722 19.8195 6.62342C19.872 7.7663 19.8825 8.10837 19.8825 11.0014C19.8825 13.8944 19.872 14.2365 19.8195 15.3794C19.7714 16.4356 19.5946 17.0096 19.4468 17.3911C19.2499 17.8969 19.0154 18.2578 18.6364 18.6364C18.2575 19.0149 17.8961 19.2498 17.3903 19.4467C17.0089 19.5954 16.4347 19.7714 15.3784 19.8194C14.2364 19.8719 13.8934 19.8824 11.0003 19.8824C8.10714 19.8824 7.76505 19.8719 6.62343 19.8194ZM6.53373 0.233575C5.38041 0.286095 4.59231 0.468962 3.90407 0.736762C3.19129 1.01332 2.58789 1.38434 1.98493 1.98632C1.38197 2.58831 1.01188 3.19264 0.73532 3.90538C0.467509 4.59404 0.284635 5.38166 0.232113 6.53494C0.178724 7.69003 0.166504 8.05932 0.166504 11.0013C0.166504 13.9433 0.178724 14.3126 0.232113 15.4677C0.284635 16.621 0.467509 17.4086 0.73532 18.0972C1.01188 18.8095 1.38205 19.4146 1.98493 20.0163C2.58781 20.618 3.19129 20.9885 3.90407 21.2658C4.59362 21.5336 5.38041 21.7165 6.53373 21.769C7.68947 21.8215 8.05817 21.8346 11.0003 21.8346C13.9424 21.8346 14.3117 21.8224 15.4668 21.769C16.6202 21.7165 17.4078 21.5336 18.0965 21.2658C18.8088 20.9885 19.4126 20.6183 20.0156 20.0163C20.6186 19.4143 20.9879 18.8095 21.2652 18.0972C21.533 17.4086 21.7168 16.6209 21.7684 15.4677C21.821 14.3117 21.8332 13.9433 21.8332 11.0013C21.8332 8.05932 21.821 7.69003 21.7684 6.53494C21.7159 5.38158 21.533 4.5936 21.2652 3.90538C20.9879 3.19307 20.6176 2.58926 20.0156 1.98632C19.4136 1.38338 18.8088 1.01332 18.0973 0.736762C17.4078 0.468962 16.6201 0.285229 15.4677 0.233575C14.3125 0.181055 13.9432 0.167969 11.0011 0.167969C8.05903 0.167969 7.68947 0.180189 6.53373 0.233575Z" fill="white"/>
</svg>
