<svg width="40" height="40" viewBox="0 0 40 40" fill="none" xmlns="http://www.w3.org/2000/svg">
<path d="M30.5135 29.1587C29.2916 29.1308 28.0989 29.1308 26.877 29.1587C26.6152 29.1587 26.557 29.103 26.557 28.8519C26.557 26.7878 26.557 24.6959 26.557 22.6318C26.557 22.1576 26.5279 21.6835 26.3824 21.2372C25.9461 19.7867 24.2006 19.2568 22.9496 20.233C22.2805 20.7351 22.0187 21.4324 22.0187 22.2692C22.0187 24.2217 22.0187 26.1742 22.0187 28.1267C22.0187 28.3777 21.9896 28.6288 22.0187 28.9077C22.0478 29.1308 21.9314 29.1866 21.7277 29.1587C20.4768 29.1587 19.2549 29.1587 18.004 29.1587C17.7713 29.1587 17.7131 29.103 17.7131 28.8798C17.7422 27.1226 17.7422 25.3653 17.7422 23.5802C17.7422 21.4045 17.7422 19.2289 17.7131 17.0811C17.7131 16.8301 17.7713 16.7743 18.004 16.7743C19.2549 16.7743 20.4768 16.7743 21.7277 16.7743C21.9605 16.7743 22.0187 16.8301 22.0187 17.0532C22.0187 17.4995 22.0187 17.9458 22.0187 18.4758C22.1059 18.3921 22.135 18.3642 22.1641 18.3363C23.2987 16.7464 24.8988 16.3001 26.7897 16.5791C28.9716 16.9138 30.368 18.3642 30.7171 20.5956C30.8044 21.1256 30.8335 21.6556 30.8335 22.1855C30.8335 24.417 30.8335 26.6205 30.8335 28.8519C30.8335 29.0751 30.7753 29.1587 30.5135 29.1587Z" fill="white"/>
<path d="M15.3857 22.9665C15.3857 24.919 15.3857 26.8715 15.3857 28.824C15.3857 29.0751 15.3275 29.1587 15.0657 29.1587C13.8439 29.1308 12.622 29.1587 11.4001 29.1587C11.1674 29.1587 11.1092 29.1029 11.1092 28.8798C11.1092 24.9469 11.1092 20.9861 11.1092 17.0532C11.1092 16.858 11.1674 16.7743 11.4001 16.7743C12.6511 16.7743 13.902 16.7743 15.153 16.7743C15.4148 16.7743 15.4439 16.858 15.4439 17.0811C15.3857 19.0336 15.3857 20.9861 15.3857 22.9665Z" fill="white"/>
<path d="M15.5894 13.5387C15.2984 14.6545 14.1057 15.296 12.7384 15.0728C11.2838 14.8497 10.4692 13.483 10.9929 12.1441C11.342 11.3073 12.1856 10.8052 13.262 10.8331C14.8912 10.8052 15.9676 12.0604 15.5894 13.5387Z" fill="white"/>
<rect x="0.75" y="0.75" width="38.5" height="38.5" rx="19.25" stroke="white" stroke-width="1.5"/>
</svg>
