<svg width="61" height="61" viewBox="0 0 61 61" fill="none" xmlns="http://www.w3.org/2000/svg">
<g filter="url(#filter0_d_8601_2729)">
<g clip-path="url(#clip0_8601_2729)">
<rect width="60" height="60" rx="30" fill="white"/>
<path d="M47.6471 59.6328L30.1177 59.6328L30.1177 81.2671H47.6471V59.6328Z" fill="white"/>
<path d="M7.62472 92.001H7.62357C7.53779 92.0035 7.45251 91.9869 7.37389 91.9525C7.29527 91.918 7.22528 91.8664 7.16895 91.8015C7.10246 91.7179 7.05443 91.621 7.02804 91.5174C7.00165 91.4138 6.99749 91.3057 7.01586 91.2004C7.09355 90.6844 7.16895 90.1597 7.24175 89.6523V89.6514V89.6495C7.28194 89.3697 7.3235 89.0803 7.36499 88.7957C5.78282 89.2265 4.15183 89.4512 2.51233 89.4642C1.82043 89.4651 1.1293 89.4181 0.443862 89.3235C-0.244797 89.2277 -0.924963 89.0783 -1.59047 88.8766C-1.62231 88.8441 -1.63425 88.8174 -1.62583 88.7975C-1.61129 88.7627 -1.53811 88.7466 -1.39542 88.7466C-1.34184 88.7466 -1.28634 88.7487 -1.22916 88.7511L-1.21592 88.7516C-1.16685 88.7536 -1.12054 88.7555 -1.08296 88.7555C-1.05747 88.7567 -1.03194 88.7546 -1.00695 88.7495C-1.5589 88.3751 -2.00871 87.8684 -2.31545 87.2754C-2.46325 86.9891 -2.58243 86.6889 -2.67124 86.3791C-2.76202 86.0615 -2.82885 85.7375 -2.87119 85.4099C-2.95321 84.7271 -2.97371 84.0383 -2.93242 83.3518C-2.89905 82.6557 -2.82679 81.9664 -2.75698 81.2998V81.2987C-2.7187 80.9304 -2.68196 80.5823 -2.65318 80.245C-2.40823 78.6619 -2.18509 77.0176 -1.9693 75.4272V75.4259C-1.41816 71.365 -0.848262 67.166 0.17495 63.1685C0.439269 62.1359 0.728619 61.1394 1.03504 60.2066C1.36343 59.2068 1.72466 58.2398 2.10854 57.3323C2.51524 56.3711 2.96228 55.4415 3.43726 54.5693C3.93006 53.6635 4.47307 52.7861 5.06374 51.9411C5.6851 51.1034 6.37446 50.3186 7.12479 49.5946C7.87605 48.869 8.69135 48.2131 9.56069 47.6348C10.4263 47.0589 11.349 46.5741 12.314 46.1881C13.2833 45.8014 14.2947 45.5305 15.3273 45.3811L15.4429 45.3653C15.6425 45.3386 15.8503 45.3144 16.0512 45.291C17.1043 45.1682 18.193 45.0412 19.0834 44.486C19.5465 44.1156 19.9024 43.629 20.2474 43.1588C20.519 42.7881 20.7756 42.4377 21.0623 42.1768C21.1979 42.0494 21.3521 41.9435 21.5196 41.8628C21.6861 41.7842 21.8676 41.7426 22.0516 41.7406H22.0581C22.2258 41.7524 22.388 41.8057 22.5301 41.8958C22.7018 41.99 22.8855 42.1171 23.0799 42.2516C23.2617 42.3773 23.4496 42.5073 23.6428 42.6208C23.669 42.1661 23.8188 41.7595 23.9633 41.3662C24.0701 41.1051 24.1512 40.834 24.2055 40.557L24.2131 40.5048C24.2317 40.369 24.2421 40.2344 24.252 40.1044C24.2946 39.5477 24.3349 39.0221 25.0047 38.4715C25.3306 38.2305 25.6833 38.0281 26.0556 37.8683C26.4875 37.6796 26.9331 37.5244 27.3887 37.4042C27.8799 37.2728 28.3791 37.1732 28.8831 37.1059C29.3918 37.0367 29.9045 37.0014 30.4178 37.0003C31.0238 36.9948 31.6286 37.0563 32.2211 37.1836C32.7978 37.314 33.2802 37.5112 33.655 37.7693C33.9985 38.0086 34.3098 38.2912 34.5813 38.61C34.8357 38.9108 35.058 39.2373 35.2448 39.5843C35.6195 40.2699 35.8737 41.0045 36.1429 41.7822C36.3381 42.3461 36.5399 42.9291 36.7922 43.493C36.9991 43.3996 37.2242 43.3533 37.4511 43.3575C37.8683 43.3643 38.277 43.4771 38.6389 43.6853C38.8093 43.781 38.9645 43.9018 39.0992 44.0437C39.2208 44.1692 39.3126 44.3204 39.368 44.4863C39.5517 44.7104 39.6333 45.1721 39.7125 45.6187V45.6192C39.7699 45.9441 39.8241 46.2511 39.9145 46.466C40.497 46.5589 41.0622 46.6769 41.5942 46.8163C42.1036 46.9491 42.6054 47.1097 43.0973 47.2972C43.5548 47.472 44.0016 47.6738 44.4352 47.9015C44.8444 48.1169 45.2398 48.3575 45.6192 48.6221C45.9832 48.8766 46.3309 49.1537 46.6603 49.4518C46.9822 49.7436 47.2862 50.0546 47.5706 50.3832C47.853 50.7103 48.1167 51.053 48.3607 51.4098C48.6063 51.7695 48.8336 52.1414 49.042 52.524C49.4686 53.3143 49.8303 54.138 50.1237 54.9871C50.4342 55.8814 50.6955 56.7922 50.9062 57.7152C51.3268 59.5174 51.6218 61.4264 51.9355 63.7382C52.3546 66.107 52.9319 68.5164 53.4902 70.8464V70.8468C53.8524 72.3581 54.2269 73.9213 54.556 75.4631C54.9252 77.1928 55.1963 78.7099 55.3848 80.1013C55.602 81.6488 55.7196 83.2087 55.737 84.7713C55.7427 85.5691 55.7166 86.36 55.6594 87.1214C55.5993 87.9204 55.5028 88.715 55.3727 89.4831C55.5637 89.758 55.7267 90.0515 55.8591 90.3591C55.9408 90.4998 55.9812 90.6607 55.9755 90.8234C55.9701 90.982 55.9261 91.1368 55.8472 91.2744C55.7763 91.4067 55.6715 91.5176 55.5435 91.5957C55.4156 91.6738 55.2691 91.7163 55.1193 91.7187H55.1188C55.1064 91.7187 55.0937 91.7187 55.0811 91.7177C54.8324 91.6959 54.5806 91.6713 54.337 91.6476H54.336C53.7173 91.5874 53.0776 91.5249 52.4424 91.5013C51.1535 91.4564 49.7656 91.4346 48.1995 91.4346C47.2863 91.4346 46.2941 91.4419 45.0769 91.4577L44.7421 91.4621C39.7751 91.524 34.7267 91.6116 29.8446 91.6963C22.5625 91.8221 15.0319 91.953 7.62472 92.001ZM34.7361 64.2091C34.5665 64.9425 34.8402 65.539 35.1298 66.1706C35.2935 66.5042 35.4295 66.8509 35.5364 67.2069C35.6052 67.4585 35.579 67.847 35.5558 68.1897C35.5463 68.3295 35.5373 68.4614 35.5364 68.5686C35.5492 68.774 35.6588 69.0007 35.7652 69.2198C35.9003 69.4989 36.04 69.7875 35.9924 70.0472C35.8806 70.6575 35.5824 71.2703 35.2941 71.863C35.0484 72.3679 34.7945 72.8899 34.6628 73.4C34.5951 73.6488 34.5631 73.906 34.5679 74.1638C34.5744 74.4262 34.6315 74.6849 34.7363 74.9255C35.1956 75.8307 36.5795 76.295 37.4954 76.602L37.5 76.6036C37.7599 76.7014 38.0293 76.772 38.3037 76.8145C38.601 76.8611 38.9014 76.8841 39.2023 76.8831C40.1182 76.8787 41.0253 76.7023 41.8763 76.3629C42.2788 76.2041 42.6608 75.9974 43.0141 75.7473C43.334 75.5242 43.6117 75.2459 43.8345 74.9254C44.2042 74.3743 44.6175 73.2799 44.9495 72.4006C45.1537 71.8598 45.33 71.3929 45.4617 71.1354L45.5398 70.0427C45.6307 68.7597 45.7271 67.2952 45.7199 66.1524C45.7123 64.8832 45.5787 64.1761 45.3124 63.9907C44.7207 63.5787 43.8715 63.2734 42.7886 63.0834C41.7724 62.9179 40.7439 62.8397 39.7144 62.8498C38.5617 62.8498 37.5501 62.9272 36.9044 62.9921C36.1542 63.0676 35.6806 63.1477 35.6402 63.1743C35.5484 63.235 35.4703 63.2808 35.4016 63.3212C35.2109 63.4334 35.0958 63.5011 34.9586 63.7184C34.776 63.7427 34.5898 63.7683 34.4051 63.7946C34.2826 63.8348 34.2183 63.918 34.234 64.0171C34.2466 64.0804 34.283 64.1364 34.3356 64.1736C34.4 64.2207 34.478 64.2453 34.5576 64.2437C34.6187 64.2432 34.6792 64.2314 34.7361 64.2091H34.7361Z" fill="white"/>
<path d="M7.62383 91.9978C7.53805 92.0003 7.45277 91.9838 7.37415 91.9493C7.29553 91.9148 7.22554 91.8632 7.16921 91.7983C7.10272 91.7147 7.05469 91.6178 7.0283 91.5142C7.0019 91.4106 6.99775 91.3025 7.01612 91.1972C7.09404 90.68 7.16921 90.1555 7.24216 89.6483L7.24392 89.6359C7.28365 89.3597 7.32468 89.0735 7.36563 88.7925C5.78346 89.2233 4.15247 89.4481 2.51297 89.461C1.82107 89.4619 1.12994 89.4149 0.444503 89.3203C-0.244348 89.2247 -0.92472 89.0755 -1.59044 88.8739C-1.62228 88.8414 -1.63415 88.8148 -1.6258 88.7948C-1.61126 88.7601 -1.53808 88.744 -1.3954 88.744C-1.34181 88.744 -1.28639 88.746 -1.22913 88.7484L-1.21589 88.749C-1.16675 88.7509 -1.12036 88.7529 -1.08293 88.7529C-1.05744 88.754 -1.03191 88.752 -1.00692 88.7468C-1.55885 88.3723 -2.00859 87.8654 -2.31519 87.2722C-2.46299 86.986 -2.58217 86.6857 -2.67099 86.3759C-2.76169 86.0583 -2.82844 85.7343 -2.8707 85.4066C-2.95273 84.7238 -2.97322 84.035 -2.93194 83.3485C-2.89856 82.6524 -2.8263 81.9631 -2.75649 81.2966C-2.71822 80.9279 -2.6814 80.5797 -2.65254 80.2418C-2.40758 78.6586 -2.18445 77.0144 -1.96866 75.4239V75.4226C-1.41752 71.3617 -0.847621 67.1627 0.175591 63.1653C0.439911 62.1327 0.729261 61.1361 1.03568 60.2033C1.36407 59.2035 1.72522 58.2365 2.10919 57.3291C2.51588 56.3678 2.96292 55.4382 3.4379 54.566C3.93058 53.6603 4.47346 52.7829 5.064 51.9379C5.68536 51.1002 6.37472 50.3154 7.12504 49.5914C7.87631 48.8658 8.69161 48.2099 9.56094 47.6316C10.4266 47.0557 11.3494 46.5708 12.3144 46.1849C13.2837 45.7982 14.2952 45.5273 15.3277 45.3779L15.4433 45.3621L15.5597 45.3468C15.722 45.326 15.8897 45.3065 16.0519 45.2876C17.1048 45.1649 18.1935 45.0379 19.0838 44.4827C19.5468 44.1122 19.9028 43.6257 20.2478 43.1555C20.5081 42.8003 20.7537 42.465 21.0259 42.2078C21.1545 42.0826 21.2997 41.9758 21.4574 41.8905C21.6113 41.8081 21.7801 41.7577 21.9539 41.7422L22.7138 42.2095L27.1275 44.396C27.5533 44.5155 27.8772 44.6487 28.0901 44.7919C28.3029 44.9352 28.411 45.0924 28.411 45.2593V48.6748C28.411 48.9023 28.6136 49.279 29.0132 49.7945C29.4127 50.3101 30.0207 50.9789 30.8197 51.7824L32.3033 50.3002L32.2701 50.1061C32.1296 49.2735 32.0583 48.709 32.0583 48.4279C32.0583 48.3522 32.1502 48.222 32.3304 48.0407C32.5897 47.7908 32.8622 47.5552 33.1469 47.3349C33.8693 46.7608 34.968 45.9642 36.4127 44.9674L37.6827 43.7691L37.5473 43.3564C37.7471 43.3668 37.9448 43.4025 38.1356 43.4628C38.3264 43.5218 38.5094 43.6035 38.6807 43.7062C39.0346 43.9196 39.2789 44.1954 39.3684 44.4828C39.5522 44.7069 39.6338 45.1687 39.7129 45.6153V45.6157C39.7703 45.9407 39.8245 46.2476 39.9149 46.4626C40.4974 46.5555 41.0626 46.6734 41.5946 46.8129C42.104 46.9457 42.6058 47.1062 43.0978 47.2938C43.5552 47.4686 44.002 47.6703 44.4357 47.8981C44.8448 48.1134 45.2403 48.3541 45.6196 48.6187C45.9836 48.8732 46.3313 49.1503 46.6607 49.4484C46.9826 49.7402 47.2866 50.0513 47.5709 50.38C47.8532 50.7071 48.117 51.0498 48.361 51.4066C48.6065 51.7663 48.8339 52.1382 49.0422 52.5208C49.4689 53.311 49.8307 54.1346 50.1241 54.9836C50.4346 55.8779 50.6959 56.7887 50.9066 57.7117C51.3272 59.5139 51.6223 61.4229 51.936 63.7347C52.355 66.1035 52.9323 68.5129 53.4906 70.8429V70.8433C53.8529 72.3546 54.2273 73.9178 54.5564 75.4596C54.9256 77.1893 55.1967 78.7064 55.3853 80.0978C55.6024 81.6453 55.7201 83.2052 55.7374 84.7678C55.7431 85.5656 55.717 86.3564 55.6598 87.1179C55.5997 87.9169 55.5032 88.7114 55.3731 89.4796C55.5641 89.7545 55.7271 90.048 55.8595 90.3556C55.9412 90.4963 55.9816 90.6572 55.9759 90.8199C55.9705 90.9785 55.9265 91.1333 55.8476 91.2709C55.7768 91.4032 55.6719 91.5141 55.544 91.5922C55.416 91.6703 55.2695 91.7128 55.1197 91.7152H55.1193C55.1069 91.7152 55.0942 91.7152 55.0815 91.7143C54.8337 91.6924 54.5824 91.6683 54.3395 91.6443H54.3374C53.7182 91.584 53.0782 91.5216 52.4428 91.498C51.1535 91.4531 49.7656 91.4313 48.1997 91.4313C47.2868 91.4313 46.2946 91.4385 45.0773 91.4543L44.7425 91.4588C39.7773 91.5207 34.7289 91.6082 29.8468 91.6928H29.8451C22.5626 91.8191 15.0321 91.9496 7.62483 91.9979L7.62383 91.9978ZM20.2107 71.7604L19.5965 76.2254L21.0739 79.4137L24.419 78.2843L29.87 76.8443L32.9976 73.6643L34.762 73.0706C34.6529 73.3687 34.588 73.6812 34.5692 73.9982C34.5531 74.3151 34.6103 74.6314 34.7364 74.9225C35.1957 75.8278 36.5797 76.2921 37.4955 76.5991L37.5001 76.6006C37.76 76.6984 38.0294 76.7691 38.3038 76.8116C38.6011 76.8582 38.9015 76.8812 39.2024 76.8802C40.1184 76.8758 41.0254 76.6994 41.8764 76.36C42.2789 76.2012 42.6609 75.9945 43.0143 75.7444C43.334 75.5212 43.6117 75.2429 43.8345 74.9224C44.2042 74.3713 44.6175 73.2769 44.9495 72.3977C45.1537 71.8568 45.33 71.39 45.4616 71.1324L45.5626 69.7132C45.6522 68.4243 45.7331 67.0838 45.7185 66.0165C45.7024 64.8306 45.5695 64.167 45.3123 63.988C44.7206 63.576 43.8714 63.2708 42.7885 63.0806C41.7723 62.9152 40.7438 62.837 39.7143 62.847C38.5616 62.847 37.55 62.9245 36.9043 62.9894C36.1541 63.0648 35.6805 63.145 35.6401 63.1716C35.5483 63.2322 35.4702 63.278 35.4014 63.3185C35.2108 63.4306 35.0957 63.4984 34.9585 63.7156L34.8617 63.7286L35.406 62.9887L35.2134 62.8855C34.5288 62.5217 33.956 62.245 33.5108 62.0631C33.0656 61.8812 32.7354 61.789 32.5294 61.789C32.314 61.789 31.9811 61.959 31.5398 62.2943C30.9508 62.7626 30.3929 63.269 29.8697 63.8102L29.7516 63.8649C29.0597 64.1801 28.3854 64.5327 27.7316 64.9212C27.1974 65.2468 26.7938 65.5518 26.5318 65.8277L26.513 65.8476C25.9834 66.417 24.9208 67.9517 23.3535 70.4091L21.0734 71.7606L20.2107 71.7604ZM35.4953 67.0643L34.671 65.4829V64.2265C34.6932 64.221 34.715 64.2141 34.7364 64.2059C34.5668 64.9394 34.8403 65.5359 35.13 66.1675C35.2706 66.4584 35.3926 66.7579 35.4954 67.0643L35.4953 67.0643Z" fill="white"/>
<path d="M7.77221 91.5081C7.68257 91.5081 7.59426 91.4864 7.51478 91.4449L7.49618 91.4347L7.46494 91.4167C7.3527 91.3482 7.26491 91.246 7.2141 91.1245C7.15803 91.0048 7.14981 90.868 7.19113 90.7424C7.30114 90.4217 7.39211 90.0948 7.46357 89.7633C7.53093 89.478 7.60051 89.1832 7.69512 88.9011L7.53437 88.973L7.32287 89.065C6.46046 89.4499 5.57302 89.7758 4.66667 90.0404C3.66336 90.3227 2.75604 90.4599 1.89289 90.4599C1.25527 90.4622 0.62014 90.38 0.00400043 90.2155C-0.548323 90.0712 -1.07164 89.8325 -1.54287 89.5097C-2.01494 89.1878 -2.4038 88.7579 -2.67731 88.2555C-2.93842 87.7498 -3.11292 87.2037 -3.19355 86.64C-3.27506 86.0766 -3.31891 85.5083 -3.32483 84.939C-3.36046 83.5413 -3.28623 82.1429 -3.10284 80.7569C-2.98773 79.82 -2.8206 78.8903 -2.60222 77.972C-2.72968 77.859 -2.81072 77.7026 -2.82964 77.5331C-2.91752 76.8223 -2.80851 76.0849 -2.70318 75.3717V75.3698C-2.6793 75.208 -2.65458 75.0407 -2.63291 74.8781C-2.51258 73.9749 -2.38842 73.1428 -2.25316 72.3344C-1.95891 70.5749 -1.62118 68.8592 -1.24939 67.2351C-0.910973 65.7567 -0.509864 64.255 -0.0571613 62.7719C0.385437 61.322 0.888814 59.8515 1.43919 58.4017L1.53495 58.1508C2.10408 56.6678 2.65109 55.3986 3.20714 54.2707C3.82291 53.0032 4.537 51.7861 5.34282 50.6305C5.72116 50.0829 6.1324 49.5588 6.57424 49.0613C7.01641 48.5646 7.50995 48.1163 8.04655 47.724C8.98633 47.0433 10.0968 46.4889 11.4414 46.0285C12.0409 45.8241 12.6504 45.6508 13.2676 45.5092C13.8662 45.3712 14.4945 45.2574 15.1354 45.1699C15.3254 45.144 15.5201 45.1192 15.7084 45.0952C16.8038 44.9555 17.9364 44.8114 18.9503 44.3643C18.9147 44.2972 18.8933 44.2235 18.8872 44.1477C18.881 44.072 18.8904 43.9958 18.9148 43.9238C18.9604 43.7757 19.0548 43.6476 19.1827 43.5604C19.9248 43.0694 20.6185 42.4489 21.2894 41.8491C21.3877 41.7614 21.4892 41.6706 21.5897 41.5814C21.63 41.5442 21.6826 41.5233 21.7374 41.5227C21.7754 41.5232 21.8127 41.5332 21.8458 41.552C21.8788 41.5708 21.9066 41.5977 21.9266 41.6301C21.9457 41.6622 21.9559 41.6988 21.9561 41.7362C21.9563 41.7736 21.9465 41.8103 21.9277 41.8426C21.6789 42.336 21.3836 42.8045 21.0457 43.2415C20.8269 43.5133 20.5932 43.7687 20.3732 44.0042C20.9549 44.5084 21.4489 45.1243 21.9271 45.7198L21.9564 45.7563C22.1052 45.9416 22.2538 46.1312 22.3976 46.3146C22.8504 46.8922 23.3186 47.4893 23.842 48.0208C24.1691 48.3565 24.5332 48.6538 24.9272 48.9072C25.3214 49.1584 25.7433 49.363 26.1844 49.517L26.3681 49.5809C26.8383 49.7366 27.2914 49.9399 27.7204 50.1877C28.1943 50.4758 28.5388 50.8082 28.7737 51.2037C28.7914 51.2333 28.8008 51.267 28.8008 51.3015C28.8008 51.3359 28.7914 51.3697 28.7737 51.3992C28.7562 51.4312 28.7306 51.4581 28.6996 51.4772C28.6685 51.4963 28.633 51.5069 28.5966 51.5082C28.5619 51.508 28.5279 51.498 28.4986 51.4793C27.9279 51.1251 27.2815 50.948 26.656 50.7768C26.2993 50.6791 25.9305 50.5781 25.5776 50.4452C25.1135 50.2698 24.6696 50.0452 24.2533 49.7751C23.8375 49.5039 23.4484 49.1937 23.0911 48.8487C22.4908 48.272 21.9609 47.6177 21.4486 46.9851L21.446 46.9819C21.3413 46.8527 21.2332 46.7192 21.126 46.5883C20.5052 45.842 19.8217 45.1504 19.083 44.5211C18.5171 44.8935 17.9054 45.1907 17.2632 45.4052C16.6491 45.6193 16.0132 45.7821 15.3053 45.9576L15.1604 45.9936C14.3852 46.1859 13.7559 46.3613 13.18 46.5459C12.526 46.7516 11.8852 46.9972 11.2612 47.2814C10.7068 47.5325 10.1675 47.8158 9.64609 48.1299C9.1243 48.4432 8.63459 48.8072 8.18403 49.2167C7.20468 50.1174 6.44809 51.2808 5.81573 52.3007C5.06613 53.5232 4.40587 54.7985 3.84011 56.1166C3.33489 57.2751 2.84453 58.5513 2.29752 60.132C1.81412 61.5292 1.36203 62.965 0.95388 64.3997C0.549173 65.8225 0.176998 67.2812 -0.152157 68.7352C-0.47603 70.1661 -0.747697 71.6287 -0.982699 73.2063C-1.0891 73.9204 -1.1857 74.6515 -1.26991 75.3794C-1.29164 75.5672 -1.30956 75.7596 -1.32693 75.9458V75.9474C-1.38136 76.5304 -1.43762 77.1333 -1.61728 77.6976C-1.65522 77.831 -1.73485 77.9487 -1.84447 78.0334C-1.93933 78.1029 -2.05399 78.1399 -2.17148 78.139C-2.1809 78.139 -2.19039 78.139 -2.19973 78.1383L-2.24857 78.7504C-2.31088 79.5353 -2.37342 80.3713 -2.39401 81.204C-2.43098 82.6972 -2.40503 84.0349 -2.31447 85.2931L-2.30062 85.4789C-2.27056 85.9926 -2.18789 86.5019 -2.05391 86.9987C-1.88956 87.5559 -1.64476 87.9876 -1.30542 88.3187C-0.949018 88.6666 -0.477791 88.9292 0.094939 89.0989C0.616215 89.2466 1.15521 89.3222 1.69693 89.3236C1.73015 89.324 1.76322 89.3242 1.79529 89.3242C2.36686 89.3211 2.93675 89.2617 3.49672 89.1468C4.06087 89.031 4.61642 88.8765 5.15948 88.6845C6.25343 88.3045 7.3133 87.806 8.33835 87.3237L8.60367 87.199C9.68972 86.6891 10.7905 86.1373 11.8753 85.5588C12.9317 84.9954 14.0043 84.3902 15.063 83.76C16.1203 83.1309 17.1867 82.4677 18.2327 81.7898C18.7406 81.4604 19.2539 81.1196 19.7583 80.7771C19.8589 80.7087 19.9593 80.6369 20.0563 80.5674C20.237 80.4381 20.4238 80.3045 20.6151 80.1909C20.5432 80.1254 20.4932 80.0393 20.4718 79.9443C20.4617 79.8956 20.4614 79.8453 20.4709 79.7965C20.4804 79.7477 20.4996 79.7013 20.5273 79.66C20.3138 79.4712 20.1292 79.2518 19.9795 79.009C19.8253 78.7598 19.6983 78.4947 19.6007 78.2184C19.4099 77.6751 19.3022 77.1061 19.281 76.5306C19.2522 75.7883 19.3432 75.0375 19.4313 74.3115L19.4317 74.3076C19.4458 74.1914 19.4603 74.0712 19.4742 73.9531C19.5262 73.509 19.5902 73.0709 19.6516 72.663C19.6623 72.5919 19.6717 72.521 19.6816 72.4459C19.6952 72.3436 19.7091 72.2377 19.7265 72.1334C18.5904 72.7592 17.4148 73.3632 16.2323 73.9291C15.0657 74.4874 13.8581 75.0248 12.6429 75.5266C11.4406 76.0231 10.205 76.4802 8.86577 76.9239L8.60711 77.0092C7.87516 77.2493 7.30978 77.423 6.77403 77.5719C6.09803 77.76 5.48841 77.9024 4.91032 78.0072C4.90658 78.0079 4.90279 78.0082 4.89899 78.0082C4.88228 78.0075 4.86627 78.0013 4.85347 77.9905C4.84066 77.9797 4.83177 77.965 4.82819 77.9486C4.8252 77.9364 4.82687 77.9235 4.83286 77.9125C4.83885 77.9015 4.84872 77.8931 4.86056 77.8889C5.66898 77.5314 6.50932 77.2062 7.32195 76.8911C7.73347 76.7317 8.15908 76.5668 8.57512 76.4001L8.77827 76.3172C8.75374 76.3158 8.72937 76.3123 8.70548 76.3066C8.19261 76.1824 7.67553 76.0086 7.17575 75.8404L7.17452 75.84C6.96945 75.771 6.75742 75.6997 6.54997 75.6334C6.34253 75.567 6.12299 75.5072 5.91049 75.4492C5.44064 75.3214 4.95472 75.1892 4.53149 74.9705C4.52245 74.9663 4.51513 74.9591 4.51076 74.9501C4.5064 74.9412 4.50525 74.931 4.50753 74.9213C4.50992 74.9095 4.51601 74.8989 4.52489 74.8908C4.53377 74.8828 4.54499 74.8778 4.5569 74.8766C4.62641 74.8718 4.6992 74.8693 4.7733 74.8693C5.24698 74.8693 5.73964 74.9669 6.21607 75.0611C6.37766 75.0931 6.52991 75.1234 6.68301 75.1501L6.93837 75.1949C7.32976 75.2639 7.78461 75.3471 8.2292 75.4578C8.23747 75.3852 8.26017 75.315 8.29597 75.2513C8.33177 75.1876 8.37994 75.1318 8.43764 75.0871C9.47501 74.3172 9.56197 72.8971 9.63874 71.6441V71.6435C9.65451 71.3868 9.66936 71.1443 9.69179 70.9122L9.79077 69.8885C9.95864 68.1603 10.1461 66.3228 10.4286 64.5268C10.4307 64.5097 10.4393 64.494 10.4526 64.483C10.4658 64.4719 10.4827 64.4663 10.4999 64.4673C10.5226 64.4663 10.5449 64.4743 10.5618 64.4895C10.5788 64.5047 10.5891 64.526 10.5907 64.5487C10.6006 66.0591 10.5245 67.5903 10.4508 69.071C10.417 69.7515 10.3819 70.4551 10.3558 71.1485L10.3429 71.5096L10.341 71.5665C10.2958 72.9068 10.2491 74.2925 9.40711 75.323C9.45929 75.2922 9.51859 75.2757 9.57911 75.2751C9.61809 75.2744 9.65674 75.2824 9.69226 75.2985C9.72778 75.3146 9.75928 75.3384 9.78449 75.3682C9.89911 75.4932 9.96488 75.6555 9.96974 75.8252C10.7122 75.5132 11.4873 75.1781 12.2729 74.8294C13.4794 74.2937 14.7057 73.7116 15.9177 73.0996C17.0969 72.5039 18.2942 71.8639 19.4762 71.197C19.5268 71.1663 19.583 71.1461 19.6416 71.1374C19.7001 71.1288 19.7597 71.1318 19.817 71.1464C19.8744 71.161 19.9282 71.1869 19.9755 71.2225C20.0228 71.2582 20.0625 71.3029 20.0924 71.354L20.1104 71.3514C20.1134 71.351 20.1165 71.3507 20.1196 71.3506L20.1374 71.3498H20.1394C20.2454 71.2927 20.3641 71.2637 20.4844 71.2654C20.7516 71.2725 21.0067 71.3783 21.2009 71.5624C21.2077 71.569 21.214 71.5762 21.2196 71.5825L21.2238 71.5874C21.588 71.4231 21.924 71.2023 22.2196 70.9331C22.5316 70.6466 22.8204 70.3358 23.0833 70.0035C23.3258 69.7009 23.5685 69.3636 23.8251 68.9723C24.0352 68.6518 24.2409 68.3167 24.4398 67.9926C24.7417 67.5009 25.0538 66.9925 25.3919 66.5167C25.7243 66.0372 26.105 65.5932 26.5278 65.1915C26.9887 64.768 27.5055 64.4099 28.0638 64.1275C28.6218 63.8463 29.2065 63.6216 29.8091 63.457C29.8069 63.4393 29.8087 63.4213 29.8144 63.4044C29.82 63.3874 29.8294 63.372 29.8418 63.3591C29.8556 63.3408 29.8729 63.3255 29.8928 63.3142C29.9126 63.3028 29.9346 63.2956 29.9573 63.293C29.982 63.294 30.0061 63.3005 30.0279 63.3121C30.0333 63.3147 30.0378 63.3189 30.0407 63.3242L30.1583 63.1229C30.2438 62.9771 30.2924 62.8984 30.3114 62.8745C30.4472 62.703 30.5888 62.5308 30.7324 62.3627C30.9705 62.0665 31.2535 61.8095 31.571 61.6012C31.8279 61.4423 32.1246 61.3601 32.4264 61.3642C32.8551 61.3642 33.2939 61.5078 33.7181 61.6467L33.7278 61.6498C34.0114 61.7426 34.2991 61.8391 34.5775 61.9323L34.5852 61.9348C34.7314 61.9838 34.8825 62.0345 35.0313 62.0839L35.0761 62.0987C35.1028 62.1073 35.1296 62.1158 35.1598 62.1251C35.314 62.1677 35.4634 62.2261 35.6057 62.2993C35.7402 62.3673 35.8483 62.4782 35.9131 62.6145C35.9778 62.7509 35.9954 62.9049 35.9632 63.0524C37.1428 62.7598 38.3542 62.6153 39.5693 62.6223C40.5731 62.6252 41.575 62.7085 42.5655 62.8714C43.5437 63.0312 44.5099 63.2576 45.4574 63.5489C45.5182 63.5656 45.5737 63.5979 45.6184 63.6426C45.663 63.6874 45.6952 63.7429 45.7119 63.8039C45.886 64.6883 46.0056 65.5826 46.07 66.4818C46.134 67.381 46.1284 68.2838 46.0534 69.1822C45.9885 69.9558 45.8649 70.7233 45.6835 71.4781C45.5013 72.2326 45.2488 72.9684 44.9294 73.6756L44.8927 73.7558C44.5084 74.5885 44.1169 75.2476 43.6957 75.771C43.4525 76.0792 43.1722 76.3561 42.8613 76.5955C42.5593 76.8279 42.2166 77.0018 41.8509 77.1083C41.4633 77.2101 41.0635 77.2577 40.6629 77.2495C40.3149 77.2495 39.9613 77.2243 39.6193 77.1999C39.4398 77.1871 39.2542 77.1739 39.075 77.1649C38.8772 77.1549 38.6748 77.1467 38.4791 77.1387H38.4786C37.8003 77.1112 37.099 77.0828 36.4231 76.9752C36.0451 76.9187 35.6798 76.7964 35.3438 76.6137C35.0094 76.4285 34.7173 76.1752 34.4865 75.8701C34.0698 75.3206 33.8507 74.6503 33.6759 74.0081C33.5819 74.0381 33.5047 74.0652 33.433 74.0933C33.1023 74.2307 32.8025 74.4334 32.5514 74.6893C32.3045 74.929 32.0789 75.1963 31.8607 75.4548C31.6 75.7793 31.3161 76.0844 31.0115 76.3678C30.493 76.8196 29.9066 77.1865 29.2738 77.4548C28.7373 77.682 28.1842 77.8677 27.6194 78.0101C27.0572 78.1568 26.4772 78.2768 25.9164 78.3929L25.9117 78.3939C25.6703 78.4438 25.4207 78.4955 25.1758 78.5486L25.0792 78.5697C24.6429 78.6656 24.072 78.7988 23.5201 78.979C23.0089 79.1397 22.5168 79.3561 22.0527 79.6244C22.0376 79.7822 21.9635 79.9284 21.8453 80.0338C21.9267 80.1089 21.9822 80.208 22.0038 80.3167C22.0242 80.4344 21.9992 80.5555 21.9337 80.6554C21.6005 81.1853 21.061 81.5271 20.5398 81.8578L20.5391 81.8582C20.4382 81.9222 20.3338 81.9886 20.2329 82.0546L20.1928 82.0812C19.5898 82.4818 18.9729 82.8802 18.3594 83.2649C17.1576 84.0188 15.9057 84.7512 14.5309 85.5038C13.4634 86.0883 12.3997 86.6469 11.3691 87.164C10.283 87.7087 9.19821 88.2259 8.14476 88.7005C8.20722 89.0546 8.24304 89.4128 8.25193 89.7723C8.26165 90.0662 8.28608 90.3594 8.32511 90.6508L8.34042 90.7428C8.3651 90.8494 8.36152 90.9607 8.33003 91.0654C8.29854 91.1702 8.24024 91.2649 8.16092 91.3401L8.14346 91.3561V91.354L8.12815 91.3682L8.12295 91.3725L8.12471 91.3712C8.10629 91.3883 8.08672 91.4042 8.06615 91.4187L8.04066 91.4351C7.95953 91.4836 7.86667 91.5089 7.77221 91.5081ZM20.214 72.2811C20.2147 72.3343 20.2149 72.389 20.2151 72.4373C20.2151 72.5157 20.2157 72.5898 20.2177 72.6636C20.2265 72.9987 20.231 73.3559 20.231 73.7253C20.231 73.9928 20.2258 74.2648 20.2208 74.5278C20.2118 74.9938 20.2025 75.4755 20.2222 75.9488C20.2327 76.2807 20.2693 76.6112 20.3315 76.9374C20.3928 77.2639 20.502 77.5796 20.6558 77.8739C20.7633 78.0753 20.8975 78.2611 21.0549 78.4263C21.209 78.5852 21.3769 78.7302 21.5564 78.8596C22.0096 78.5865 22.4881 78.3582 22.9854 78.1779C23.4858 77.9957 23.9964 77.8428 24.5145 77.7198C24.9231 77.62 25.3417 77.5298 25.747 77.4424H25.7475C26.5838 77.262 27.4485 77.0755 28.2728 76.7966C28.8642 76.6046 29.4257 76.3303 29.941 75.9819C30.441 75.6367 30.8394 75.1709 31.2245 74.7208L31.2289 74.7157C31.2623 74.6766 31.2957 74.6376 31.3293 74.5985L31.3961 74.5212C31.8209 74.0328 32.3004 73.5429 32.9265 73.2669C33.1415 73.1795 33.3626 73.1082 33.588 73.0536C33.956 72.9544 34.3363 72.8518 34.6232 72.6279C34.8614 72.4418 34.8853 72.1773 34.9106 71.8972L34.912 71.8807C34.8447 71.8901 34.7767 71.8947 34.7087 71.8943C34.539 71.8901 34.3697 71.8742 34.2022 71.8467H34.2011C34.1357 71.8375 34.0681 71.828 34.0026 71.8203L33.8489 71.8023C33.5692 71.7738 33.2917 71.7265 33.0183 71.6606C33.0072 71.6572 32.9975 71.6503 32.9905 71.6409C32.9836 71.6315 32.9799 71.6202 32.9799 71.6086C32.9799 71.5969 32.9836 71.5856 32.9905 71.5762C32.9975 71.5668 33.0072 71.5599 33.0183 71.5565C33.329 71.4831 33.6445 71.4313 33.9624 71.4016L34.0027 71.3968L34.0813 71.387C34.1196 71.3819 34.1591 71.3765 34.1972 71.3712H34.1981C34.3658 71.344 34.5351 71.3282 34.705 71.3241C34.8038 71.3231 34.9024 71.3332 34.9991 71.3541C35.0531 71.1476 35.1331 70.9489 35.2372 70.7627C35.2831 70.6801 35.3405 70.5953 35.4013 70.5056C35.5419 70.2985 35.6871 70.0836 35.7141 69.8616C35.7243 69.7611 35.7051 69.6598 35.6587 69.5701L35.6434 69.5414C35.6264 69.5062 35.6011 69.4756 35.5697 69.4523C35.5617 69.4593 35.5521 69.4642 35.5418 69.4665C35.4421 69.4991 35.3341 69.4957 35.2366 69.4569C35.1391 69.418 35.0583 69.3462 35.0082 69.2538C34.7045 69.2855 34.3993 69.3006 34.0939 69.2991C33.9377 69.3012 33.7901 69.3032 33.6478 69.3096L33.222 69.3302C33.0818 69.3366 32.8973 69.344 32.7128 69.3441C32.4279 69.3491 32.1433 69.3236 31.8637 69.2681C31.8486 69.2638 31.8352 69.2548 31.8254 69.2424C31.8157 69.23 31.81 69.2149 31.8093 69.1991C31.8071 69.1852 31.8095 69.1709 31.816 69.1585C31.8226 69.146 31.833 69.136 31.8457 69.13C32.3022 68.9344 32.8332 68.8559 33.3461 68.7801C33.4206 68.7691 33.4977 68.7577 33.5719 68.7463C33.781 68.7141 33.9947 68.6865 34.2013 68.6599L34.2065 68.6592C34.3087 68.646 34.4143 68.6325 34.518 68.6184C34.5852 68.6094 34.6552 68.5981 34.7229 68.5873H34.7236C34.8707 68.561 35.0191 68.5426 35.1681 68.532C35.3014 68.3658 35.3905 68.1685 35.427 67.9584C35.4626 67.7554 35.4531 67.547 35.3993 67.348C35.3485 67.1571 35.2571 66.9794 35.1314 66.8272C35.0062 66.6748 34.844 66.5571 34.6603 66.4857C34.5507 66.5333 34.4321 66.5569 34.3126 66.5547C34.213 66.5526 34.1137 66.5445 34.0152 66.5304H34.0141C33.9559 66.5233 33.8957 66.5161 33.8334 66.5107C33.4977 66.4818 33.2199 66.4684 32.9588 66.4684L32.9271 66.4684C32.6758 66.4742 32.4249 66.4926 32.1755 66.5237C31.918 66.5559 31.659 66.5745 31.3995 66.5794C31.2918 66.5799 31.1843 66.5741 31.0773 66.5622C31.0479 66.5578 31.0204 66.5453 30.9978 66.5261C30.9751 66.5069 30.9582 66.4818 30.949 66.4535C30.9427 66.4333 30.9429 66.4116 30.9496 66.3914C30.9562 66.3713 30.969 66.3537 30.986 66.3412C31.2249 66.1553 31.4985 66.0192 31.7907 65.9409C32.085 65.859 32.385 65.7994 32.6882 65.7625L32.8092 65.7463C32.862 65.7394 32.9186 65.7315 32.9734 65.7238C33.1306 65.7019 33.3084 65.6772 33.4895 65.6607C33.5187 65.6025 33.562 65.5525 33.6156 65.5155C33.6691 65.4784 33.731 65.4554 33.7957 65.4487C33.8361 65.4432 33.8772 65.4396 33.9169 65.4363L33.9302 65.4351L33.9295 65.4307C33.9755 65.429 34.0204 65.4157 34.0598 65.3919C34.0993 65.368 34.132 65.3345 34.1549 65.2945C34.2799 65.095 34.2537 64.7288 34.1798 64.5538C34.0905 64.3422 33.9064 64.1884 33.6326 64.0966C33.3793 64.0208 33.1156 63.9855 32.8513 63.9922C32.7365 63.9922 32.6169 63.9967 32.4762 64.0062C31.7936 64.0519 31.1166 64.1603 30.4537 64.3301C29.7904 64.4959 29.1485 64.7381 28.5408 65.052C27.9518 65.367 27.4201 65.7796 26.9684 66.2724C26.5186 66.7657 26.1142 67.2988 25.7601 67.8651L25.7256 67.9188C25.6073 68.1029 25.4871 68.2972 25.3708 68.485L25.37 68.4862C25.0698 68.9712 24.7593 69.4727 24.4075 69.9317C24.0687 70.3929 23.6587 70.7971 23.193 71.129C22.5132 71.5941 21.8621 71.8983 21.2579 72.0331C21.2342 72.0762 21.2019 72.1138 21.1629 72.1438C21.124 72.1737 21.0793 72.1952 21.0316 72.2069L20.9846 72.2177C20.788 72.2621 20.5875 72.2862 20.386 72.2896C20.3286 72.2899 20.2711 72.2871 20.214 72.2811ZM9.0667 76.1702C9.06023 76.1802 9.05318 76.1898 9.04558 76.1989L9.03394 76.2124L9.09426 76.188L9.0667 76.1702ZM37.962 63.0988C37.2831 63.0988 36.5918 63.1171 35.942 63.1358C35.8725 63.3463 35.7414 63.5309 35.5658 63.6657C35.3968 63.8054 35.1879 63.8877 34.9693 63.9008C35.131 64.1529 35.2255 64.4423 35.2438 64.7414C35.2656 65.0364 35.2166 65.3324 35.1008 65.6046C35.3449 65.7009 35.5708 65.8384 35.7687 66.0112C35.9717 66.1893 36.1391 66.4044 36.2622 66.645C36.3481 66.8122 36.4125 66.9897 36.4536 67.1732C36.4929 67.3497 36.51 67.5304 36.5044 67.7111C36.4913 68.071 36.3939 68.4228 36.2199 68.7379C36.3718 68.8791 36.4902 69.0527 36.5664 69.2457C36.6461 69.4407 36.6836 69.6505 36.6761 69.8612C36.6588 70.2688 36.4434 70.6227 36.2351 70.9647C36.2082 71.0089 36.1805 71.0543 36.154 71.0988C35.9538 71.4345 35.9109 71.7371 35.8611 72.0875C35.8496 72.1683 35.8382 72.2518 35.8236 72.3385C35.7759 72.6486 35.6374 72.9375 35.4256 73.1686C35.2123 73.3908 34.9553 73.566 34.6707 73.6831L34.7019 73.8058C34.7734 74.1061 34.8672 74.4006 34.9823 74.687C35.0948 74.9707 35.2617 75.2297 35.4733 75.4492C35.988 75.9633 36.7704 75.9969 37.4607 76.0267C37.5199 76.0292 37.5733 76.0316 37.626 76.0344L37.6614 76.0361C38.2094 76.0635 38.7662 76.0954 39.3047 76.1261H39.3059H39.31L39.6785 76.1471L40.1827 76.1754C40.3408 76.1841 40.5272 76.193 40.7109 76.193C40.9958 76.1987 41.2803 76.1674 41.5572 76.0997C41.8406 76.0278 42.105 75.8949 42.3321 75.7102C42.8061 75.3256 43.2477 74.7945 43.6443 74.1317C43.9937 73.5371 44.2864 72.9108 44.5186 72.2612C44.7511 71.6197 44.9311 70.9603 45.0568 70.2896C45.1818 69.6196 45.2605 68.9418 45.2924 68.2609C45.3241 67.5783 45.317 66.8944 45.271 66.2126C45.2278 65.5567 45.1494 64.8732 45.0381 64.1809C43.5888 63.7099 42.0952 63.3885 40.5806 63.222C39.7106 63.1335 38.8364 63.0924 37.962 63.0988ZM32.82 62.9644C33.1292 62.9608 33.4377 62.9955 33.7385 63.0676C34.027 63.1369 34.2987 63.2636 34.5374 63.4402C34.5384 63.4385 34.5392 63.4369 34.5401 63.4352C34.5409 63.4336 34.5427 63.4303 34.5443 63.4276C34.619 63.3203 34.704 63.2206 34.798 63.1298L34.801 63.1266C34.8097 63.1184 34.8183 63.1098 34.8275 63.1002L34.8787 63.0456L34.7617 63.005C34.5834 62.9418 34.3832 62.8662 34.2636 62.8209C34.2154 62.8026 34.1806 62.7895 34.1671 62.7847L34.1638 62.7836L34.0006 62.7283H34.0001C33.7398 62.64 33.47 62.5487 33.2062 62.455C33.1592 62.4383 33.1128 62.4209 33.0636 62.4023C32.8509 62.3223 32.6309 62.2395 32.4088 62.2395C32.3652 62.2394 32.3217 62.2428 32.2787 62.2497C32.0563 62.2941 31.8464 62.387 31.6638 62.5217C31.4677 62.662 31.2802 62.8141 31.1022 62.9769L31.1017 62.9774C31.0036 63.0636 30.911 63.145 30.8193 63.2195L31.0356 63.1774C31.611 63.067 32.2252 62.9645 32.82 62.9644ZM47.413 91.4358C47.3607 91.436 47.3098 91.4185 47.2687 91.386C47.2464 91.3681 47.2279 91.3459 47.2145 91.3206C47.201 91.2953 47.1928 91.2675 47.1903 91.239L47.156 90.9068C47.1235 90.4857 47.0439 90.0696 46.9187 89.6664C46.7647 89.1899 46.6635 88.698 46.6167 88.1994C46.5281 87.4139 46.4887 86.6084 46.4559 85.8507L46.433 85.3084C46.3598 83.6141 46.3286 81.9583 46.3403 80.3869C46.3528 78.7001 46.4151 77.0451 46.5256 75.468L46.5424 75.2342C46.6119 74.287 46.6796 73.5618 46.7622 72.8821C46.8679 72.0119 46.9964 71.2408 47.1551 70.5248C47.5411 68.7828 48.1125 67.351 48.9022 66.1476C48.9073 66.1393 48.9145 66.1325 48.923 66.1277C48.9315 66.123 48.941 66.1205 48.9508 66.1206C48.9598 66.1206 48.9686 66.1225 48.9767 66.1264C48.9849 66.1303 48.992 66.136 48.9976 66.143C49.0029 66.1498 49.0065 66.1578 49.0081 66.1663C49.0098 66.1748 49.0095 66.1836 49.0072 66.1919C48.61 67.8226 48.2068 69.5748 47.9483 71.3397C47.8467 72.033 47.7689 72.7428 47.7104 73.5095C47.6583 74.1923 47.6229 74.9052 47.6022 75.6883C47.5639 77.1427 47.5829 78.623 47.6015 80.0545V80.0685C47.6047 80.3101 47.608 80.56 47.6109 80.8056L47.6128 80.9688C47.6299 82.4793 47.6555 84.2665 47.715 86.0698C47.7218 86.277 47.7303 86.4886 47.7387 86.693C47.7649 87.3374 47.7923 88.0038 47.769 88.6559C47.7537 88.9192 47.7207 89.1811 47.6701 89.4399C47.6371 89.6301 47.6032 89.8267 47.5844 90.024C47.5609 90.3599 47.5624 90.6971 47.5887 91.0328C47.5921 91.0968 47.5963 91.1693 47.5993 91.2393C47.6017 91.2648 47.5987 91.2905 47.5907 91.3149C47.5827 91.3392 47.5697 91.3616 47.5526 91.3807C47.5343 91.3989 47.5125 91.4132 47.4884 91.4227C47.4644 91.4322 47.4387 91.4367 47.4129 91.4358H47.413ZM55.8655 91.2936C55.7739 91.2949 55.683 91.2777 55.5982 91.243C55.5135 91.2084 55.4365 91.157 55.3719 91.0919C55.3247 91.0419 55.2884 90.9825 55.2656 90.9175C55.2428 90.8526 55.2338 90.7836 55.2393 90.7149C55.3572 88.9197 55.4541 86.9911 55.3664 85.0532C55.2816 83.1833 55.1041 81.2805 54.8391 79.3973C54.6743 78.2269 54.446 77.0479 54.2251 75.9077C54.1481 75.5099 54.0684 75.0985 53.9921 74.6906L53.9461 74.4431C53.7169 73.1987 53.477 71.9344 53.2451 70.7122L53.2446 70.7099L53.1948 70.4471L52.8173 68.4533C52.3017 65.7326 51.6953 62.5737 51.023 59.5136L50.9847 59.3391C50.6034 57.6329 50.2006 56.2744 49.7172 55.0637C49.4435 54.3714 49.1224 53.6989 48.7562 53.051C48.3913 52.4065 47.9685 51.7966 47.4932 51.229C47.2529 50.9449 46.9974 50.6741 46.7277 50.4179C46.4686 50.1716 46.1882 49.9303 45.8941 49.7008C45.3156 49.2538 44.7041 48.8515 44.0648 48.4975C43.4907 48.1753 42.8453 47.8537 42.091 47.515C41.3992 47.2043 40.6862 46.91 40.0571 46.6503C40.035 46.6421 40.0166 46.6263 40.0052 46.6056C39.9938 46.585 39.99 46.561 39.9947 46.5379C39.9979 46.5177 40.0082 46.4994 40.0238 46.4863C40.0393 46.4732 40.0591 46.4662 40.0794 46.4666C40.0885 46.4667 40.0976 46.4678 40.1064 46.4699L40.3246 46.5221C41.8457 46.8872 43.4587 47.3046 44.9874 48.0365C45.727 48.3914 46.4205 48.8357 47.0524 49.3596C47.6832 49.8841 48.253 50.4783 48.7508 51.1309C49.645 52.2984 50.3631 53.6625 50.9461 55.3001C51.5003 56.857 51.8692 58.4885 52.157 59.8792C52.4966 61.5205 52.8272 63.1921 53.1469 64.8087C53.4976 66.582 53.8602 68.4157 54.236 70.2155L54.3694 70.8564C54.7685 72.7806 55.0625 74.2648 55.3226 75.6687C55.6475 77.4223 55.9096 79.0059 56.1241 80.5096L56.1574 80.7447C56.4309 82.7003 56.5849 84.3083 56.6421 85.805C56.6758 86.6879 56.6746 87.5434 56.6385 88.348C56.602 89.193 56.5208 90.0355 56.3954 90.872C56.3874 90.9353 56.3665 90.9964 56.3341 91.0514C56.3017 91.1065 56.2585 91.1543 56.207 91.192C56.1066 91.261 55.987 91.2966 55.8653 91.2936H55.8655ZM32.8024 88.4781C32.7256 88.4787 32.6505 88.4549 32.588 88.4101C32.5254 88.3653 32.4786 88.3018 32.4543 88.2287C32.3384 87.8258 32.283 87.4078 32.29 86.9885C32.288 86.5606 32.325 86.1298 32.3608 85.7133V85.7122C32.3713 85.5898 32.3813 85.4744 32.3903 85.3584L32.4457 84.6437C32.4949 84.0028 32.5509 83.2466 32.5942 82.4986C32.6516 81.5089 32.6996 80.5017 32.7429 79.5603C32.7568 79.2576 32.7723 78.9454 32.79 78.6058L32.8158 78.1288C32.8187 78.0764 32.8213 78.0225 32.8235 77.9704C32.8402 77.6131 32.8574 77.2435 33.0011 76.9228C33.0122 76.8996 33.0299 76.8802 33.052 76.867C33.0741 76.8538 33.0996 76.8475 33.1253 76.8489C33.1525 76.8481 33.1794 76.8545 33.2033 76.8675C33.2272 76.8805 33.2472 76.8996 33.2613 76.9228C33.4388 77.251 33.4748 77.6699 33.5063 78.0395V78.0413C33.5097 78.081 33.5133 78.1221 33.5169 78.1618L33.5208 78.2042C33.5778 78.8081 33.6132 79.2728 33.6356 79.7111C33.6842 80.6667 33.7074 81.63 33.7045 82.574C33.701 83.6716 33.6763 84.6316 33.629 85.509L33.6148 85.771C33.5959 86.21 33.5515 86.6474 33.482 87.0812C33.4165 87.5102 33.2818 87.9256 33.0832 88.3112C33.0564 88.3623 33.0159 88.405 32.9663 88.4344C32.9167 88.4639 32.8599 88.479 32.8023 88.478L32.8024 88.4781ZM-0.227862 81.6722C-0.231994 81.6722 -0.236099 81.6715 -0.240033 81.6703C-0.290244 81.6581 -0.337239 81.6352 -0.377809 81.6031C-0.418379 81.5711 -0.451569 81.5306 -0.475111 81.4845C-0.527776 81.3686 -0.50994 81.2073 -0.422064 81.005C-0.208419 80.5134 0.143547 80.0635 0.483954 79.6284L0.489848 79.6208C0.523223 79.5781 0.556394 79.5358 0.58936 79.4937C0.948585 79.0326 1.33925 78.597 1.75855 78.1901L1.88148 78.071C1.92902 78.0244 1.9774 77.9753 2.02869 77.9233C2.20139 77.7387 2.38878 77.5686 2.58901 77.4144C2.82225 77.2457 3.03682 77.164 3.2448 77.164C3.26133 77.164 3.27802 77.1646 3.29455 77.1656C3.34507 77.1667 3.39471 77.1791 3.43976 77.2021C3.48481 77.225 3.5241 77.2579 3.55471 77.2981C3.58531 77.3384 3.60643 77.3852 3.6165 77.4348C3.62657 77.4844 3.62531 77.5357 3.61284 77.5848C3.53576 77.9512 3.22918 78.1789 2.93264 78.399C2.84797 78.4619 2.76814 78.5212 2.69289 78.5838C2.31467 78.8989 1.96347 79.2308 1.60706 79.5715C1.30125 79.8636 1.0031 80.1668 0.695532 80.4988L0.585227 80.6185C0.566549 80.639 0.526821 80.6779 0.476605 80.7272L0.475917 80.7279C0.237318 80.9617 -0.258941 81.4483 -0.192115 81.594L-0.187675 81.6017C-0.183395 81.6081 -0.181005 81.6157 -0.180775 81.6234C-0.180545 81.6312 -0.182484 81.6388 -0.186374 81.6456C-0.190344 81.6533 -0.196313 81.6599 -0.203662 81.6645C-0.211011 81.6692 -0.219472 81.6718 -0.228168 81.6721L-0.227862 81.6722ZM28.8559 72.1839C28.6734 72.182 28.4991 72.1079 28.371 71.9777C28.2357 71.8406 28.1386 71.6704 28.0896 71.4839C28.0481 71.2948 28.0337 71.1008 28.0467 70.9077C28.051 70.681 28.0553 70.4467 27.972 70.2461C27.9251 70.1424 27.869 70.0433 27.8044 69.9497C27.7415 69.8582 27.6864 69.7615 27.6396 69.6608C27.5538 69.4566 27.5041 69.2389 27.4929 69.0176C27.4952 68.8317 27.529 68.6475 27.5928 68.4729C27.672 68.207 27.7536 67.932 27.6307 67.7057C27.6191 67.6819 27.6136 67.6555 27.6148 67.6289C27.616 67.6024 27.6238 67.5766 27.6375 67.5539C27.6472 67.5357 27.6617 67.5204 27.6793 67.5097C27.697 67.4991 27.7172 67.4934 27.7378 67.4932H27.7407L27.752 67.494C27.9035 67.5119 28.044 67.5825 28.1491 67.6934C28.2551 67.806 28.3299 67.9443 28.3661 68.0947C28.3996 68.2366 28.4246 68.3803 28.4411 68.5251C28.4786 68.8081 28.5139 69.075 28.6954 69.3432C28.9838 69.769 29.1476 70.0951 29.1876 70.5968C29.1928 70.6615 29.1953 70.7272 29.1984 70.7905V70.7914C29.2005 70.9359 29.2154 71.0798 29.2432 71.2216L29.277 71.3655C29.3199 71.5169 29.3359 71.6747 29.3244 71.8316C29.322 71.9026 29.2976 71.9711 29.2546 72.0276C29.2117 72.0841 29.1523 72.1259 29.0847 72.1472C29.0108 72.1712 28.9336 72.1836 28.8559 72.1839ZM14.3091 64.6357C14.0143 64.6382 13.7198 64.6177 13.4282 64.5743C13.4108 64.5722 13.3948 64.5638 13.3831 64.5507C13.3713 64.5376 13.3647 64.5207 13.3645 64.5031C13.3625 64.4815 13.3677 64.4598 13.3792 64.4413C13.3907 64.4229 13.4079 64.4087 13.4282 64.401C13.9947 64.229 14.6091 64.1588 15.2028 64.091C15.3386 64.0757 15.4789 64.0595 15.6162 64.0425C16.2515 63.9634 17.0866 63.8561 17.9158 63.7264C18.7432 63.5969 19.4909 63.4695 20.2017 63.3368C20.5429 63.2732 20.889 63.2058 21.2302 63.1364C21.3028 63.1215 21.3756 63.103 21.4535 63.0833C21.6262 63.0318 21.8044 63.0014 21.9844 62.993C22.0806 62.9915 22.1761 63.0083 22.266 63.0426C22.3096 63.059 22.3485 63.086 22.3794 63.121C22.4102 63.1561 22.432 63.1982 22.4428 63.2436C22.4507 63.2821 22.4487 63.3219 22.4368 63.3593C22.425 63.3968 22.4038 63.4305 22.3753 63.4574C22.1686 63.6652 21.8797 63.709 21.6005 63.7515C21.547 63.7597 21.4912 63.7681 21.4374 63.7776L21.4081 63.7829C21.0205 63.8547 20.6231 63.9245 20.2269 63.9904C19.4721 64.1157 18.7212 64.2248 17.9953 64.3148C17.1364 64.4214 16.3827 64.5009 15.6908 64.5582L15.3928 64.5827C15.0468 64.6101 14.6762 64.6357 14.3091 64.6357ZM32.8605 61.0816C32.8131 61.0818 32.7665 61.0695 32.7254 61.0458C32.6843 61.0221 32.6501 60.988 32.6265 60.9468C32.3256 60.4461 32.1725 59.8684 32.0244 59.3095C31.9499 59.0281 31.8728 58.7374 31.7779 58.4601C31.654 58.0984 31.5196 57.7336 31.3897 57.3809V57.3803C31.2298 56.9463 31.0647 56.4981 30.9175 56.0512C30.7399 55.5262 30.6061 54.9873 30.5173 54.4401C30.4279 53.8951 30.4115 53.3406 30.4686 52.7912L30.4651 52.7854C30.4623 52.7811 30.4598 52.7766 30.4575 52.772L30.37 52.5802C30.1349 52.0686 29.9047 51.6111 29.4672 51.194C29.357 51.0889 29.2427 50.9851 29.1323 50.8847C28.7903 50.5739 28.4367 50.2526 28.1673 49.857C28.0277 49.6538 27.9206 49.4301 27.8497 49.1938C27.7841 48.9711 27.7465 48.741 27.7377 48.5089C27.7163 48.0464 27.7876 47.5647 27.8565 47.0989C27.8993 46.8094 27.9436 46.5102 27.9656 46.2167L27.9763 46.0645C27.9956 45.7705 27.9939 45.4472 27.8345 45.2779C27.6999 45.1349 27.4372 45.068 27.2054 45.0089C27.1118 44.985 27.0236 44.9629 26.9514 44.9369C26.3007 44.7105 25.6674 44.4367 25.0565 44.1177C24.4752 43.8168 23.9194 43.4688 23.3946 43.0773L23.1299 42.8778C22.7107 42.5608 22.2781 42.2155 21.9993 41.7873C21.993 41.7767 21.9896 41.7646 21.9896 41.7522C21.9896 41.7398 21.993 41.7276 21.9993 41.717C22.0048 41.7057 22.0132 41.696 22.0236 41.6891C22.0341 41.6821 22.0462 41.678 22.0587 41.6774C22.0661 41.6772 22.0734 41.6784 22.0803 41.6811C22.4307 41.8363 22.7671 42.0215 23.0858 42.2346L23.0868 42.2353C23.193 42.3019 23.303 42.371 23.4116 42.4363C23.4187 42.4198 23.4266 42.4035 23.4353 42.3878C23.7019 41.9055 23.8953 41.3861 24.0093 40.8468C24.1217 40.307 24.1564 39.7539 24.1125 39.2043C24.1059 39.1491 24.1109 39.0932 24.1274 39.0401C24.1438 38.987 24.1712 38.938 24.2077 38.8962C24.2501 38.8534 24.3008 38.8197 24.3566 38.7972C24.4125 38.7748 24.4724 38.7641 24.5325 38.7658C24.6494 38.7649 24.7631 38.8036 24.8553 38.8757C24.9048 38.9155 24.9454 38.9654 24.9744 39.022C25.0034 39.0786 25.0202 39.1408 25.0237 39.2043C25.1188 40.4717 24.8401 41.7392 24.2224 42.8492C24.2194 42.8545 24.2162 42.8595 24.213 42.8645L24.2081 42.8722C24.6547 43.1052 25.0266 43.2846 25.3782 43.4367C25.9242 43.6728 26.4321 43.8658 26.9312 44.0266C27.0661 44.0701 27.2068 44.1054 27.3556 44.1427C27.7261 44.2356 28.1088 44.3316 28.3961 44.5609C28.5853 44.7135 28.7304 44.9139 28.8165 45.1415C28.9029 45.3741 28.9494 45.6196 28.9543 45.8677C28.9744 46.3793 28.873 46.9324 28.7915 47.3769C28.7815 47.4316 28.7711 47.4881 28.7613 47.5426L28.736 47.6858C28.6565 48.1442 28.5955 48.6294 28.7929 49.0798C28.9852 49.5188 29.3538 49.8501 29.7103 50.1706L29.7144 50.1742C29.745 50.2016 29.7752 50.2288 29.8051 50.256L29.8817 50.325C30.2399 50.6521 30.6046 51.011 30.8458 51.4179C31.0444 51.0062 31.3089 50.6584 31.589 50.2906L31.59 50.2893C31.6258 50.2422 31.6629 50.1935 31.6996 50.1449C31.8863 49.8979 31.8134 49.783 31.6924 49.5925C31.6641 49.548 31.632 49.4974 31.6006 49.4405C31.5216 49.3014 31.4635 49.1515 31.4282 48.9955C31.394 48.8392 31.3888 48.678 31.4129 48.5199C31.4358 48.3726 31.4817 48.2298 31.549 48.0968C31.616 47.9655 31.6984 47.8427 31.7946 47.7311C31.9922 47.5084 32.2184 47.3129 32.4674 47.1498C32.8005 46.9305 33.1444 46.7281 33.4978 46.5434C33.7481 46.4072 34.0068 46.2664 34.2534 46.1148C35.4695 45.3741 36.6185 44.5282 37.6874 43.5868C37.694 43.5809 37.7025 43.5776 37.7114 43.5777C37.7184 43.5777 37.7253 43.5795 37.7314 43.583C37.7375 43.5866 37.7426 43.5916 37.7461 43.5978C37.7488 43.6029 37.75 43.6086 37.7496 43.6144C37.7492 43.6202 37.7472 43.6257 37.7437 43.6304C36.9301 44.894 35.9103 46.0115 34.7269 46.9362C34.3107 47.2591 33.867 47.5412 33.4379 47.814C33.3569 47.8655 33.2839 47.9119 33.2109 47.9586L33.0626 48.054C32.8244 48.2086 32.5917 48.3815 32.5038 48.597C32.432 48.7724 32.5331 48.9173 32.6308 49.0573C32.6614 49.1012 32.6929 49.1463 32.7187 49.1918C32.7989 49.3302 32.8551 49.4811 32.885 49.6382C32.9106 49.7805 32.9108 49.9262 32.8855 50.0685C32.8224 50.3665 32.6862 50.6441 32.4893 50.8762L32.4704 50.8998C32.06 51.4066 31.757 51.8732 31.6124 52.5027C31.4695 53.1241 31.4699 53.8031 31.6135 54.5779C31.7426 55.2747 31.9696 55.9568 32.1953 56.5902L32.2134 56.6409C32.2737 56.8097 32.3359 56.9803 32.3963 57.1457L32.397 57.1477C32.5848 57.6631 32.7788 58.1958 32.9421 58.7289L33.0015 58.9239C33.1981 59.576 33.3564 60.2156 33.1379 60.8795C33.1189 60.9382 33.0818 60.9894 33.0319 61.0257C32.9821 61.062 32.9221 61.0815 32.8605 61.0816ZM35.3084 51.7865C35.2484 51.7865 35.1871 51.7842 35.1263 51.7797C34.7659 51.7583 34.4146 51.6573 34.0975 51.484C33.967 51.4 33.8455 51.3028 33.7347 51.194C33.5031 50.9835 33.2636 50.7658 32.9987 50.7658C32.9483 50.7659 32.8982 50.774 32.8503 50.7897C32.846 50.7911 32.8415 50.7918 32.837 50.7918C32.8261 50.7911 32.8157 50.7872 32.8071 50.7805C32.7985 50.7738 32.792 50.7646 32.7886 50.7543C32.7852 50.7459 32.7846 50.7366 32.7869 50.7278C32.7891 50.719 32.7942 50.7112 32.8013 50.7055C32.9128 50.6111 33.0542 50.5595 33.2002 50.5598C33.4651 50.5598 33.7368 50.7173 33.9995 50.8696C34.1544 50.9679 34.3193 51.0496 34.4912 51.1133C34.8677 51.2336 35.2721 51.2342 35.6489 51.1152C36.0258 50.9961 36.3567 50.7632 36.5963 50.4483C37.1265 49.7653 37.615 49.0508 38.059 48.3086C38.2862 47.9398 38.4902 47.5571 38.6697 47.1627C38.7632 46.9376 38.8356 46.7043 38.8858 46.4657C38.9265 46.2831 38.9773 46.103 39.038 45.9261C39.0779 45.8159 39.1538 45.7223 39.2533 45.6605C39.3474 45.6025 39.4557 45.5717 39.5662 45.5717C39.6325 45.57 39.6984 45.5818 39.7601 45.6063C39.8217 45.6308 39.8777 45.6676 39.9248 45.7144C39.9667 45.7612 39.9984 45.8163 40.018 45.8761C40.0375 45.9358 40.0445 45.999 40.0384 46.0616C40.0147 46.4885 39.8448 46.8833 39.6806 47.265C39.665 47.3014 39.6493 47.3378 39.6338 47.3742L39.6145 47.4197C39.4303 47.8581 39.2093 48.2802 38.9539 48.6812C38.4544 49.4519 37.8896 50.178 37.2659 50.8517C37.016 51.1321 36.7159 51.3632 36.381 51.5329C36.0479 51.6995 35.6806 51.7863 35.3083 51.7865H35.3084ZM39.7597 45.2638C39.6383 45.2602 39.5231 45.2093 39.4387 45.1217C39.0854 44.7892 38.7593 44.4288 38.4634 44.0439C38.1635 43.6629 37.9282 43.235 37.7669 42.7774C37.763 42.7655 37.7622 42.7529 37.7643 42.7405C37.7664 42.7282 37.7715 42.7166 37.7791 42.7067C37.7875 42.6949 37.7985 42.6853 37.8112 42.6785C37.824 42.6718 37.8381 42.6681 37.8525 42.6677C37.867 42.6677 37.8813 42.6719 37.8934 42.6799C38.1341 42.8454 38.363 43.0274 38.5786 43.2246C38.6815 43.3145 38.7879 43.4074 38.8946 43.4948C39.2644 43.7978 39.639 44.096 40.0082 44.3811C40.0996 44.4475 40.1674 44.5417 40.2014 44.6496C40.2279 44.7414 40.2252 44.8392 40.1937 44.9294C40.1643 45.023 40.1069 45.1053 40.0293 45.1651C39.9516 45.2249 39.8575 45.2594 39.7597 45.2638ZM37.179 43.7732C37.0705 43.7725 36.9655 43.7343 36.8817 43.6652C36.3947 43.2714 36.0353 42.7417 35.8488 42.1431C35.7549 41.8475 35.7024 41.5403 35.6927 41.2302C35.6827 40.9172 35.7173 40.6043 35.7955 40.3011C35.8155 40.2071 35.8677 40.1232 35.9431 40.0639C36.0185 40.0046 36.1122 39.9737 36.208 39.9765C36.2829 39.9764 36.3569 39.9928 36.4248 40.0244C36.4927 40.0561 36.5528 40.1024 36.6009 40.1599C36.6414 40.2108 36.6696 40.2705 36.683 40.3342C36.6965 40.398 36.695 40.464 36.6785 40.527L36.6744 40.5439C36.5587 40.9887 36.5767 41.4578 36.7261 41.8923C36.8769 42.3254 37.1445 42.7081 37.4992 42.9979L37.5259 43.0196C37.594 43.0708 37.6443 43.1421 37.6696 43.2236C37.689 43.2941 37.6859 43.3689 37.6609 43.4376C37.6226 43.5349 37.5564 43.6188 37.4707 43.6785C37.3849 43.7382 37.2835 43.7712 37.179 43.7732Z" fill="#222222"/>
<path d="M42.8299 20.212C42.1227 17.1816 40.5061 14.4412 38.1975 12.3596C30.9004 5.12934 17.4997 9.05381 17.5604 19.9496C17.2929 21.224 17.1983 22.5287 17.2791 23.8285C17.315 24.3822 17.5541 25.155 17.2332 25.6534C16.5078 26.5856 16.0868 27.2727 16.3336 28.5129C16.5397 29.5958 17.2752 30.363 18.2674 30.7708C18.8625 30.9419 19.4272 31.3148 19.6477 31.8832C20.9724 34.3139 21.9538 36.3357 24.0423 37.9923C24.5812 38.4187 30.1084 40.9766 31.9295 40.9766C37.2611 40.9766 43.9809 39.041 44.0925 33.0724C44.1118 31.7614 43.8822 30.4352 43.7382 29.1346C43.3877 26.1666 43.5114 23.0911 42.8299 20.212Z" fill="white"/>
<path d="M33.8024 41.6156C33.1778 41.623 32.5556 41.5361 31.9568 41.3579C31.6615 41.2665 31.3762 41.1453 31.1054 40.9961C30.8273 40.8421 30.5677 40.6567 30.3315 40.4437C30.2203 40.3466 30.1454 40.2145 30.1192 40.0691C30.0969 39.9322 30.1123 39.7919 30.1637 39.6631C30.223 39.5097 30.3214 39.3746 30.4491 39.2713C30.5703 39.1691 30.7227 39.1115 30.8809 39.1082C31.0177 39.1095 31.1502 39.1561 31.2577 39.2407C31.4562 39.39 31.6683 39.5202 31.8911 39.6298C32.1056 39.7347 32.3288 39.8205 32.5583 39.8862C33.0153 40.0136 33.488 40.0756 33.9624 40.0704C34.442 40.0665 34.9203 40.021 35.392 39.9343C35.8049 39.8623 36.2516 39.7613 36.7979 39.6166L36.8536 39.6017C37.671 39.3906 38.4687 39.1092 39.2379 38.7606C39.6216 38.5844 39.994 38.3846 40.3531 38.1622C40.7114 37.94 41.0522 37.6908 41.3727 37.4166C42.0576 36.8299 42.604 36.0981 42.9726 35.2741C43.3363 34.4471 43.5392 33.558 43.5706 32.6547C43.6148 31.6394 43.5261 30.6423 43.4145 29.5375L43.4029 29.4225C43.3576 28.9755 43.3111 28.5222 43.2656 28.0837C43.1907 27.3586 43.1133 26.6089 43.041 25.8704C42.9132 24.5676 42.8375 23.5648 42.7954 22.6189L42.7724 22.0716C42.7664 21.9313 42.76 21.7862 42.7543 21.6582C42.7119 20.7014 42.6681 19.712 42.7095 18.7506C42.7099 18.742 42.7136 18.7339 42.7199 18.7279C42.7262 18.722 42.7345 18.7188 42.7431 18.7189C42.75 18.7188 42.7567 18.721 42.7621 18.7252C42.7675 18.7294 42.7714 18.7353 42.773 18.742C42.9063 19.2157 43.0026 19.704 43.0953 20.1766C43.1407 20.4072 43.1877 20.6457 43.2385 20.8804C43.4177 21.7077 43.5433 22.3479 43.646 22.9563C43.8385 24.0979 44.0232 25.3522 44.2272 26.9037L44.2703 27.2336C44.3201 27.6171 44.3764 28.0115 44.431 28.3925C44.7097 30.3428 44.9975 32.3593 44.6344 34.3078C44.4494 35.2779 44.0577 36.1965 43.4862 37.0011C42.9131 37.8039 42.2126 38.5072 41.4125 39.083C40.6427 39.6399 39.8103 40.1043 38.9324 40.4668C38.0553 40.831 37.1476 41.1164 36.2201 41.3195C35.8054 41.4116 35.4045 41.4832 35.0284 41.5319C34.6219 41.5859 34.2124 41.6139 33.8024 41.6156ZM23.9058 38.0655C23.8536 38.0654 23.8018 38.0547 23.7537 38.0341C23.5172 37.926 23.3046 37.7716 23.1284 37.5799C22.9437 37.3829 22.7705 37.1754 22.6097 36.9585L22.6085 36.957C22.5439 36.8732 22.4829 36.7941 22.4212 36.7173L22.3966 36.6866C22.0043 36.2004 21.6479 35.6861 21.3303 35.1479L21.2248 34.9706C20.6588 34.0168 20.0749 32.9945 19.6998 31.9051C19.676 31.9299 19.6501 31.9525 19.6222 31.9726C19.4395 32.0976 19.2219 32.1615 19.0008 32.1552C18.7845 32.1504 18.5702 32.1132 18.3649 32.0449C18.1661 31.9807 17.9718 31.9036 17.7831 31.8138C17.2757 31.5778 16.8249 31.235 16.4614 30.8088C16.2682 30.5823 16.0995 30.336 15.9579 30.0739C15.819 29.8166 15.7093 29.5445 15.631 29.2627C15.553 28.9814 15.5088 28.6919 15.4993 28.4001C15.49 28.1018 15.5176 27.8034 15.5815 27.5119C15.6996 26.9928 15.923 26.5035 16.2378 26.0746C16.5493 25.6395 16.9507 25.2768 17.4148 25.0113C16.9804 24.5102 16.81 23.8273 16.7013 23.2254C16.5603 22.4033 16.5141 21.5677 16.5635 20.7351C16.606 19.9072 16.7284 19.0854 16.9288 18.2811C17.1289 17.4772 17.3957 16.6914 17.7263 15.932C18.3129 14.5797 19.1226 13.3362 20.1216 12.2536C20.6191 11.7145 21.1614 11.2185 21.7425 10.7712C22.3262 10.3221 22.9479 9.92484 23.6004 9.58383C26.2595 8.20066 29.2899 7.70514 32.2498 8.16954C32.9561 8.28133 33.6512 8.45539 34.327 8.68969C35 8.92341 35.6523 9.2134 36.2769 9.55659C36.9019 9.90026 37.4981 10.2941 38.0597 10.7342C38.6227 11.1756 39.1497 11.6612 39.6358 12.1865C40.117 12.7038 40.5584 13.257 40.9561 13.8413C41.3544 14.4252 41.6934 15.0476 41.968 15.6992C42.1026 16.0218 42.2204 16.3512 42.321 16.686C42.4215 17.021 42.5003 17.3621 42.5569 17.7073C42.6218 18.0652 42.6634 18.427 42.6815 18.7904C42.682 18.9529 42.6692 19.1152 42.6433 19.2756C42.6165 19.4408 42.6037 19.6079 42.605 19.7752C42.6053 19.7809 42.6044 19.7866 42.6025 19.7919C42.6005 19.7973 42.5974 19.8021 42.5935 19.8063C42.5887 19.8109 42.5831 19.8146 42.5769 19.8171C42.5707 19.8196 42.5641 19.8209 42.5574 19.8208C42.5474 19.8213 42.5375 19.8182 42.5294 19.8121C42.5213 19.8061 42.5157 19.7974 42.5134 19.7875C42.453 19.5737 42.3664 19.3682 42.2555 19.1757C42.1825 19.0427 42.1172 18.9056 42.0598 18.7651C41.951 18.485 41.826 18.2102 41.7173 17.9749L41.614 17.7515C41.324 17.1233 40.9743 16.5116 40.6362 15.9199L40.601 15.8585C39.8852 14.6052 38.9724 13.4757 37.8978 12.5137C36.9541 11.6705 35.8837 10.9818 34.7259 10.473C34.1483 10.2195 33.5512 10.0136 32.9403 9.8574C32.3285 9.70116 31.7045 9.59775 31.0751 9.54831C30.7544 9.52345 30.4285 9.51079 30.1063 9.51079C28.9581 9.51065 27.8153 9.66778 26.7096 9.97785C25.6024 10.2872 24.5441 10.7511 23.5658 11.3559C21.3302 12.7583 19.6364 14.8803 18.762 17.3741C18.3225 18.6232 18.0717 19.9311 18.0177 21.2544C17.9945 21.9271 18.0096 22.6006 18.0627 23.2716L18.0857 23.5909C18.1241 23.9696 18.1204 24.3513 18.0747 24.7291C18.3612 24.6372 18.66 24.5893 18.9608 24.5869C19.0826 24.5868 19.2042 24.5956 19.3248 24.6132C19.9618 24.7069 20.3352 24.9723 20.6145 25.5294C20.6173 25.5344 20.6186 25.5401 20.6185 25.5458C20.6183 25.5515 20.6167 25.5571 20.6138 25.562C20.6109 25.5667 20.6068 25.5706 20.602 25.5733C20.5972 25.5759 20.5918 25.5774 20.5863 25.5774C20.5808 25.5773 20.5753 25.576 20.5704 25.5735C20.4008 25.4982 20.2162 25.4627 20.0309 25.4698C19.3442 25.4853 18.677 25.7016 18.1113 26.092C17.7907 26.3109 17.5128 26.5869 17.2914 26.9062C17.0682 27.2249 16.9194 27.5899 16.8561 27.9741C16.8272 28.1588 16.823 28.3466 16.8436 28.5325C16.8642 28.7169 16.9066 28.8983 16.9699 29.0727C17.0985 29.4236 17.2987 29.7437 17.5578 30.0126C17.6907 30.1519 17.8359 30.2787 17.9917 30.3916C18.1475 30.5049 18.3155 30.6001 18.4926 30.6755C18.6463 30.7363 18.8042 30.7859 18.9651 30.824C19.2342 30.8942 19.4881 30.9604 19.7277 31.1481C19.7801 31.1881 19.8218 31.2404 19.8493 31.3004C19.8767 31.3604 19.889 31.4262 19.885 31.4921C19.8767 31.6232 19.8284 31.7486 19.7466 31.8513C20.1514 32.2963 20.5395 32.77 20.9149 33.2283L20.9153 33.2288C21.2837 33.6786 21.6647 34.1436 22.0617 34.5817C22.3985 34.9535 22.7889 35.3872 23.1584 35.8257L23.2913 35.985C23.3903 36.1047 23.5037 36.2244 23.6238 36.351C23.9356 36.6801 24.258 37.0202 24.3753 37.4106C24.3948 37.4874 24.3962 37.5676 24.3795 37.6451C24.3628 37.7225 24.3285 37.795 24.2792 37.8569C24.2372 37.9182 24.1817 37.9689 24.1169 38.005C24.0521 38.0412 23.9799 38.0619 23.9058 38.0655ZM20.5127 29.7401C20.4171 29.7412 20.3234 29.7133 20.244 29.6601C20.1523 29.5941 20.0835 29.5011 20.0472 29.3941L20.039 29.3711C19.9543 29.1377 19.8254 28.9229 19.6595 28.7384C19.6108 28.8174 19.5419 28.8819 19.46 28.9253C19.4309 28.9393 19.399 28.9465 19.3667 28.9463C19.3267 28.9492 19.287 28.9377 19.2548 28.9137C19.2226 28.8898 19.2 28.8551 19.1911 28.8159C19.1648 28.6699 19.1941 28.5193 19.2733 28.3939L19.2842 28.378C19.0923 28.2234 18.8838 28.0908 18.6625 27.9826C18.4591 27.8816 18.2429 27.8087 18.0199 27.766C18.0108 27.7639 18.0027 27.7586 17.9971 27.7511C17.9915 27.7435 17.9887 27.7342 17.9893 27.7249C17.9886 27.7153 17.9913 27.7059 17.9969 27.6982C18.0025 27.6905 18.0107 27.685 18.0199 27.6827C18.2554 27.6349 18.4947 27.6092 18.7349 27.606C19.0434 27.6028 19.349 27.6651 19.6318 27.7887C19.9107 27.9126 20.168 28.0806 20.3938 28.2862C20.618 28.4923 20.8225 28.7189 21.0047 28.9632C21.0569 29.0242 21.09 29.0992 21.0999 29.179C21.1099 29.2587 21.0962 29.3396 21.0606 29.4116C21.0065 29.5101 20.9272 29.5924 20.831 29.6501C20.7347 29.7078 20.6249 29.7388 20.5127 29.7401Z" fill="#222222"/>
<path fill-rule="evenodd" clip-rule="evenodd" d="M39.0457 21.3097L38.9357 21.2872C38.8063 21.2612 38.6762 21.2722 38.562 21.3188C38.4499 21.3645 38.3523 21.4441 38.284 21.5589C38.1933 21.7118 38.1812 21.8401 38.2233 22.0096C38.2558 22.1405 38.327 22.239 38.4203 22.3102C38.5185 22.3852 38.643 22.4289 38.7724 22.4441C39.369 22.5143 39.9566 22.6459 40.5278 22.8326C40.7954 22.9201 41.048 23.0387 41.2983 23.1617L41.5141 23.2682C41.7131 23.3658 41.9187 23.4598 42.1785 23.528C42.199 23.5334 42.2191 23.5385 42.2391 23.5432C42.3112 23.5206 42.3234 23.4931 42.3387 23.4732L42.3449 23.4654C42.3634 23.4421 42.3863 23.4064 42.3646 23.2397C41.7978 22.0614 40.2426 21.5605 39.0457 21.3097ZM31.6173 21.644L31.761 21.6188C32.2056 21.5417 32.7584 21.4677 33.0729 21.8259C33.2397 22.0158 33.2971 22.3689 33.0729 22.5507C32.7792 22.7889 32.4625 22.781 32.1248 22.7726C32.009 22.7698 31.8906 22.7668 31.7699 22.7737C31.3804 22.7961 31.0061 22.8607 30.6309 22.9682C29.8079 23.204 29.1372 23.6344 28.4343 24.1069C28.3421 24.1689 28.2479 24.0507 28.2919 23.9642C28.6977 23.1677 29.4841 22.5134 30.2718 22.1145C30.6922 21.9016 31.1522 21.725 31.6173 21.644ZM30.5744 25.1205C30.6382 24.326 31.8456 24.1456 31.9657 24.9318C32.0733 25.6361 31.9466 26.283 31.6301 26.9171C31.3277 27.5228 30.5675 27.2402 30.51 26.6886C30.4533 26.1438 30.4935 25.8188 30.5345 25.4877C30.5492 25.3695 30.5639 25.2506 30.5744 25.1205ZM40.4675 24.4822C40.1763 24.397 39.9333 24.5478 39.765 24.7688C39.7455 24.7942 39.7297 24.8195 39.7154 24.8445C39.1899 25.3284 39.3879 26.3096 39.8013 26.8009C40.0549 27.1021 40.616 27.0154 40.7896 26.6732C41.1091 26.0431 41.3773 24.7487 40.4675 24.4822ZM38.1361 30.4058C38.758 29.5328 37.8772 28.7117 37.2991 28.3596C37.1477 28.2506 37.2679 27.8898 37.5916 27.9455C40.5308 28.4517 39.0078 33.5258 35.2552 30.7414C34.8084 30.3801 35.3494 29.5845 35.831 29.8939C35.8554 29.9126 35.881 29.9324 35.9077 29.9532C36.4487 30.3723 37.4386 31.1394 38.1361 30.4058ZM35.4446 35.7673C34.93 35.557 34.4709 35.2061 34.1352 34.7577C34.0185 34.6019 33.9883 34.4373 34.0127 34.2868C34.0403 34.1175 34.1402 33.9642 34.2764 33.8612C34.4131 33.758 34.5841 33.7072 34.7494 33.7331C34.893 33.7556 35.036 33.8344 35.1491 33.9979L35.1728 34.0306C35.3723 34.3012 35.6324 34.5231 35.9287 34.6663C36.2142 34.8042 36.5337 34.8686 36.8642 34.8312C37.4937 34.7599 37.9276 34.4186 38.3888 33.9553C38.446 33.8968 38.5032 33.8364 38.5607 33.7751C38.5969 33.7196 38.6473 33.6838 38.7033 33.6651C38.7653 33.6443 38.8356 33.6455 38.8999 33.668C38.962 33.6897 39.0175 33.7309 39.0546 33.7856C39.09 33.8376 39.11 33.9019 39.1035 33.9758C39.0613 34.456 38.8108 34.8845 38.455 35.221C38.0599 35.5948 37.5361 35.8533 37.0429 35.944C36.4995 36.0439 35.9459 35.9723 35.4446 35.7673Z" fill="#222222"/>
<path fill-rule="evenodd" clip-rule="evenodd" d="M42.0127 34.0915C42.2067 34.425 42.3704 34.7789 42.5003 35.1444C42.5614 35.3161 43.0196 37.1741 42.7298 38.2387C42.4508 39.2636 41.9462 40.2355 41.3079 41.0887C40.7215 41.8721 39.9823 42.5233 39.0665 42.8835C37.8716 43.3536 36.4466 43.2214 35.1998 43.1C33.6426 42.948 32.1121 42.6008 30.6314 42.0986C29.8906 41.8482 29.1637 41.5595 28.4473 41.2469C27.7433 40.9405 26.9949 40.6386 26.3351 40.2416C25.7679 39.8999 25.284 39.3622 24.8207 38.8962C24.0907 38.1619 23.3767 37.3962 22.746 36.573C22.1574 35.805 21.717 35.0937 21.568 34.1222C21.3374 32.6159 21.5518 31.0333 21.7565 29.5223C21.773 29.4001 21.7895 29.2783 21.8057 29.1572C21.8118 29.1065 21.8913 29.0796 21.9081 29.1318C21.9066 29.1034 21.9051 29.0751 21.9036 29.0466C21.8982 28.9252 22.0748 28.9092 22.1077 29.0189C22.5098 30.3522 23.1664 31.5656 24.1106 32.5909C25.4106 34.002 27.072 34.9814 28.6853 35.9994C28.7394 35.9482 28.8052 35.9119 28.8748 35.8981C29.1081 34.8465 29.8793 33.8689 30.6421 33.2037C32.8751 31.2577 36.4528 30.4213 39.2178 31.6078C40.3867 32.1101 41.3713 32.9887 42.0127 34.0915ZM34.0095 33.3327C32.4522 33.7237 31.0996 34.7932 30.4798 36.2483C30.433 36.5658 30.4368 36.8872 30.5039 37.2058C31.8257 38.1367 33.449 38.626 35.0735 38.4363C35.5795 37.807 36.1398 36.7339 36.9907 36.6101C37.6207 36.5185 38.0665 36.9344 38.5144 37.3523C38.7445 37.567 38.9752 37.7821 39.2316 37.9292C39.2737 37.9534 39.3196 37.9769 39.3672 37.9997C39.852 37.9594 40.3384 37.8459 40.746 37.5684C41.1637 37.2843 41.3218 36.8996 41.3962 36.4476C41.3749 36.3614 41.352 36.2756 41.3277 36.1904C41.1565 35.5914 40.9127 35.007 40.5541 34.4963C40.2529 34.0654 39.8523 33.6983 39.3608 33.5041C38.7852 33.2767 38.13 33.2283 37.5192 33.1692C36.3534 33.0555 35.1532 33.0463 34.0095 33.3327Z" fill="#222222"/>
</g>
<rect x="0.75" y="0.75" width="58.5" height="58.5" rx="29.25" stroke="#222222" stroke-width="1.5"/>
</g>
<defs>
<filter id="filter0_d_8601_2729" x="0" y="0" width="61" height="61" filterUnits="userSpaceOnUse" color-interpolation-filters="sRGB">
<feFlood flood-opacity="0" result="BackgroundImageFix"/>
<feColorMatrix in="SourceAlpha" type="matrix" values="0 0 0 0 0 0 0 0 0 0 0 0 0 0 0 0 0 0 127 0" result="hardAlpha"/>
<feOffset dx="1" dy="1"/>
<feComposite in2="hardAlpha" operator="out"/>
<feColorMatrix type="matrix" values="0 0 0 0 0.2 0 0 0 0 0.2 0 0 0 0 0.2 0 0 0 1 0"/>
<feBlend mode="normal" in2="BackgroundImageFix" result="effect1_dropShadow_8601_2729"/>
<feBlend mode="normal" in="SourceGraphic" in2="effect1_dropShadow_8601_2729" result="shape"/>
</filter>
<clipPath id="clip0_8601_2729">
<rect width="60" height="60" rx="30" fill="white"/>
</clipPath>
</defs>
</svg>
