<svg width="288" height="233" viewBox="0 0 288 233" fill="none" xmlns="http://www.w3.org/2000/svg">
<path d="M183.308 82.1508C193.548 67.8526 206.715 63.4531 219.333 63.4531C232.5 63.4531 251.883 80.1344 251.883 96.0824C251.883 108.841 242.983 113.741 238.534 114.597L239.997 118.813C255.541 121.196 268.89 154.925 270.17 159.141C271.45 163.357 274.925 167.024 276.57 169.04C278.216 171.056 278.948 174.723 276.388 178.206C274.339 180.992 273.34 179.733 273.096 178.755C271.926 172.01 268.463 169.59 266.878 169.223L262.124 173.806L261.209 173.256L265.415 163.174L260.295 151.076C255.028 139.637 247.129 134.455 243.837 133.294L245.483 151.625C246.763 173.989 226.647 197.086 211.286 197.086C195.925 197.086 182.759 167.757 182.759 151.625C182.759 138.72 187.757 126.329 190.256 121.746C187.879 122.296 177.09 134.028 170.324 134.028C163.557 134.028 159.351 130.911 156.974 128.712C155.072 126.952 153.865 126.268 153.5 126.145L150.025 125.412L146.368 123.212L141.247 125.412L135.03 120.096L135.578 115.33C149.842 115.33 159.169 128.345 167.58 128.345C174.31 128.345 183.551 120.646 187.33 116.796L192.999 113.68L193.365 111.664C187.696 108.731 173.067 96.449 183.308 82.1508Z" fill="#B1E0DF"/>
<path d="M188.464 91.2057C188.464 78.125 204.606 72.811 212.677 71.7891C221.597 71.7891 238.418 80.7309 238.418 95.2934C238.418 109.856 216.245 109.6 213.951 109.6C211.657 109.6 188.464 107.557 188.464 91.2057Z" fill="white"/>
<ellipse cx="223.356" cy="51.3546" rx="3.10877" ry="3.11628" fill="white"/>
<path d="M117.109 184.255C115.06 181.176 115.28 176.495 115.646 174.54L119.023 167.597C114.69 165.809 108.573 153.035 107.299 150.991C106.279 149.356 99.9159 146.903 96.8616 145.881L74.9307 108.581C96.738 100.889 117.263 105.104 135.213 119.913C154.231 135.605 164.837 152.97 167.763 159.692C168.861 161.525 186.05 200.937 160.814 203.503C134.298 203.503 119.669 188.105 117.109 184.255Z" fill="#B1E0DF"/>
<path d="M65.357 223.483L67.7343 222.75L71.026 225.866L70.6602 227.883L69.563 229.166L68.1 230.266L64.6255 229.532L63.5283 225.5L65.357 223.483Z" fill="white"/>
<path d="M249.872 200.568L253.895 198.918L257.552 201.668L257.004 206.25L252.798 208.267L248.958 205.517L249.872 200.568Z" fill="white"/>
<path d="M234.49 217.354L237.191 215.174L240.618 216.376L241.246 219.939L238.49 222.438L234.923 221.278L234.49 217.354Z" fill="white"/>
<path d="M267.61 53.1851L271.999 54.6513L276.205 54.2847L279.496 55.9345L280.777 60.3339L280.411 61.8004L278.582 63.4502L279.679 68.5829L276.205 72.9824L270.536 71.3326L268.797 65.5044L263.019 63.2027L262.124 56.3011L267.61 53.1851Z" fill="white"/>
<path d="M35.9148 26.9727L41.2994 30.0889V36.3215L35.9148 39.4378L30.5303 36.3215V30.0889L35.9148 26.9727Z" fill="white"/>
<path d="M177.105 4.10374L181.629 4.34329L183.685 8.39097L181.216 12.1991L176.691 11.9595L174.636 7.91187L177.105 4.10374Z" fill="white"/>
<path d="M30.6113 33.5703L35.5208 36.5949V42.6442L30.6113 45.6688L25.7019 42.6442V36.5949L30.6113 33.5703Z" fill="white"/>
<path d="M51.276 212.3C36.6464 212.3 21.5293 193.725 15.7994 184.437C14.7753 182.531 15.8603 182.176 16.5308 182.237L20.0054 182.787L15.7994 156.391L67.3685 183.704C68.0999 193.236 65.9055 212.3 51.276 212.3Z" fill="#B1E0DF"/>
<path d="M9.58154 152.358C9.58154 148.399 13.3608 141.665 15.2505 138.793L25.4912 131.461L35.0003 149.609L25.4912 158.041C25.9178 159.141 26.7347 161.927 26.5884 164.274C26.4421 166.62 24.6987 170.017 23.8453 171.423L30.9772 182.788C28.0513 184.401 23.1748 183.949 21.1023 183.521C19.3346 180.283 15.5065 173.256 14.3361 171.056C12.8732 168.306 9.58154 157.308 9.58154 152.358Z" fill="white"/>
<path d="M15.6166 126.145C27.0277 129.518 35.2446 138.182 37.9267 142.093C36.8296 128.527 41.401 119.912 47.8014 113.497C52.9217 108.364 68.5875 107.814 75.7804 108.181L106.685 161.707C96.6274 169.406 75.6706 185.428 72.3058 187.921C68.9411 190.414 67.0026 190.548 66.454 190.304C57.3837 190.157 37.0731 177.166 28.0515 170.69L13.2391 142.643C12.2639 140.993 9.43565 136.117 5.92456 129.811C2.41347 123.505 10.923 124.739 15.6166 126.145Z" fill="#FABD05"/>
<path d="M136.492 75.3651C131.226 71.1123 131.25 59.2949 131.921 53.9178L120.4 46.2188L89.8611 53.9178L66.6367 74.6319L89.1296 104.328L114.366 108.361L142.893 102.495C145.88 101.09 151.854 96.9591 151.854 91.6798C151.854 85.0806 143.076 80.6811 136.492 75.3651Z" fill="white"/>
<path d="M119.669 36.3226C121.741 34.184 126.837 29.9068 130.641 29.9068L136.858 32.6564L135.944 43.655L111.805 45.6715L86.2036 52.6373L67.0023 63.6359C66.0271 63.1471 63.9303 60.8129 63.3451 55.3869C62.6136 48.6044 70.2941 39.4389 74.8658 39.0723C81.7417 39.0723 87.6057 41.272 89.6782 42.3719C90.9583 35.2228 94.4328 27.707 104.856 27.707C113.195 27.707 118.206 33.4508 119.669 36.3226Z" fill="white"/>
<path d="M176.432 3.77692C175.749 4.21687 174.286 7.58978 174.286 8.76297C174.286 9.20292 175.018 10.3761 175.895 11.4026C177.358 13.1135 177.553 13.2113 179.553 12.8691C180.674 12.7225 181.601 12.3803 181.601 12.1359C181.601 11.8915 181.893 11.6959 182.284 11.6959C183.308 11.6959 184.527 7.68755 183.893 6.51436C182.674 4.16799 181.455 3.38586 179.211 3.38586C177.992 3.38586 176.724 3.58139 176.432 3.77692ZM178.382 6.66101C179.114 9.78951 179.114 9.88728 178.236 8.02973C177.163 5.78112 177.066 5.34117 177.651 5.34117C177.895 5.34117 178.236 5.92777 178.382 6.66101ZM180.772 6.75878C180.918 7.5409 181.211 8.81185 181.406 9.5451C181.893 11.5982 181.357 10.8649 180.187 7.88308C179.406 5.92777 179.309 5.34117 179.845 5.34117C180.187 5.34117 180.626 5.97665 180.772 6.75878ZM177.407 9.10515C178.334 11.8915 178.139 12.2337 176.724 10.2783C176.09 9.30068 175.798 8.42079 175.993 7.78532C176.139 7.2476 176.383 6.80766 176.481 6.80766C176.578 6.80766 176.968 7.8342 177.407 9.10515Z" fill="#222222"/>
<path d="M217.199 25.5817C217.199 28.5636 220.125 33.6474 221.539 33.1586C221.832 33.0119 221.783 32.4253 221.344 31.4966C221.003 30.6655 220.174 28.7102 219.54 27.146C218.223 23.6753 217.199 23.0398 217.199 25.5817Z" fill="#222222"/>
<path d="M234.657 25.4329C233.486 26.0684 231.341 29.8324 231.341 31.1522C231.341 33.0586 232.609 32.2765 234.462 29.3435C236.754 25.5796 236.803 24.162 234.657 25.4329Z" fill="#222222"/>
<path d="M32.7204 27.6335C30.3796 28.8556 29.4531 30.2243 29.4531 32.4729C29.4531 33.304 28.9167 33.9394 27.405 34.7704C25.1618 35.9925 24.6741 36.9702 24.6254 40.5386C24.5766 42.6895 24.6254 42.7383 27.3562 44.3515C30.4772 46.1601 31.0623 46.1601 34.3784 44.0093C36.2802 42.8361 36.6216 42.3962 36.4265 41.3696C36.2314 40.2942 36.524 39.9031 38.8648 38.5833L41.5468 37.0679L41.7907 34.2816C41.9857 31.5931 41.5956 30.1266 40.9617 31.202C40.7666 31.4464 40.5715 32.7662 40.474 34.0372C40.3277 35.9925 40.0351 36.5302 38.9135 37.2146C37.0117 38.3878 36.3777 38.3389 36.1827 36.9702C36.0852 36.2369 35.2074 35.4548 33.5006 34.526C31.6963 33.5484 30.9161 32.864 30.9161 32.1796C30.9161 30.5176 31.7938 29.4422 33.842 28.6112C35.7926 27.8291 35.8901 27.8291 37.6456 29.0511C39.4012 30.2243 41.1567 30.6643 41.1567 29.8822C41.1567 29.4422 36.1827 26.3626 35.5487 26.3626C35.2561 26.4115 33.9883 26.9492 32.7204 27.6335ZM33.2568 36.0414C34.671 36.6769 35.1098 37.1168 34.8173 37.5568C34.5247 38.0945 34.037 37.9967 32.4278 37.0679C30.5747 36.0414 29.8432 35.1615 30.8673 35.1615C31.1111 35.1615 32.1839 35.5526 33.2568 36.0414ZM27.7463 39.1699C26.6735 42.7383 26.7223 42.6895 26.1371 42.2984C25.4056 41.8584 26.3809 36.9702 27.3562 36.2858C28.6241 35.3081 28.7216 35.8947 27.7463 39.1699ZM30.4284 37.6056C31.0136 37.9967 31.0136 38.4366 30.1846 41.0274C29.258 43.7649 29.1605 43.9604 28.2827 43.3249C27.405 42.6895 27.405 42.5917 28.2827 39.9031C29.2093 36.9702 29.258 36.8724 30.4284 37.6056ZM32.8667 39.1699C32.8667 40.3431 31.5988 43.9604 31.0136 44.547C30.1846 45.378 30.2333 44.4981 31.2086 41.223C31.8914 38.8277 32.8667 37.6545 32.8667 39.1699ZM35.3049 41.5163C35.3049 41.9562 34.7197 42.5917 34.037 42.9339C32.8667 43.4227 32.8179 43.4227 33.1105 42.3962C33.3055 41.7607 33.5494 40.8808 33.6957 40.392C33.8907 39.7076 34.0858 39.6098 34.6222 40.0987C35.0123 40.392 35.3049 41.0274 35.3049 41.5163Z" fill="#222222"/>
<path d="M117.865 58.9678C116.353 59.2611 114.305 61.3141 114.256 62.634C114.061 66.1047 115.329 68.451 120.206 73.6326C125.57 79.3519 126.886 82.5293 123.96 82.627C121.278 82.6759 119.133 82.9203 118.84 83.2136C118.157 83.9469 119.377 84.2891 122.4 84.2891C124.643 84.2891 125.716 84.0446 126.301 83.4581C127.325 82.4315 127.325 79.9874 126.252 78.3742C125.57 77.2499 125.57 77.1033 126.545 75.7346C127.569 74.4147 127.569 74.1214 127.033 72.215C126.106 69.1843 125.131 67.4245 124.302 67.4245C123.327 67.4245 123.375 67.8644 124.546 70.4063C125.862 73.3882 125.814 74.7569 124.351 74.7569C122.595 74.7569 116.548 67.4245 115.963 64.5893C115.524 62.4385 116.451 61.1675 118.938 60.532C120.157 60.2387 121.132 59.7988 121.132 59.6032C121.132 59.2122 119.815 58.5767 119.279 58.6745C119.084 58.7234 118.45 58.87 117.865 58.9678Z" fill="#222222"/>
<path d="M112.159 71.2383C112.012 71.5316 112.208 72.5581 112.646 73.5358C113.037 74.5134 113.329 76.0288 113.232 76.9087C113.134 78.1307 112.841 78.4729 111.817 78.5707C110.354 78.7173 108.111 77.0553 107.038 75.0511C106.307 73.7313 105.039 73.2914 105.039 74.4157C105.039 75.54 107.429 78.5707 109.184 79.6461C111.525 81.1126 113.573 80.6238 114.646 78.424C115.377 76.9087 115.377 76.5665 114.499 73.9757C113.622 71.2383 112.744 70.2606 112.159 71.2383Z" fill="#222222"/>
<path d="M116.255 92.7927C116.255 93.3793 116.889 94.0148 117.962 94.5036C119.425 95.2368 119.815 95.2368 121.278 94.6014C123.228 93.8192 123.911 92.9882 123.131 92.2061C122.789 91.8639 122.351 91.9128 121.717 92.4994C120.595 93.5259 119.181 93.5748 117.913 92.5972C116.645 91.6684 116.255 91.6684 116.255 92.7927Z" fill="#222222"/>
<path d="M264.599 54.2757C263.185 55.0578 261.917 55.9866 261.77 56.3287C261.673 56.6709 261.868 58.4307 262.161 60.3371L262.795 63.71L265.477 64.7366C268.11 65.7631 268.159 65.812 269.036 68.7938C269.963 71.7757 269.963 71.8246 272.45 72.5578C275.864 73.5844 276.205 73.4866 278.156 71.5313L279.862 69.7715L277.522 67.6207C275.327 65.6653 275.23 65.4698 276.351 65.4698C277.229 65.4698 277.717 65.8609 278.156 66.8874C278.741 68.3539 280.106 69.3316 280.106 68.2561C280.106 67.914 279.862 66.8385 279.57 65.812C279.131 64.2477 279.18 63.7589 279.862 63.0257C281.033 61.7058 280.35 60.8259 278.887 61.7547C278.058 62.2924 277.375 62.3902 276.107 61.9991C274.547 61.6081 274.401 61.3637 273.913 58.8706C273.328 55.4 273.864 54.7645 276.595 55.791C278.058 56.3287 278.497 56.8176 279.033 58.4796C279.375 59.6039 280.009 60.6304 280.448 60.7771C281.081 61.0215 281.13 60.7771 280.838 59.2617C280.252 56.0843 279.521 55.1067 277.229 54.3245C275.571 53.7868 274.693 53.7379 273.62 54.129C272.499 54.5689 271.816 54.4712 270.061 53.6891C268.841 53.2002 267.671 52.7603 267.525 52.7603C267.33 52.7603 266.013 53.4446 264.599 54.2757ZM269.622 55.3022C270.792 55.8399 270.792 55.8888 270.012 56.7687C269.329 57.5019 269.329 57.9419 269.768 59.555C271.085 63.8567 270.158 64.981 266.501 63.6612C263.916 62.7813 264.014 62.879 263.331 58.6262C263.038 56.9642 263.136 56.8176 265.087 55.8399C267.574 54.5689 267.964 54.5201 269.622 55.3022ZM272.791 60.9237C272.791 61.2659 272.645 61.5592 272.401 61.5592C271.914 61.5592 270.89 58.2352 271.28 57.8441C271.572 57.5508 272.743 59.9461 272.791 60.9237ZM275.473 67.1807C276.693 68.6472 277.57 69.8693 277.327 69.8693C277.131 69.8204 275.62 68.6472 274.011 67.1807C271.67 65.0299 271.28 64.4922 272.109 64.4922C272.791 64.4922 274.011 65.4698 275.473 67.1807ZM273.669 68.3539C275.083 69.967 276.01 71.3846 275.766 71.5313C275.376 71.8246 270.353 66.4475 270.353 65.7631C270.353 64.9321 271.328 65.7142 273.669 68.3539ZM272.353 69.9181L273.425 71.4335L272.255 71.0913C270.841 70.6514 271.036 70.8958 270.646 69.2338C270.256 67.5718 270.841 67.8162 272.353 69.9181Z" fill="#222222"/>
<path d="M206.032 72.1155C198.912 74.0219 192.329 79.2035 189.354 85.2161C187.257 89.5667 186.916 94.7483 188.574 98.1212C189.793 100.565 193.596 104.329 196.766 106.187C202.667 109.658 212.517 111.515 219.735 110.586C233.681 108.68 240.509 101.983 238.655 92.0597C237.436 85.6561 230.707 76.906 224.514 73.7775C221.929 72.4577 215.931 71.089 216.76 71.9689C216.906 72.1644 218.759 73.1421 220.905 74.2175C226.318 76.8571 229.829 79.8879 232.999 84.6784C240.07 95.3348 237.583 103.596 226.269 107.164C221.734 108.582 211.835 108.68 206.958 107.36C198.912 105.16 191.89 100.37 189.89 95.677C187.891 91.0332 189.744 85.5583 195.059 80.3278C198.912 76.515 202.764 74.6085 209.835 73.0443C212.907 72.3599 215.541 71.7245 215.638 71.5778C216.224 71.0401 208.47 71.4312 206.032 72.1155Z" fill="#222222"/>
<path d="M203.35 85.7549C202.862 87.0259 203.008 89.3234 203.545 89.6656C204.569 90.3011 205.544 88.8346 205.398 87.0259C205.252 85.1684 203.935 84.3373 203.35 85.7549Z" fill="#222222"/>
<path d="M212.128 86.7315C211.64 88.0025 211.787 90.3 212.323 90.6421C213.347 91.2776 214.323 89.8111 214.176 88.0025C214.03 86.1449 212.713 85.3139 212.128 86.7315Z" fill="#222222"/>
<path d="M25.1131 93.0396C23.1137 96.217 23.3088 106.385 25.3081 106.14C25.6007 106.091 25.9421 104.038 26.0884 101.545C26.2834 99.0522 26.576 95.7282 26.7711 94.1639C27.21 90.8888 26.6248 90.5466 25.1131 93.0396Z" fill="#222222"/>
<path d="M203.35 95.2389C203.204 95.4344 203.545 96.0699 204.081 96.5587C205.301 97.6342 210.665 98.123 212.274 97.292C213.688 96.5099 213.688 95.0434 212.225 95.4833C209.446 96.3143 207.495 96.3632 205.934 95.5811C204.13 94.7012 203.691 94.6034 203.35 95.2389Z" fill="#222222"/>
<path d="M10.4355 101.396C10.4355 103.058 16.8238 106.969 18.5306 106.333C19.5546 105.942 19.3596 105.111 18.0429 104.622C17.409 104.378 15.7997 103.498 14.483 102.667C12.2886 101.298 10.4355 100.712 10.4355 101.396Z" fill="#222222"/>
<path d="M244.264 121.291C249.433 125.739 254.261 130.97 256.699 134.685C261.186 141.528 269.866 160.055 269.866 162.744C269.866 163.33 270.792 164.797 271.963 166.068C275.425 169.929 275.571 170.125 273.816 169.441C272.06 168.805 271.378 169.245 272.499 170.32C274.206 172.031 274.938 174.329 274.791 177.262C274.742 178.679 273.767 178.777 273.767 177.408C273.767 176.089 272.45 172.911 271.67 172.422C270.207 171.494 269.817 172.031 270.792 173.644C271.329 174.524 271.914 176.186 272.109 177.311C272.255 178.386 272.841 179.706 273.377 180.195C274.255 180.977 274.352 180.977 275.962 179.217C278.156 176.822 278.644 175.844 278.644 173.889C278.595 171.591 277.181 168.756 274.645 165.921C272.987 164.063 271.865 162.01 270.11 157.611C264.697 143.875 258.504 132.73 252.652 126.277C249.58 122.904 245.483 119.922 243.289 119.482C241.924 119.189 241.972 119.287 244.264 121.291Z" fill="#222222"/>
<path d="M198.034 123.638C195.84 125.397 193.206 131.41 192.914 135.369L192.67 138.84L194.669 140.698C199.838 145.635 211.64 148.763 218.71 147.101C222.953 146.075 224.806 144.95 225.538 142.849C226.415 140.258 226.318 132.143 225.343 129.992C224.611 128.281 224.611 128.281 224.562 132.828L224.514 137.374L222.222 138.4C217.15 140.649 211.396 139.867 209.396 136.64C208.226 134.685 208.128 131.605 209.201 129.406L209.933 127.793L214.419 127.744C218.515 127.744 222.124 126.962 221.441 126.277C221.295 126.082 218.662 125.984 215.638 126.033C210.518 126.082 209.786 125.984 205.251 124.371C202.569 123.442 200.131 122.66 199.838 122.66C199.546 122.66 198.717 123.1 198.034 123.638Z" fill="#222222"/>
<path d="M89.9219 125.008C89.9219 126.377 91.3848 128.088 93.1404 128.821C96.6515 130.287 105.527 129.456 108.794 127.306C110.793 125.986 109.477 125.399 106.941 126.475C104.21 127.648 101.235 128.186 97.6268 128.137C94.4083 128.088 92.0675 127.061 91.2873 125.35C90.6534 123.933 89.9219 123.737 89.9219 125.008Z" fill="#222222"/>
<path d="M180.869 127.89C175.31 133.023 168.483 134.489 162.924 131.752C161.412 131.019 160.144 130.236 160.144 130.041C160.144 129.503 156.584 127.059 155.804 127.059C153.756 127.059 160.632 132.534 164.241 133.707C167.703 134.88 173.262 134.44 176.529 132.778C179.016 131.507 184.527 126.864 184.527 126.032C184.527 125.055 183.161 125.739 180.869 127.89Z" fill="#222222"/>
<path d="M5.55859 129.895C5.55859 130.139 6.82649 132.584 8.38697 135.37C11.1178 140.307 12.3857 141.774 12.3857 139.916C12.3857 138.987 8.4845 131.948 7.11908 130.335C6.33884 129.455 5.55859 129.211 5.55859 129.895Z" fill="#222222"/>
<path d="M15.5553 137.18C13.8973 139.038 10.2399 146.223 9.21583 149.645C8.28929 152.969 8.48435 154.876 10.5325 162.159C12.288 168.612 13.8485 172.376 16.6281 176.873C18.725 180.246 18.8226 180.539 17.9935 181.126C17.5059 181.468 16.9207 181.859 16.6281 181.957C15.5553 182.299 16.9207 183.276 19.554 184.059C23.1626 185.134 28.5268 184.792 31.5015 183.325C34.8663 181.712 35.4515 179.219 33.0132 176.58C32.1354 175.651 31.6478 175.406 31.5015 175.895C31.4039 176.237 31.5502 176.775 31.8428 177.068C32.8181 178.046 32.428 178.339 30.5749 178.046C28.2342 177.704 27.3564 176.922 26.0398 174.135L25.0157 171.985L26.2836 168.856C27.7466 165.19 27.7953 163.235 26.5762 160.546C25.6009 158.395 25.796 157.32 27.5027 154.924C27.9904 154.191 28.5268 152.627 28.5756 151.454C28.6731 149.743 28.5756 149.303 27.8441 149.156C26.4299 148.863 24.7719 149.45 23.1626 150.818L21.6509 152.089L22.1386 150.721C22.4312 149.987 23.4552 148.13 24.4305 146.565C25.8447 144.17 26.0886 143.437 25.8447 142.019C25.4546 140.064 24.2842 139.135 23.0651 139.82C22.4312 140.162 22.1873 139.966 21.9435 139.038C21.7485 138.304 21.2608 137.815 20.7244 137.815C20.2367 137.815 19.4565 137.376 18.9688 136.838C17.7985 135.518 17.067 135.616 15.5553 137.18ZM17.7497 139.086C17.7497 139.477 17.067 140.797 16.238 142.019C13.6047 145.881 12.7757 148.227 13.1658 151.014C13.6047 154.387 14.3362 154.093 14.3362 150.574C14.3362 147.885 14.5312 147.396 16.9207 143.877C18.2861 141.775 19.7491 139.966 20.0904 139.869C21.3096 139.477 20.6269 141.628 18.4812 144.855C16.5794 147.739 16.2868 148.57 16.2868 150.721C16.2868 152.089 16.5306 153.556 16.7744 153.947C17.1158 154.484 17.2621 154.191 17.2621 152.774C17.2621 149.45 18.2861 147.201 21.212 144.024C24.7231 140.26 25.0157 141.237 21.8948 146.223C19.9442 149.401 19.7003 150.085 19.7003 152.725C19.7003 154.436 19.9929 156.098 20.3343 156.635C20.9682 157.417 21.1145 157.271 22.5775 154.729C23.504 153.165 24.7719 151.649 25.6009 151.258C26.3811 150.818 27.0151 150.623 27.0151 150.769C27.0151 150.916 26.2348 152.138 25.3083 153.507C23.4065 156.293 23.1139 158.737 24.333 161.084C25.3571 163.088 25.2595 167.047 24.0892 169.345L23.1139 171.3L24.333 173.891C25.0157 175.357 26.3811 177.753 27.3077 179.219C28.2342 180.686 28.8682 182.054 28.7219 182.201C28.5756 182.397 26.9663 182.592 25.162 182.69L21.8948 182.837L20.1392 179.952C14.2874 170.567 9.94731 157.76 10.5813 151.698C10.8738 149.01 12.5806 145.001 15.3602 140.651C16.9207 138.255 17.7497 137.718 17.7497 139.086Z" fill="#222222"/>
<path d="M249.872 136.887C249.872 137.18 250.994 138.647 252.359 140.162C255.334 143.535 258.991 149.547 261.771 155.853C265.477 164.066 265.428 163.577 262.844 168.318C261.624 170.567 260.6 172.767 260.6 173.158C260.6 174.184 262.21 174.624 263.624 173.94C265.477 173.109 268.403 168.123 267.086 168.123C266.891 168.123 265.769 169.149 264.648 170.42L262.502 172.767L263.819 170.323C264.55 168.954 265.282 167.634 265.477 167.39C265.672 167.096 266.062 166.168 266.403 165.337C267.037 163.821 266.891 163.381 264.453 157.76C261.381 150.623 258.308 144.953 255.383 141.14C252.505 137.376 249.872 135.323 249.872 136.887Z" fill="#222222"/>
<path d="M103.089 138.498C103.089 139.525 105.527 140.942 106.161 140.307C106.502 139.965 106.307 139.525 105.478 138.84C104.113 137.667 103.089 137.52 103.089 138.498Z" fill="#222222"/>
<path d="M57.7854 142.067C53.7866 146.026 50.9095 150.523 52.3237 150.523C52.5187 150.523 53.3478 149.644 54.0305 148.519C54.7619 147.395 57.0051 144.951 59.0045 143.044C62.3693 139.769 63.3446 138.303 62.1255 138.303C61.8329 138.303 59.8823 140.014 57.7854 142.067Z" fill="#222222"/>
<path d="M39.255 145.928L40.3278 147.688L39.2062 147.102C37.7433 146.32 37.8896 146.515 43.8389 154.19C49.008 160.789 53.4457 166.753 56.079 170.565C60.8092 177.458 64.1252 182.444 66.027 185.621C68.6604 189.923 69.6357 190.363 72.2202 188.359C81.3393 181.222 86.4109 177.409 89.7756 175.063C93.5793 172.423 94.7009 171.299 94.067 170.614C93.6769 170.272 93.3355 170.517 82.2171 177.996C77.1455 181.417 72.269 185.035 71.3424 186.061L69.6844 187.919L64.5641 179.364C54.421 162.451 40.9618 144.169 38.6698 144.169C38.3772 144.169 38.6211 144.951 39.255 145.928Z" fill="#222222"/>
<path d="M61.9805 147.152C60.7613 147.885 57.2015 152.48 57.4941 152.969C57.7379 153.36 63.5897 147.592 63.5897 146.957C63.5897 146.468 63.0045 146.566 61.9805 147.152Z" fill="#222222"/>
<path d="M132.056 154.482C131.763 154.97 134.055 157.317 134.884 157.366C135.86 157.415 135.665 156.241 134.445 155.166C132.885 153.797 132.544 153.7 132.056 154.482Z" fill="#222222"/>
<path d="M127.081 165.729C127.228 166.169 128.447 166.56 130.105 166.755C135.128 167.391 139.224 169.786 145.71 175.847C149.172 179.074 149.708 179.416 151.025 179.172C152.976 178.78 153.268 178.389 152.147 177.705C151.659 177.412 148.928 175.31 146.051 173.061C139.517 167.88 134.835 165.582 130.202 165.289C127.52 165.093 126.886 165.191 127.081 165.729Z" fill="#222222"/>
<path d="M163.216 168.806C162.144 169.295 161.656 171.055 162.582 171.055C163.753 171.055 165.508 169.833 165.508 169.002C165.508 168.024 164.874 167.975 163.216 168.806Z" fill="#222222"/>
<path d="M27.6001 170.664C27.9902 171.886 45.2043 182.835 52.2752 186.404C59.2486 189.923 63.735 191.341 65.9782 190.754C68.0751 190.217 66.856 189.337 62.5159 188.31C57.2492 187.088 48.8129 182.982 41.6444 178.24C29.5507 170.224 27.0636 168.904 27.6001 170.664Z" fill="#222222"/>
<path d="M36.2803 181.466C36.2803 183.421 42.3759 189.629 45.7895 191.144C48.374 192.318 51.6413 192.758 53.5431 192.171C55.9814 191.487 55.5425 190.753 52.5191 190.46C46.6672 189.922 42.7173 187.82 39.1574 183.372C37.158 180.83 36.2803 180.244 36.2803 181.466Z" fill="#222222"/>
<path d="M135.42 183.079C134.055 184.106 133.226 185.719 134.055 185.719C134.689 185.719 138.59 182.59 138.395 182.199C137.956 181.515 137.029 181.759 135.42 183.079Z" fill="#222222"/>
<path d="M15.6044 184.155C14.2877 186.355 25.3574 199.456 34.0863 206.055C44.5708 213.925 54.2263 215.245 60.1757 209.672C61.0047 208.89 61.6386 207.815 61.6386 207.179C61.6386 206.104 61.5898 206.104 60.0781 207.57C56.567 210.894 52.0319 211.872 46.5702 210.405C40.2795 208.792 35.5981 205.615 27.6981 197.745C22.529 192.563 19.4568 188.897 16.726 184.742C16.2383 184.009 15.8482 183.764 15.6044 184.155Z" fill="#222222"/>
<path d="M42.0348 198.283C41.6447 198.772 41.1571 199.652 41.0108 200.238C40.6206 201.852 42.2787 201.705 43.0101 200.141C44.1317 197.697 43.4978 196.621 42.0348 198.283Z" fill="#222222"/>
<path d="M251.335 199.357C249.189 200.237 249.141 200.334 248.799 202.827C248.653 204.245 248.604 205.663 248.702 205.956C248.799 206.249 249.872 207.08 250.994 207.765C253.09 209.036 253.139 209.036 254.797 208.156C257.138 206.983 257.528 206.396 257.772 203.658C258.016 201.312 257.967 201.214 256.065 199.846C253.822 198.184 254.163 198.232 251.335 199.357ZM255.236 203.414L257.236 206.494L254.797 203.805C252.749 201.557 252.164 200.383 253.042 200.383C253.139 200.383 254.163 201.752 255.236 203.414ZM252.554 203.414L253.919 205.516L252.115 203.854C250.408 202.192 249.97 201.361 250.799 201.361C250.994 201.361 251.823 202.29 252.554 203.414ZM251.969 205.369C253.529 207.471 253.188 207.765 251.189 206.103C250.213 205.32 249.921 204.783 250.165 204.147C250.311 203.658 250.506 203.316 250.555 203.414C250.603 203.512 251.237 204.392 251.969 205.369Z" fill="#222222"/>
<path d="M234.853 215.879C233.243 217.248 233.243 217.248 233.926 219.447C234.462 221.403 234.755 221.696 236.657 222.331C238.656 222.967 238.754 222.918 240.07 221.696C241.387 220.425 241.485 219.985 241.192 216.563C241.143 215.977 240.509 215.439 239.583 215.097C237.291 214.315 236.608 214.412 234.853 215.879ZM240.168 218.763C240.948 219.741 240.558 219.594 238.071 218.03C237.047 217.443 236.364 216.71 236.511 216.466C236.803 215.977 238.998 217.394 240.168 218.763ZM237.778 218.959C238.851 219.741 239.583 220.425 239.388 220.425C238.851 220.425 234.755 218.03 234.755 217.737C234.755 217.15 235.925 217.639 237.778 218.959ZM238.656 221.5C238.656 221.696 237.925 221.598 237.096 221.354C236.218 221.109 235.438 220.914 235.389 220.914C235.291 220.914 235.243 220.474 235.243 219.936C235.243 218.959 235.291 218.959 236.949 220.034C237.876 220.669 238.656 221.305 238.656 221.5Z" fill="#222222"/>
<path d="M64.3206 223.849C62.9552 225.315 62.9552 225.315 63.6379 227.613C64.3206 229.812 64.4669 229.959 66.515 230.301C68.2218 230.594 68.8558 230.497 69.5872 229.812C71.0502 228.492 71.4891 226.879 70.8551 224.973C69.9286 222.089 66.5638 221.502 64.3206 223.849ZM70.6601 227.173C70.3187 227.564 65.5397 224.728 65.7836 224.337C65.9299 224.093 67.149 224.582 68.4656 225.462C69.7335 226.293 70.7576 227.075 70.6601 227.173ZM69.2459 228.101C69.1483 228.199 67.978 227.759 66.5638 227.124C65.1496 226.537 64.1743 225.853 64.3694 225.657C64.5644 225.511 65.7348 225.951 67.0515 226.635C68.3193 227.368 69.3434 228.053 69.2459 228.101ZM67.1002 228.248L68.7095 229.226H67.149C66.0761 229.226 65.3934 228.932 65.0521 228.248C64.3694 226.977 65.0521 226.977 67.1002 228.248Z" fill="#222222"/>
<path d="M114.18 162.741C115.608 165.194 118.003 166.999 119.023 167.595C119.023 169.299 118.513 172.807 116.474 173.216C109.049 174.705 103.731 173.982 96.0849 167.851C94.5557 168.106 84.361 168.106 83.8513 165.041C83.3416 161.975 91.4973 163.508 94.046 163.508C96.0849 163.508 96.2548 161.293 96.0849 160.186C91.3274 158.909 81.8123 155.996 81.8123 154.566C81.8123 153.261 84.2142 153.132 85.7326 153.249C84.293 153.065 81.9972 152.332 81.8123 150.478C81.6084 148.434 87.5043 148.094 90.4777 148.179C88.0989 147.412 83.8002 145.471 85.6352 143.836C87.929 141.792 101.947 147.668 105.515 149.712C109.083 151.755 112.396 159.675 114.18 162.741Z" fill="white"/>
<path d="M100.309 27.5365C94.6037 29.3452 90.5562 33.989 89.2395 40.1483L88.9469 41.4681L86.4599 39.9527C84.363 38.6329 83.4365 38.3885 79.9742 38.193C76.3168 37.9974 75.5853 38.0952 72.9032 39.3173C69.1483 41.0282 65.052 45.281 63.8817 48.7028C62.4675 52.9067 62.37 55.7908 63.5891 62.9765L64.7107 69.7224L63.6866 71.9221C63.1014 73.0953 60.7607 76.2727 58.4687 78.9123C53.2996 84.876 51.154 88.9822 51.2028 92.795C51.2028 97.39 53.4947 100.176 57.8348 100.91C60.5656 101.398 61.6385 103.012 61.6385 106.727C61.6385 110.1 62.8088 112.544 64.7594 113.472C65.9298 113.961 65.881 114.059 61.9798 117.188C59.7854 118.947 54.275 124.08 49.7886 128.626C45.2534 133.123 41.3522 136.838 41.1084 136.838C39.109 136.838 45.0583 125.107 49.3497 120.512C50.3737 119.485 52.6657 117.383 54.5675 115.917C57.0058 113.912 57.7373 113.081 57.1033 112.984C56.6644 112.886 55.5428 113.326 54.7138 113.912C48.9108 117.921 44.6195 123.005 41.1084 129.897C38.9139 134.248 38.5238 133.27 40.2306 127.746C41.7911 122.614 43.4003 119.876 46.8139 116.405C50.6176 112.593 50.9589 111.566 48.033 113.13C45.7898 114.255 42.23 118.605 40.4257 122.369C38.28 126.866 37.2072 131.266 37.1096 135.714C37.0609 137.669 37.0121 139.283 37.0121 139.283C37.0121 139.283 35.5979 137.963 33.9399 136.35C28.0881 130.777 20.5295 126.182 16.482 125.693C13.5561 125.4 13.7999 126.231 16.9209 127.209C20.7246 128.431 26.5764 132.097 30.2825 135.665L33.5986 138.843L31.5504 138.647C29.6486 138.403 20.432 133.563 15.0678 129.995C11.8981 127.844 8.97218 126.524 7.85058 126.671C7.07034 126.769 9.02095 128.186 14.824 131.657C24.7233 137.669 32.8183 141.824 36.0368 142.607L38.4751 143.193L41.8886 139.38C48.2768 132.292 57.4934 123.347 62.9064 118.947C68.5144 114.45 75.3902 109.317 75.4878 109.562C76.5606 112.153 79.6328 117.53 83.0951 122.907C85.4846 126.671 88.8982 132.292 90.6537 135.372C94.116 141.385 95.774 143.584 95.774 142.118C95.774 140.993 91.9704 133.808 88.4593 128.284C86.9476 125.84 85.0945 122.956 84.4118 121.831L83.1439 119.827L86.4111 119.241C88.2155 118.947 90.9951 118.263 92.5555 117.725C96.408 116.503 96.5055 116.503 95.0913 118.41C93.6771 120.267 93.4333 122.711 94.5549 123.64C98.7975 127.16 115.475 122.222 122.887 115.281L124.35 113.864L127.471 115.868C135.176 120.854 147.855 132.439 154.146 140.26C168.727 158.445 176.529 180.589 172.823 193.298C171.994 196.084 167.849 199.995 164.484 201.168C160.875 202.439 153.609 202.341 147.758 200.924C134.494 197.746 121.083 189.534 117.718 182.593C115.036 176.971 117.718 170.421 124.35 166.364C126.203 165.239 124.448 165.044 121.912 166.119C120.498 166.706 119.035 167.048 118.645 166.901C117.523 166.413 114.646 162.355 111.867 157.369C110.452 154.827 108.794 152.041 108.16 151.161C106.746 149.304 102.504 147.202 94.7987 144.611C87.4352 142.118 84.5581 142.069 84.5581 144.464C84.5581 145.588 86.1673 147.544 87.1914 147.642C87.484 147.69 86.5087 147.886 85.0457 148.081C82.9976 148.375 82.0669 148.435 81.1933 149.841C80.3196 151.247 81.7297 152.97 81.7297 152.97C80.8519 152.97 80.5593 154.778 81.242 155.854C81.9735 157.076 84.2655 158.005 88.2155 158.836C89.8247 159.129 92.5555 159.813 94.2623 160.351C98.0172 161.475 97.8709 161.475 97.2858 160.351C96.6031 159.178 94.4086 158.151 88.7031 156.44C86.1186 155.658 83.7291 154.778 83.4365 154.485C82.6562 153.703 87.1426 153.801 92.8481 154.681C95.3839 155.072 97.9197 155.414 98.4561 155.365C99.3827 155.365 99.3827 155.316 98.3098 154.436C97.1882 153.507 95.9691 153.214 87.6303 151.699C85.1433 151.259 83.2414 150.721 83.3877 150.477C83.7778 149.792 90.7025 149.939 94.75 150.721C98.2611 151.406 99.9191 151.308 99.4314 150.526C99.2851 150.281 97.0419 149.45 94.4086 148.619C91.8241 147.788 88.8982 146.615 87.9716 146.028C86.4599 145.051 86.3624 144.904 87.2889 144.757C89.8247 144.366 103.43 149.157 106.015 151.357C106.795 151.992 108.502 154.485 109.77 156.783C112.793 162.453 115.573 166.51 116.792 167.195L117.816 167.732L116.841 168.759C115.183 170.519 114.646 172.523 114.695 176.825C114.695 180.246 114.89 181.273 116.06 183.57C119.766 190.903 133.616 199.506 147.221 202.928C153.024 204.346 162.533 204.492 166.288 203.172C169.702 201.999 172.433 199.506 173.798 196.378C175.212 193.151 175.7 184.255 174.773 178.487C172.433 163.577 162.387 145.686 148.197 131.021C145.124 127.844 142.589 125.155 142.589 125.009C142.589 124.862 143.466 124.618 144.49 124.422C146.1 124.178 146.782 124.373 148.245 125.351C150.342 126.769 154.292 127.111 154.292 125.84C154.292 125.4 153.853 125.107 153.122 125.107C151.415 125.107 149.611 124.324 148.392 123.102C147.563 122.271 146.977 122.125 145.124 122.369C143.222 122.565 143.027 122.565 144.149 122.125C145.612 121.587 146.295 120.316 145.368 119.925C145.027 119.827 143.466 120.267 141.906 120.952L139.126 122.174L137.419 120.903C134.932 118.947 135.274 118.556 139.175 118.947C141.223 119.143 142.589 119.045 142.589 118.801C142.589 117.97 141.467 117.53 138.444 117.188C135.615 116.894 135.664 116.894 139.224 116.992C143.515 117.139 145.953 118.165 151.122 121.929C157.657 126.72 159.9 127.991 163.362 128.822C170.19 130.484 173.701 129.066 183.307 121.049C190.427 115.086 191.256 115.379 188.135 122.614C186.136 127.257 184.478 132.537 183.259 138.354C182.039 143.975 182.039 156.001 183.259 161.769C187.062 180.246 197.498 194.569 208.909 197.013C216.663 198.675 228.805 192.467 235.827 183.228C237.339 181.224 239.241 178.389 240.07 176.922C242.069 173.256 244.8 164.799 245.483 159.862C246.409 153.752 245.873 139.82 244.508 133.417C243.288 127.502 240.801 119.436 240.119 118.996C239.338 118.507 239.534 121.196 240.558 125.155C245.629 145.149 245.434 159.764 239.875 172.67C234.316 185.526 221.783 195.644 211.64 195.449C209.445 195.4 209.055 195.302 210.128 195.058C211.786 194.716 211.396 194.325 208.909 193.787C202.179 192.32 194.913 185.575 190.427 176.531C188.233 172.181 185.697 164.262 184.77 159.129C183.015 148.815 184.478 137.083 189.013 126.133C190.037 123.542 191.597 119.778 192.378 117.774L193.889 114.059L196.62 115.428C202.618 118.361 214.127 120.023 222.807 119.241C237.632 117.823 248.458 112.299 251.383 104.674C253.432 99.2476 252.505 91.2797 249.043 84.2894C245.629 77.4947 238.9 70.5045 232.463 67.0827C228.708 65.0785 222.758 63.1232 222.173 63.7098C221.783 64.1008 221.588 64.0031 228.415 67.2782C233.487 69.7224 235.193 70.8955 238.314 73.8285C246.312 81.3076 250.554 89.6665 250.554 97.9766C250.554 101.007 250.311 102.474 249.433 104.478C245.629 113.081 230.853 118.41 215.053 116.845C199.107 115.281 187.404 108.78 182.527 98.8565C180.82 95.4347 180.918 89.911 182.722 85.5115C187.599 73.7308 199.351 66.3006 215.834 64.6874C218.174 64.443 219.15 64.5408 219.15 64.9318C219.15 65.2251 218.711 65.4696 218.174 65.4696C216.468 65.4696 217.102 66.3983 219.199 66.936C220.905 67.4249 221.344 67.376 222.027 66.7405C222.71 66.0073 222.612 65.9584 221.149 65.9584C219.784 65.9584 219.589 65.8117 219.881 65.0785C220.076 64.6385 220.418 63.2698 220.613 62.0478C221.247 58.5771 222.807 54.9598 223.831 54.8131C225.489 54.4709 226.952 52.7111 226.952 51.0491C226.952 47.9206 223.246 46.6008 220.857 48.8494C219.491 50.1204 219.247 52.4667 220.32 53.6888C220.905 54.3732 220.905 54.862 220.32 57.4039C219.93 59.017 219.54 60.9235 219.394 61.6567C219.15 62.9765 219.052 63.0254 215.59 63.0254C204.667 63.0254 195.742 66.7894 187.94 74.7084C181.649 81.0632 178.285 88.3467 178.772 94.4571C179.211 99.8342 183.6 106.091 189.842 110.197C192.914 112.25 193.402 112.886 191.939 112.886C190.817 112.886 187.257 115.428 181.162 120.658C174.53 126.378 172.043 127.746 168.19 127.746C163.899 127.746 161.071 126.573 154.536 121.831C146.977 116.405 144.344 115.183 139.809 114.939L136.249 114.743L136.59 112.69C137.322 108.046 138.882 106.14 145.514 101.838C150.635 98.5143 151.951 96.7057 152.244 92.795C152.439 90.3998 152.244 89.471 151.171 87.2713C149.806 84.5339 148.587 83.4095 142.784 79.5967C140.882 78.3257 138.541 76.3215 137.614 75.0995C134.981 71.6777 133.226 65.7629 132.982 59.6036L132.738 54.4709L135.225 53.3466C144.588 49.0938 143.174 33.0114 133.128 29.7851C129.422 28.6119 123.765 30.2251 120.839 33.2558L119.523 34.6245L116.792 31.7893C114.792 29.6385 113.329 28.6608 111.233 27.8787C108.014 26.7055 103.479 26.5588 100.309 27.5365ZM111.623 30.1273C114.012 31.3982 115.329 32.5225 116.548 34.429L117.475 35.8955L115.719 34.3801C112.403 31.496 109.623 30.5183 105.039 30.5183C99.9191 30.5183 97.2858 31.6915 93.7747 35.5533C91.0926 38.5351 90.7025 38.3396 92.7994 35.0645C94.4086 32.5714 96.3105 31.0561 99.5777 29.7362C102.699 28.4653 108.843 28.7097 111.623 30.1273ZM133.079 31.936C134.006 32.327 134.786 32.8158 134.786 32.9625C134.786 33.1091 134.542 33.1091 134.298 32.9625C133.421 32.4248 128.544 32.6203 126.594 33.2558C125.618 33.598 123.912 34.3801 122.839 35.0645L120.888 36.2865L122.107 34.9178C123.668 33.2069 127.715 31.2516 129.812 31.2516C130.69 31.2516 132.153 31.5938 133.079 31.936ZM82.8513 40.5393C83.5828 40.8326 83.1439 40.9793 81.2908 40.9793C77.1458 41.0282 73.5372 42.6902 70.0748 46.1608C67.5878 48.6539 66.9539 49.6804 66.2712 52.0757C64.8082 57.3061 64.5156 57.6972 64.7594 54.1288C65.052 50.0715 66.6125 46.8452 69.5872 44.1078C72.0254 41.8592 73.3909 41.0282 75.5365 40.4904C77.5847 40.0016 81.6809 40.0505 82.8513 40.5393ZM224.514 49.3382C224.514 49.5827 224.27 49.8271 224.026 49.8271C223.734 49.8271 222.953 50.3648 222.319 51.0491C221.198 52.1246 221.1 52.1245 221.1 51.2935C221.1 50.3159 222.807 48.8494 223.88 48.8494C224.221 48.8494 224.514 49.0449 224.514 49.3382ZM113.963 58.1371C115.719 58.4793 117.279 58.5282 118.596 58.2349C120.01 57.8927 120.742 57.9416 121.083 58.3327C122.253 59.7992 127.081 69.6735 128.593 73.7796C132.007 83.0674 132.836 93.5283 130.495 98.0255C129.324 100.372 126.545 102.914 124.107 103.989C120.157 105.7 112.354 104.429 107.965 101.398C103.43 98.2699 97.3833 90.742 97.8709 88.8844C98.066 88.2001 97.6271 88.1023 94.8475 88.1512C92.3117 88.2001 91.2877 87.9556 89.9222 87.1246C86.9963 85.316 85.7284 81.9919 87.0451 79.5967C88.2642 77.2503 91.3852 77.6414 93.8722 80.4766C95.8716 82.7741 96.3592 82.0408 96.1154 77.0548C95.9691 74.024 95.6278 72.7042 94.4574 70.4067L92.9457 67.4737L94.9938 67.1804C96.0666 66.9849 97.3833 66.5939 97.8709 66.3494C98.6024 65.9584 98.6999 66.0561 98.4074 67.1316C97.9685 68.8913 98.895 68.7447 100.894 66.7405C103.186 64.3941 106.6 63.1721 108.599 63.9053C110.55 64.6385 111.623 63.8075 110.16 62.7321C109.526 62.2433 108.355 62.0478 106.649 62.1455L104.113 62.2922L105.088 60.8257C106.112 59.2614 107.234 57.0617 107.673 55.5463C107.965 54.7153 108.112 54.7642 109.623 56.0841C110.696 57.0128 112.257 57.7461 113.963 58.1371ZM150.196 90.2043C150.342 91.3286 150.342 92.9417 150.147 93.7727C149.806 95.4836 147.904 97.9277 146.392 98.7587C145.563 99.1987 145.563 99.0032 146.734 96.999C148.44 94.1149 148.928 89.5688 147.758 86.7336L146.977 84.7783L148.44 86.4403C149.318 87.4668 150.001 88.9333 150.196 90.2043Z" fill="#222222"/>
<path d="M82.9977 163.969C82.315 165.484 83.0465 166.462 85.8748 167.733C88.4106 168.857 93.8236 169.444 95.0914 168.71C95.8717 168.27 96.3593 168.515 97.9686 170.079C101.138 173.159 104.162 174.479 107.917 174.479C111.086 174.479 112.939 173.892 112.208 173.208C112.013 172.963 110.355 172.817 108.551 172.768C104.698 172.719 102.601 171.839 99.2365 168.808C97.0421 166.853 96.6519 166.657 94.2624 166.657C91.239 166.657 86.2162 165.582 85.3872 164.751C84.9971 164.36 86.2162 164.213 89.9711 164.213C93.726 164.213 95.3353 164.018 96.0668 163.48C96.8958 162.844 96.3106 162.796 90.2637 162.747C83.5829 162.747 83.5829 162.747 82.9977 163.969Z" fill="#222222"/>
</svg>
