<svg width="31" height="21" viewBox="0 0 31 21" fill="none" xmlns="http://www.w3.org/2000/svg">
<path d="M0 0.5H6.88889V20.5H0V0.5Z" fill="#ED1B1B"/>
<path d="M24.1111 0.5H31V20.5H24.1111V0.5Z" fill="#ED1B1B"/>
<path d="M16.7944 6.13875L15.6566 4.02941L14.5187 6.13875C14.4695 6.2301 14.3504 6.26377 14.257 6.21276L13.1326 5.59882L13.8146 8.96604C13.8557 9.16881 13.5938 9.29695 13.4454 9.14667L12.0259 7.70851L11.6579 8.49247C11.6051 8.60499 11.4762 8.66604 11.3505 8.63812L9.59639 8.2488L10.2109 10.0519C10.2531 10.1756 10.1922 10.3099 10.0688 10.3651L9.39394 10.6672L12.5364 13.0854C12.6266 13.1548 12.6604 13.2713 12.6204 13.375L12.2418 14.3592L15.134 13.8734C15.3392 13.839 15.5246 13.9958 15.5136 14.1945L15.3596 16.9706H15.9535L15.7996 14.1945C15.7886 13.9958 15.974 13.839 16.1792 13.8734L19.0713 14.3592L18.6927 13.375C18.6528 13.2713 18.6866 13.1548 18.7767 13.0854L21.9192 10.6672L21.2443 10.3651C21.121 10.3099 21.06 10.1756 21.1022 10.0519L21.7167 8.2488L19.9627 8.63812C19.8369 8.66604 19.7081 8.60499 19.6552 8.49247L19.2873 7.70851L17.8677 9.14667C17.7193 9.29695 17.4575 9.16881 17.4985 8.96604L18.1805 5.59882L17.0562 6.21276C16.9628 6.26377 16.8437 6.2301 16.7944 6.13875Z" fill="#ED1B1B"/>
</svg>
