<svg width="330" height="279" viewBox="0 0 330 279" fill="none" xmlns="http://www.w3.org/2000/svg">
<rect width="330" height="279" fill="white"/>
<path d="M34.9565 211.647C34.9565 229.647 114.458 236.2 154.208 237.227C163.33 237.227 300.02 228.12 300.02 206.29C300.02 184.46 183.183 181.782 168.696 182.318C154.208 182.853 34.9565 189.148 34.9565 211.647Z" fill="#B1E0DF"/>
<path d="M110.647 234.933C121.259 221.496 138.794 208.877 146.235 204.247C154.216 201.017 171.535 194.816 176.971 195.849C182.406 196.883 190.882 196.28 194.441 195.849C217.735 200.242 234.559 218.998 240.059 227.827C201.494 239.197 137.716 237.302 110.647 234.933Z" fill="#FABD05"/>
<path d="M281.241 229.995C284.059 226.535 278.031 217.537 275.971 215.876C273.91 214.215 271.945 211.677 265.546 211.031C259.147 210.385 254.697 212.368 252.03 216.199C249.362 220.029 248.794 223.493 244.588 227.504C241.123 230.809 240.359 231.65 242.474 232.807C244.588 233.964 254.618 230.411 255.217 221.825C255.217 221.825 261.735 231.703 263.353 235.902C266.115 236.831 265.618 231.057 265.618 231.057C267.559 234.933 270.778 235.132 272.119 234.548C273.46 233.964 273.46 231.468 273.46 231.468L276.68 232.807L278.692 229.995H281.241Z" fill="white"/>
<path d="M135.562 74.5078L145.757 77.1863L143.879 86.829L135.562 94.9984L119.063 99.8198L100.015 110.936L97.8687 107.32L100.015 94.9984L111.685 88.57L123.221 90.445L126.843 78.3917L135.562 74.5078Z" fill="white"/>
<path d="M118.527 145.887C118.259 138.655 130.734 124.995 137.575 122.584C144.417 120.173 172.038 116.901 180.769 122.584C194.263 131.368 200.845 146.423 199.549 161.824C198.476 174.574 188.102 176.512 183.049 175.887C174.062 196.913 160.916 201.868 148.038 201.868C135.161 201.868 128.99 192.359 123.222 182.315C118.608 174.279 119.332 160.664 120.271 154.86C120.271 154.86 118.795 153.119 118.527 145.887Z" fill="white"/>
<path d="M56.3324 37.3519C54.9731 38.8162 55.2235 40.709 56.8332 41.1018C58.1209 41.4232 59.2656 40.2804 59.2299 38.7447C59.1941 36.6376 57.6559 35.9234 56.3324 37.3519ZM57.5844 39.3519C57.3698 39.8876 57.2624 39.8876 57.012 39.459C56.7974 39.1376 56.8332 38.8519 57.1194 38.6733C57.6917 38.3162 57.8705 38.6019 57.5844 39.3519Z" fill="#222222"/>
<path d="M31.9717 60.5265C31.9717 60.9193 33.9391 64.5621 36.3 68.6335C38.6966 72.7048 42.0234 78.9547 43.6688 82.4903C45.3143 86.0259 46.9598 89.2045 47.2459 89.5259C47.9256 90.3116 48.7841 90.3473 48.7841 89.6687C48.7841 88.0973 45.8151 80.5261 42.4884 73.5976C38.5893 65.5264 35.8707 61.2765 34.0822 60.3479C32.6871 59.5979 31.9717 59.6694 31.9717 60.5265Z" fill="#222222"/>
<path d="M268.777 65.423C266.451 66.9587 262.409 70.9586 259.798 74.2086C253.932 81.5299 248.244 91.2082 248.459 93.4582C248.53 94.2082 248.745 94.6367 249.102 94.6367C249.389 94.6367 251.07 92.3511 252.858 89.6011C257.759 81.9227 260.8 77.8156 263.947 74.6371C267.882 70.6729 270.172 68.0301 270.422 67.173C270.565 66.7445 270.815 66.2445 270.994 65.9945C271.889 64.8873 270.207 64.4231 268.777 65.423Z" fill="#222222"/>
<path d="M243.236 66.9567C242.807 67.9924 242.163 68.1352 242.556 67.0995C242.878 66.2781 241.305 66.4924 240.875 67.3495C240.553 67.9209 240.589 68.2781 241.054 68.9566C242.127 70.6352 245.168 69.7423 245.168 67.7781C245.168 65.7067 243.987 65.2424 243.236 66.9567Z" fill="#222222"/>
<path d="M60.9464 72.2783C60.9464 72.4569 61.1968 72.7783 61.483 73.0283C61.7691 73.2783 62.0195 73.6355 62.0195 73.814C62.0195 74.0283 61.7691 73.9926 61.483 73.7426C60.7675 73.1712 60.4456 73.4569 60.7675 74.4212C61.0895 75.4568 62.3772 75.7783 62.9853 74.9569C63.5577 74.1712 63.5935 72.9569 63.0211 72.3855C62.5203 71.8855 60.9464 71.8141 60.9464 72.2783Z" fill="#222222"/>
<path d="M133.276 73.7783C127.415 74.8077 122.736 79.5396 122.652 85.4566C122.652 88.2423 122.616 88.4209 121.936 88.2423C115.39 86.6709 108.88 87.278 104.623 89.8851C96.8249 94.6707 94.3925 104.778 99.2216 112.313C101.761 116.277 106.984 119.634 113.172 121.313C117.081 122.346 122.808 123.011 126.73 121.706C127.91 121.242 127.946 121.277 129.305 122.777C130.128 123.742 131.523 124.742 132.918 125.384C136.452 126.972 142.454 127.233 146.082 125.741C147.048 125.384 147.727 125.277 147.799 125.491C148.693 128.134 152.485 130.313 157.35 130.991L160.569 131.42L158.208 131.634C156.885 131.777 155.06 132.206 154.166 132.634C152.735 133.241 152.52 133.491 152.52 134.42C152.52 135.634 153.594 136.598 155.024 136.598C155.525 136.598 157.135 136.277 158.602 135.884C160.068 135.491 162.214 135.17 163.359 135.17C165.362 135.17 165.47 135.206 167.401 137.134C169.655 139.313 169.476 139.241 170.442 138.741C171.551 138.134 171.229 137.134 169.333 135.17C167.401 133.206 165.935 132.42 162.894 131.777L160.927 131.349C165.928 130.951 170.186 130.513 175.772 128.634C176.701 128.322 178.097 127.741 178.133 127.777C174.654 136.643 178.383 148.384 181.03 151.491L178.383 153.669C176.73 152.619 171.586 149.598 170.013 150.384C169.869 150.455 169.548 151.134 169.333 151.884C168.367 154.812 166.257 158.241 163.967 160.562C159.925 164.562 155.275 166.205 151.054 165.026C145.652 163.526 143.184 160.169 143.184 154.277C143.184 150.205 144.508 146.134 145.116 148.384C145.366 149.348 146.94 149.67 148.049 148.955C149.493 148.015 149.932 146.043 150.553 144.527L154.917 145.527C157.35 146.062 160.14 146.848 161.141 147.277C163.323 148.241 165.648 148.384 166.149 147.67C166.579 146.955 165.72 146.384 162.036 144.884C158.065 143.277 152.556 141.92 149.086 141.705L146.225 141.491L144.4 143.241C142.326 145.277 141.253 147.705 140.68 151.848C139.75 158.562 142.361 164.062 147.763 166.776C150.625 168.169 153.164 168.562 156.348 168.098C162.738 167.081 171.434 155.527 171.586 153.027C172.338 153.027 177.024 154.634 177.131 154.919C177.203 155.062 176.738 156.241 176.094 157.527C175.199 159.276 174.913 160.455 174.77 162.491C174.484 166.812 175.807 168.741 178.991 168.741C181.638 168.741 184.071 166.776 188.22 161.312C190.152 158.777 190.259 158.669 191.475 158.884C193.371 159.169 196.376 160.776 197.091 161.884C198.844 164.562 196.984 169.169 192.906 172.169C190.223 174.133 187.648 174.883 183.641 174.883H180.243L181.316 175.74C184.822 178.526 191.69 176.883 196.376 172.098C198.88 169.598 200.096 166.955 200.096 164.098C200.096 162.526 200.203 162.312 201.312 161.634C202.743 160.741 202.993 160.705 202.743 161.419C202.385 162.348 204.496 162.062 206.034 160.955C209.289 158.562 214.404 152.312 217.481 146.884C224.707 134.206 224.707 119.67 217.552 107.778C214.691 102.992 209.075 98.2064 202.815 95.135C194.73 91.2065 186.61 90.5994 178.097 93.2779C174.412 94.4564 170.835 96.2421 169.226 97.7778L167.938 98.9563L167.365 97.1707C165.255 90.7779 159.782 83.6352 153.987 79.7782C147.119 75.1711 138.892 72.7783 133.276 73.7783ZM144.007 77.7782C145.009 78.1711 144.651 78.2425 140.859 78.2068C135.887 78.2068 134.027 78.7068 131.237 80.8139C129.126 82.3853 127.266 85.6709 126.908 88.3851C126.694 89.9565 126.622 90.0994 126.014 89.778C125.442 89.4923 125.334 88.9923 125.334 86.8852C125.334 77.136 136.429 74.663 144.007 77.7782ZM113.709 91.0279C108.379 92.4922 104.981 94.885 102.656 98.8135C101.654 100.528 100.688 104.313 100.617 106.778L100.581 108.206L100.044 106.599C98.9712 103.242 100.187 98.5278 103.013 95.2064C105.589 92.2422 110.311 90.2065 114.603 90.2065H116.571L113.709 91.0279Z" fill="#222222"/>
<path d="M27.4647 78.7767C26.8566 79.4552 26.9639 79.5624 30.2549 82.9551C34.4759 87.2765 35.9783 89.3121 38.5538 94.2763C40.9504 98.8477 41.1293 99.0977 42.0236 99.0977C43.0609 99.0977 43.0967 98.5977 42.3097 95.9906C40.6285 90.6335 35.6563 82.5623 32.3296 79.8123C30.3622 78.1695 28.3948 77.741 27.4647 78.7767Z" fill="#222222"/>
<path d="M163.645 78.6007C162.894 79.1364 162.823 79.3864 163.001 81.1006C163.323 84.3149 167.044 90.1719 168.725 90.1719C170.692 90.1719 169.333 81.7078 166.972 79.2078C165.72 77.8864 164.897 77.7436 163.645 78.6007Z" fill="#222222"/>
<path d="M84.3407 79.2786C84.1977 79.5643 84.305 80.0643 84.5554 80.35C84.9846 80.85 84.7342 82.3142 84.2334 82.3142C84.0903 82.3142 83.6611 81.9928 83.3034 81.5999C82.8026 81.0285 82.588 80.9928 82.3376 81.3142C81.7652 82.2785 83.053 84.457 84.2334 84.457C85.8789 84.457 87.4528 80.35 86.2724 79.1714C85.6643 78.5643 84.5911 78.6357 84.3407 79.2786Z" fill="#222222"/>
<path d="M278.077 81.1357C276.61 81.6714 276.11 84.2428 277.29 85.2785C278.757 86.5999 281.296 85.4928 281.296 83.5642C281.296 82.5643 279.865 80.85 279.079 80.9214C278.828 80.9214 278.363 81.0286 278.077 81.1357ZM279.15 83.7428C279.15 83.9214 278.9 84.0999 278.578 84.0999C278.292 84.0999 278.148 83.9214 278.256 83.7428C278.363 83.5285 278.614 83.3857 278.828 83.3857C279.007 83.3857 279.15 83.5285 279.15 83.7428Z" fill="#222222"/>
<path d="M179.17 83.8484C177.346 84.9198 175.951 86.2055 174.484 88.134C171.73 91.8125 172.803 92.6339 177.238 90.3125C181.567 88.0269 183.641 85.3126 182.139 83.8127C181.603 83.277 180.1 83.277 179.17 83.8484Z" fill="#222222"/>
<path d="M267.739 100.563C264.019 103.349 260.871 106.492 258.045 110.242C253.609 116.17 250.819 123.42 252.465 124.777C253.109 125.313 253.252 125.063 255.326 120.92C258.617 114.242 261.121 111.063 268.669 104.028C271.495 101.421 272.318 100.099 271.853 98.9206C271.531 98.0277 270.779 98.3134 267.739 100.563Z" fill="#222222"/>
<path d="M237.727 103.1C237.477 103.35 237.298 103.814 237.298 104.171C237.298 104.528 237.119 104.814 236.904 104.814C236.69 104.814 236.582 104.493 236.69 104.1C236.833 103.6 236.69 103.385 236.225 103.385C234.579 103.385 234.329 105.743 235.938 106.528C237.906 107.457 240.052 105.493 239.158 103.564C238.693 102.564 238.371 102.457 237.727 103.1Z" fill="#222222"/>
<path d="M90.0641 117.85C89.7064 118.743 90.2072 119.457 91.173 119.457C92.103 119.457 92.6754 120.207 92.2461 120.886C92.103 121.136 91.6738 120.993 90.9941 120.529C89.9925 119.814 89.9568 119.814 89.7421 120.493C89.5275 121.243 90.0641 122.636 90.7795 123.1C91.638 123.707 93.1046 123.386 93.8201 122.457C95.5728 120.243 94.0347 117.315 91.1372 117.315C90.6722 117.315 90.1714 117.565 90.0641 117.85Z" fill="#222222"/>
<path d="M128.769 128.136L127.732 128.6L130.915 130.35C134.993 132.636 138.749 136.207 139.143 138.207C139.286 138.993 139.25 139.814 139.035 140.135C138.857 140.457 136.746 142.207 134.421 144.028C128.34 148.778 125.514 151.35 123.833 153.778L122.33 155.885L121.257 153.671C119.29 149.564 119.719 144.135 122.33 140.064C123.403 138.421 124.763 138.171 124.405 139.707C124.262 140.278 124.155 140.778 124.155 140.885C124.012 141.707 124.727 143.421 125.371 143.743C126.623 144.421 127.803 143.885 128.554 142.207C128.948 141.385 129.27 140.421 129.27 140.1C129.27 139.528 129.592 139.564 132.203 140.528C136.031 141.921 136.782 141.921 136.782 140.564C136.782 139.707 136.531 139.385 135.279 138.778C132.883 137.671 127.768 136.314 124.87 136.028C121.758 135.743 121.508 135.921 119.683 139.6C117.179 144.635 116.786 150.492 118.717 154.028C119.433 155.349 120.041 155.992 120.864 156.278C122.008 156.707 122.044 156.707 121.543 157.885C120.256 160.992 121.615 163.849 126.015 167.278C128.698 169.349 130.915 170.456 131.452 169.921C132.132 169.242 131.523 167.885 130.093 166.956C127.338 165.099 124.727 162.706 124.119 161.421C123.475 160.099 123.475 160.099 124.62 157.778C126.086 154.849 129.377 151.492 135.673 146.6C138.32 144.528 140.788 142.421 141.217 141.885C142.183 140.528 142.112 137.886 141.039 135.707C139.93 133.493 136.353 130.171 133.527 128.779C131.094 127.564 130.343 127.457 128.769 128.136Z" fill="#222222"/>
<path d="M73.8957 157.42C73.6096 157.742 74.2535 158.849 76.364 161.777C77.9379 163.956 79.5834 166.063 80.0126 166.492C80.8711 167.456 82.0516 167.563 82.0516 166.742C82.0516 165.527 78.546 159.313 77.0078 157.742C76.1493 156.885 74.5039 156.706 73.8957 157.42Z" fill="#222222"/>
<path d="M119.683 172.203C119.826 175.131 120.112 176.81 120.827 179.095C124.762 191.059 131.773 198.666 141.932 201.988C143.077 202.345 144.257 202.666 144.508 202.666C145.509 202.666 144.937 203.309 142.54 204.916C135.171 209.809 123.295 219.523 117.823 225.13C115.283 227.737 113.888 229.844 113.888 231.094C113.888 231.773 114.031 232.309 114.245 232.309C114.639 232.309 118.502 228.416 119.897 226.63C120.434 225.952 122.938 223.594 125.513 221.345C129.305 218.023 130.807 216.952 133.562 215.63C140.323 212.416 150.231 209.809 151.984 210.773C152.342 210.988 153.2 212.023 153.916 213.059C157.672 218.63 164.54 219.916 171.229 216.309C174.412 214.595 178.562 209.63 181.853 203.595C184.106 199.524 184.75 199.274 192.942 199.274C198.665 199.274 199.488 199.345 202.707 200.238C208.681 201.916 212.544 203.773 219.305 208.273C220.378 208.952 224.098 212.238 227.604 215.523C233.649 221.237 235.509 222.666 236.761 222.666C238.407 222.666 236.511 220.166 230.501 214.595C221.666 206.381 216.229 202.452 207.644 198.202C199.309 194.059 188.506 191.595 182.711 192.524C180.815 192.809 180.601 192.952 180.493 193.738C180.422 194.274 180.028 194.809 179.528 195.059L178.633 195.452L178.848 193.024C178.991 191.631 178.92 190.131 178.705 189.524C178.383 188.56 178.526 188.06 180.136 184.917C182.139 180.988 182.783 178.203 181.638 178.453C180.923 178.56 180.493 179.203 177.739 183.952C175.736 187.452 172.159 191.488 168.868 193.952C165.935 196.131 160.175 198.916 156.634 199.809C153.093 200.738 147.978 200.809 144.472 200.024C141.181 199.238 135.994 196.702 133.669 194.702C128.16 189.952 124.869 184.31 122.652 175.81C121.4 170.846 120.47 168.381 119.861 168.381C119.683 168.381 119.611 169.988 119.683 172.203Z" fill="#222222"/>
<path d="M146.94 178.096C146.01 179.346 144.937 180.274 143.792 180.846L142.039 181.739L141.073 180.596C139.392 178.596 137.389 179.489 138.391 181.81C139.428 184.274 142.898 184.881 145.759 183.096C147.584 181.917 149.945 179.31 150.231 178.132C150.481 177.167 149.837 176.239 148.943 176.239C148.621 176.239 147.691 177.096 146.94 178.096Z" fill="#222222"/>
<path d="M213.868 183.276C213.081 183.347 211.9 183.49 211.256 183.597C210.076 183.776 210.076 183.812 210.648 184.454C211.543 185.454 213.904 185.812 223.812 186.419C240.553 187.49 260.334 190.49 275.287 194.276C286.268 197.061 293.995 201.347 295.784 205.668C297.179 208.954 295.247 211.49 289.345 214.311C287.198 215.311 284.838 216.668 284.158 217.311L282.906 218.418L284.73 218.239C290.919 217.632 300.899 212.061 302.043 208.525C304.082 202.383 294.424 195.954 276.288 191.419C270.672 190.026 256.972 187.24 251.785 186.454C237.906 184.347 219.305 182.776 213.868 183.276Z" fill="#222222"/>
<path d="M106.018 186.846C102.727 187.096 91.7096 188.453 85.9862 189.31C77.7231 190.56 69.5315 192.382 61.8765 194.631C42.5243 200.31 32.0076 206.596 31.9719 212.453C31.9361 216.31 37.1587 220.667 45.0999 223.488C49.8216 225.202 55.9385 226.024 55.9385 225.024C55.9385 224.095 54.1857 223.095 50.6444 221.952C45.2429 220.202 41.0935 217.381 39.4838 214.345C38.7326 212.917 38.6611 212.595 39.0545 211.345C39.2692 210.595 40.0204 209.31 40.7 208.524C41.952 207.06 45.8153 204.238 48.8558 202.56C52.6833 200.453 67.886 195.631 77.0434 193.596C82.0156 192.524 93.9989 190.81 102.262 189.989C108.379 189.417 112.743 188.453 113.494 187.56C114.138 186.775 110.954 186.489 106.018 186.846Z" fill="#222222"/>
<path d="M263.482 211.241C263.017 211.456 262.481 212.063 262.302 212.634C262.051 213.384 261.622 213.777 260.871 213.92C260.299 214.063 259.548 214.527 259.261 214.991C258.796 215.67 258.474 215.813 257.652 215.634C256.471 215.42 254.826 215.741 254.826 216.241C254.826 216.42 255.684 217.134 256.722 217.777C260.37 220.098 262.195 223.098 263.447 228.741C264.734 234.526 264.234 234.491 261.479 228.562C259.154 223.598 257.58 221.491 255.684 220.884C254.611 220.527 254.289 220.527 253.86 220.991C253.466 221.384 253.395 221.705 253.681 222.17C254.718 224.027 249.46 230.241 245.883 231.419C242.914 232.419 242.914 231.634 245.883 229.277C248.888 226.884 250.211 224.705 249.532 223.205C248.959 221.92 248.172 222.098 247.35 223.634C246.992 224.384 245.811 225.777 244.774 226.777C241.161 230.241 240.875 230.562 240.875 231.598C240.875 235.419 247.85 234.598 252.179 230.277C253.073 229.348 254.289 227.777 254.897 226.705C256.328 224.17 256.292 224.134 259.583 231.241C261.73 235.919 263.768 237.526 265.772 236.098C266.344 235.669 266.451 235.169 266.416 232.598C266.38 227.634 264.09 221.312 261.193 218.17L259.726 216.598H261.515C264.269 216.598 265.378 217.563 267.596 221.777C269.206 224.884 270.064 227.241 271.137 231.741L271.388 232.812L270.136 232.026C268.562 231.062 267.846 231.027 267.346 231.955C266.845 232.884 267.346 233.812 268.92 234.776C270.887 236.026 272.747 235.741 273.606 234.098C274.071 233.169 274.214 233.134 275.144 233.455C276.646 234.026 278.077 233.562 278.542 232.312C278.864 231.455 279.186 231.241 279.973 231.241C280.581 231.241 281.332 230.884 281.904 230.312C283.371 228.848 282.942 226.384 280.223 221.027C278.005 216.598 276.467 214.705 274.786 214.313C273.284 213.955 273.57 215.098 275.609 217.67C277.469 219.991 280.724 228.384 279.794 228.384C279.687 228.384 279.329 227.634 278.971 226.705C278.077 224.42 274.428 218.063 272.21 214.92C271.173 213.455 269.814 212.027 269.098 211.634C267.703 210.848 264.985 210.67 263.482 211.241ZM268.383 214.313C269.671 215.384 272.246 219.455 273.749 222.741C274.929 225.348 276.467 230.455 276.145 230.777C275.644 231.277 274.965 230.419 274.357 228.562C272.354 222.241 267.775 215.741 264.448 214.563C262.91 213.991 262.767 213.884 263.482 213.67C265.414 213.134 267.274 213.384 268.383 214.313Z" fill="#222222"/>
<path d="M174.198 217.276C171.587 219.919 166.686 221.954 162.859 221.954C161.106 221.954 160.283 221.704 157.672 220.347C155.955 219.454 154.488 218.811 154.417 218.847C154.381 218.919 154.775 219.526 155.347 220.204C158.566 224.061 165.005 224.811 170.979 221.99C174.162 220.49 176.845 217.883 176.845 216.24C176.845 215.419 175.486 215.954 174.198 217.276Z" fill="#222222"/>
<path d="M64.1607 228.069C61.9448 230.826 57.4502 235.43 55.8823 233.343C57.9113 220.398 69.6237 213.616 76.0291 215.553C84.001 217.964 90.2225 226.513 90.2225 226.513C94.9622 229.459 102.912 235.486 96.7954 236.021C90.6786 236.557 86.2877 231.245 84.8568 228.522C78.0156 229.191 74.1255 240.709 69.5647 240.575C65.916 240.468 68.9387 234.548 70.9061 231.602L69.5647 230.129C67.329 233.298 62.4015 239.209 60.5772 237.495C58.804 235.828 62.1255 230.653 64.1607 228.069Z" fill="white"/>
<path d="M65.0246 217.241C61.376 219.884 55.3307 228.098 54.5079 231.562C53.8283 234.491 55.2949 236.276 57.5842 235.205C58.407 234.848 58.4427 234.884 58.4427 236.098C58.4427 237.491 59.7305 239.098 60.8394 239.098C62.0198 239.098 63.9515 237.669 66.7416 234.705L69.5318 231.776L68.566 233.919C68.0294 235.098 67.5286 236.955 67.4571 238.062C67.314 239.883 67.3855 240.133 68.2798 240.812C68.8164 241.241 69.496 241.598 69.7822 241.598C71.1772 241.598 72.93 240.241 75.1121 237.455C77.8664 233.919 80.0485 231.955 82.4809 230.741L84.3052 229.812L87.0954 232.705C90.5652 236.241 92.9261 237.491 95.8593 237.241C98.5064 237.026 99.7226 236.098 99.8657 234.205C99.973 232.526 99.0071 231.098 96.7893 229.741C96.0739 229.312 94.2854 228.098 92.8188 227.062C89.9571 224.991 89.027 224.741 88.7408 225.955C88.4547 227.027 89.5278 228.098 93.713 231.062C96.9682 233.384 97.7552 234.205 97.0397 234.669C96.4674 235.026 94.3927 234.919 93.0691 234.491C91.8172 234.062 87.31 229.812 86.5588 228.348C85.9149 227.027 84.4841 227.062 81.5509 228.526C78.9753 229.776 76.3641 232.205 72.4292 236.919C70.8553 238.812 69.6033 239.241 69.8179 237.848C70.0683 236.169 72.8585 231.169 74.504 229.491C76.1852 227.741 77.9022 226.991 82.0874 226.098C82.624 225.991 83.411 225.562 83.876 225.169C85.1637 224.098 84.2337 223.669 81.3005 223.884C77.0437 224.241 74.2536 225.634 72 228.455C71.2488 229.419 70.6049 229.991 70.6049 229.705C70.6049 229.026 69.6391 228.669 68.8879 229.062C68.566 229.241 66.9563 230.776 65.3823 232.455C62.4133 235.562 61.6621 236.062 61.6621 234.848C61.6621 233.098 68.3156 225.205 71.213 223.491C72.6439 222.669 73.0373 222.598 75.1478 222.777C76.8648 222.955 77.7591 222.884 78.5103 222.455C79.7623 221.812 79.7981 221.598 78.6534 220.527C77.9022 219.812 77.2583 219.634 75.1478 219.491C73.1804 219.384 72.7512 219.277 73.3951 219.062C73.8601 218.884 74.182 218.562 74.1105 218.312C73.8243 217.455 71.1415 216.42 68.8164 216.312C66.7059 216.205 66.3481 216.277 65.0246 217.241ZM70.7838 219.312C72.2861 219.527 72.4292 219.598 71.7496 219.848C69.9253 220.527 67.314 222.705 62.4133 227.669C58.7647 231.312 57.1907 232.669 57.0834 232.241C56.6542 230.205 64.5238 220.098 67.3855 218.991C67.6717 218.884 68.1725 218.848 68.4586 218.92C68.7448 218.991 69.7822 219.17 70.7838 219.312Z" fill="#222222"/>
<path d="M228.713 228.596C215.012 231.417 203.458 232.953 185.787 234.238C160.962 236.06 131.308 235.774 113.351 233.56C108.164 232.917 105.588 232.881 103.192 233.453C100.116 234.167 101.046 234.81 106.34 235.703C115.426 237.238 150.267 239.131 159.138 238.56C160.712 238.488 165.076 238.31 168.796 238.203C198.522 237.31 229.464 233.274 239.194 228.953C241.984 227.739 241.912 227.346 238.657 226.81C238.192 226.739 233.721 227.56 228.713 228.596Z" fill="#222222"/>
</svg>
