<svg width="83" height="84" viewBox="0 0 83 84" fill="none" xmlns="http://www.w3.org/2000/svg">
<g filter="url(#filter0_d_8510_2694)">
<rect y="0.5" width="80" height="80" rx="40" fill="white"/>
<path d="M19.7296 29.8511C31.5835 27.8095 38.9308 19.0215 39.6636 17.8746C41.3609 15.2181 43.4472 15.7549 45.3147 18.1069C49.6924 23.1841 55.4616 23.0908 58.7997 23.0908C62.1378 23.0908 60.5248 28.3505 59.4649 32.1024C58.2975 36.2348 58.0069 47.2957 57.1468 52.3334C56.2868 57.371 51.1115 62.5565 47.6369 65.1619C46.6678 65.8886 46.2784 65.7605 45.089 65.4769C41.7608 64.6832 35.7271 62.8729 31.6248 59.2972C27.6971 55.8736 21.552 40.9516 18.9704 33.9185C17.7243 30.856 18.7697 30.0165 19.7296 29.8511Z" fill="#FABD05"/>
<path fill-rule="evenodd" clip-rule="evenodd" d="M45.9256 17.5972C44.95 16.3727 43.787 15.4444 42.4951 15.3161C41.1083 15.1783 39.9115 15.9793 38.9745 17.4451C38.9305 17.5139 38.7463 17.7403 38.3793 18.1249C38.0306 18.4903 37.5551 18.9594 36.9718 19.4981C35.8053 20.5755 34.2202 21.9198 32.3754 23.2602C28.6598 25.9599 23.9979 28.5644 19.6232 29.054L19.5996 29.0567L19.5761 29.0607C18.8391 29.1876 18.0767 29.6785 17.7551 30.6681C17.4528 31.5983 17.5829 32.8413 18.2322 34.4414C19.5303 37.975 21.7117 43.42 24.0641 48.4181C25.2416 50.9198 26.4674 53.3213 27.6516 55.3195C28.8232 57.2965 29.9964 58.9531 31.0825 59.8993C35.3435 63.6118 41.5464 65.4566 44.8929 66.2544C44.9432 66.2663 44.9935 66.2785 45.0438 66.2906C45.53 66.4081 46.0181 66.526 46.488 66.4961C47.0789 66.4585 47.5693 66.207 48.1117 65.8005C49.8938 64.4648 52.1063 62.4731 53.9896 60.1638C55.8629 57.8669 57.4704 55.1829 57.9344 52.4664C58.3056 50.2932 58.5714 47.0317 58.8411 43.7231C58.8894 43.1297 58.9379 42.5348 58.9872 41.9444C59.316 38.002 59.6764 34.2951 60.2344 32.3209C60.2729 32.1845 60.3125 32.0453 60.3527 31.9036C60.8545 30.1372 61.4637 27.9924 61.5799 26.244C61.6421 25.3075 61.5761 24.3441 61.1626 23.588C60.9469 23.1937 60.6366 22.8562 60.2153 22.6233C59.7984 22.3929 59.3178 22.2895 58.7947 22.2895C58.7495 22.2895 58.704 22.2895 58.6581 22.2895C55.2933 22.2904 49.984 22.2918 45.9256 17.5972ZM42.3357 16.9141C41.7876 16.8596 41.092 17.1184 40.3311 18.3088C40.1918 18.5267 39.9023 18.8574 39.5445 19.2323C39.1685 19.6264 38.6683 20.1193 38.0648 20.6767C36.8576 21.7917 35.224 23.1769 33.3224 24.5585C29.5526 27.2976 24.6228 30.1017 19.8303 30.6468C19.6135 30.6892 19.3973 30.82 19.2857 31.1635C19.1523 31.5741 19.1357 32.3943 19.7283 33.85L19.7335 33.8629L19.7383 33.8759C21.0232 37.3749 23.1893 42.7823 25.5205 47.7354C26.6864 50.2124 27.888 52.564 29.0365 54.502C30.1977 56.4613 31.2624 57.9243 32.1407 58.6896C36.0868 62.1277 41.955 63.903 45.2668 64.6924C45.9207 64.8483 46.1696 64.9072 46.3857 64.8934C46.5292 64.8843 46.7183 64.8365 47.1454 64.5164C48.8389 63.2471 50.9526 61.3438 52.7417 59.1501C54.5408 56.9441 55.9519 54.5171 56.3482 52.1966C56.7063 50.1 56.9651 46.9278 57.2357 43.6112C57.2844 43.0141 57.3335 42.4123 57.3836 41.8112C57.7072 37.9316 58.0759 34.0428 58.6857 31.885C58.7208 31.7607 58.7563 31.6355 58.7921 31.5094C59.3071 29.693 59.87 27.7076 59.9743 26.1378C60.0306 25.2905 59.9402 24.7047 59.7502 24.3575C59.6642 24.2001 59.561 24.0975 59.4356 24.0281C59.3057 23.9563 59.1063 23.8954 58.7947 23.8954C58.7249 23.8954 58.6538 23.8954 58.5816 23.8955C55.2181 23.898 49.2412 23.9025 44.6959 18.633L44.6853 18.6207L44.6751 18.608C43.7849 17.4872 42.974 16.9775 42.3357 16.9141Z" fill="#222222"/>
<path fill-rule="evenodd" clip-rule="evenodd" d="M36.5134 32.8898C38.5785 31.303 41.1419 30.5 43.1794 30.5C46.5058 30.5 48.7311 32.6987 49.4582 33.8409C49.7 34.2208 49.5915 34.727 49.2159 34.9716C48.8403 35.2162 48.3398 35.1065 48.098 34.7266C47.5666 33.8917 45.7905 32.1362 43.1794 32.1362C41.506 32.1362 39.2842 32.8155 37.492 34.1927C35.7202 35.5541 34.418 37.5533 34.418 40.2093C34.418 45.6407 38.7644 49.6638 44.1559 49.6638C46.7574 49.6638 48.3922 48.472 49.4144 46.972C50.4627 45.4338 50.8697 43.5561 50.8994 42.297C50.91 41.8453 51.2806 41.4879 51.7272 41.4986C52.1738 41.5094 52.5272 41.8843 52.5166 42.336C52.4811 43.8426 52.0092 46.0476 50.7463 47.9006C49.4574 49.792 47.3486 51.3 44.1559 51.3C37.9589 51.3 32.8003 46.6308 32.8003 40.2093C32.8003 36.9387 34.4278 34.4924 36.5134 32.8898ZM55.106 32.4595C55.3151 32.8588 55.1647 33.3539 54.7699 33.5654C51.083 35.5409 49.0055 38.6261 47.7384 41.1519C47.2615 42.1025 46.91 42.9498 46.6208 43.6468C46.5226 43.8837 46.4315 44.1033 46.3451 44.3036C46.1914 44.6603 46.0185 45.0408 45.8235 45.2919C45.7376 45.4025 45.5271 45.6517 45.1753 45.7227C44.7207 45.8143 44.3956 45.5587 44.2402 45.372C43.7437 44.7757 42.7521 43.8008 41.8527 42.9482C41.4095 42.5281 40.9989 42.1472 40.6991 41.8714C40.5492 41.7335 40.4272 41.622 40.3428 41.5451L40.2456 41.4568L40.2128 41.427C39.8796 41.126 39.8504 40.6084 40.148 40.2715C40.4457 39.9345 40.957 39.9054 41.2901 40.2064L40.7512 40.8165C41.2901 40.2064 41.2901 40.2064 41.2901 40.2064L41.3257 40.2387L41.4253 40.3293C41.5115 40.4078 41.6355 40.5211 41.7876 40.661C42.0916 40.9407 42.5083 41.3272 42.9589 41.7544C43.5866 42.3493 44.3011 43.0428 44.8668 43.6393C44.9399 43.4692 45.0215 43.2726 45.1121 43.054C45.4035 42.3513 45.7893 41.421 46.2958 40.4115C47.6413 37.7295 49.9152 34.3151 54.0127 32.1195C54.4074 31.908 54.8969 32.0602 55.106 32.4595Z" fill="#222222"/>
<path fill-rule="evenodd" clip-rule="evenodd" d="M40.9595 19.0853C41.3358 19.3208 41.1862 19.6415 40.9595 20.0283C39.0278 23.326 33.1557 29.8757 22.0001 32.5C21.5723 32.6006 20.7449 32.7996 20.6453 32.358C20.5457 31.9164 20.8117 31.4769 21.2394 31.3762C31.953 28.8559 38.1875 22.9692 39.9102 20.0283C40.1368 19.6415 40.5833 18.8498 40.9595 19.0853Z" fill="#222222"/>
<path fill-rule="evenodd" clip-rule="evenodd" d="M44 19.6875C43.6956 20.0074 44.0865 20.5685 44.4003 20.8864C46.1751 22.6843 50.9777 25.8342 58.3998 25.7C58.8368 25.6921 59.0387 25.7189 59.0258 25.2679C59.0128 24.817 58.6947 24.8003 58.2577 24.8082C51.1999 25.3 46.2854 22.0046 44.8002 20.4999C44.4863 20.182 44.3044 19.3676 44 19.6875Z" fill="#222222"/>
<rect x="1" y="1.5" width="78" height="78" rx="39" stroke="#222222" stroke-width="2"/>
</g>
<defs>
<filter id="filter0_d_8510_2694" x="0" y="0.5" width="83" height="83" filterUnits="userSpaceOnUse" color-interpolation-filters="sRGB">
<feFlood flood-opacity="0" result="BackgroundImageFix"/>
<feColorMatrix in="SourceAlpha" type="matrix" values="0 0 0 0 0 0 0 0 0 0 0 0 0 0 0 0 0 0 127 0" result="hardAlpha"/>
<feOffset dx="3" dy="3"/>
<feComposite in2="hardAlpha" operator="out"/>
<feColorMatrix type="matrix" values="0 0 0 0 0.133333 0 0 0 0 0.133333 0 0 0 0 0.133333 0 0 0 1 0"/>
<feBlend mode="normal" in2="BackgroundImageFix" result="effect1_dropShadow_8510_2694"/>
<feBlend mode="normal" in="SourceGraphic" in2="effect1_dropShadow_8510_2694" result="shape"/>
</filter>
</defs>
</svg>
