<svg width="83" height="84" viewBox="0 0 83 84" fill="none" xmlns="http://www.w3.org/2000/svg">
<g filter="url(#filter0_d_8510_2697)">
<rect y="0.5" width="80" height="80" rx="40" fill="white"/>
<path d="M14.6104 30.4334C14.6104 29.7252 15.2301 29.3711 15.8498 29.3711C16.2629 29.3711 17.0892 29.5836 17.0892 30.4334C17.0892 31.4958 16.1596 31.8499 15.5399 31.8499C14.9202 31.8499 14.6104 31.1417 14.6104 30.4334Z" fill="#222222"/>
<path d="M49.314 15.9165C49.314 14.9722 50.3468 14.5 51.3797 14.5C52.0682 14.5 53.4453 14.7833 53.4453 15.9165C53.4453 17.3329 51.8961 17.8051 50.8632 17.8051C49.8304 17.8051 49.314 16.8608 49.314 15.9165Z" fill="#222222"/>
<path d="M56.7505 22.8816C56.7505 23.3538 57.1636 23.5898 57.5768 23.5898C57.8522 23.5898 58.403 23.4482 58.403 22.8816C58.403 22.1734 57.7833 21.9373 57.3702 21.9373C56.9571 21.9373 56.7505 22.4095 56.7505 22.8816Z" fill="#222222"/>
<path d="M31.5051 20.6323L40.9921 18.9595L42.5138 24.4545C43.4209 24.5817 44.3099 24.7802 45.1738 25.045L48.8759 20.7071L56.767 26.2326L53.958 31.1932C54.5056 31.9181 54.9989 32.69 55.4307 33.5037L61.1099 33.0546L62.7827 42.5416L57.2875 44.0634C57.1598 44.9712 56.9607 45.8609 56.6952 46.7253L61.0358 50.4298L55.5104 58.321L50.5406 55.5068C49.8206 56.0499 49.0543 56.5394 48.2469 56.9684L48.6963 62.6525L39.2094 64.3253L37.6877 58.8303C36.7783 58.7028 35.8872 58.5037 35.0213 58.2379L31.3191 62.5759L23.428 57.0505L26.2392 52.086C25.6966 51.3671 25.2075 50.6021 24.7787 49.796L19.0897 50.2459L17.4169 40.7589L22.9118 39.2372C23.0387 38.3286 23.2372 37.4381 23.5022 36.5729L19.1671 32.8731L24.6925 24.9819L29.6478 27.7879C30.3716 27.2409 31.1422 26.748 31.9546 26.3164L31.5051 20.6323Z" fill="#FABD05"/>
<path fill-rule="evenodd" clip-rule="evenodd" d="M42.5138 24.4545L40.9921 18.9595L31.5051 20.6323L31.9546 26.3164C31.1422 26.748 30.3716 27.2409 29.6478 27.7879L24.6925 24.9819L19.1671 32.8731L23.5022 36.5729C23.2372 37.4381 23.0387 38.3286 22.9118 39.2372L17.4169 40.7589L19.0897 50.2459L24.7787 49.796C25.2075 50.6021 25.6966 51.3671 26.2392 52.086L23.428 57.0505L31.3191 62.5759L35.0213 58.2379C35.8872 58.5037 36.7783 58.7028 37.6877 58.8303L39.2094 64.3253L48.6963 62.6525L48.2469 56.9684C49.0543 56.5394 49.8206 56.0499 50.5406 55.5068L55.5104 58.321L61.0358 50.4298L56.6952 46.7253C56.9607 45.8609 57.1598 44.9712 57.2875 44.0634L62.7827 42.5416L61.1099 33.0546L55.4307 33.5037C54.9989 32.69 54.5056 31.9181 53.958 31.1932L56.767 26.2326L48.8759 20.7071L45.1738 25.045C44.3099 24.7802 43.4209 24.5817 42.5138 24.4545ZM49.1581 22.9221L45.7266 26.9429L44.6895 26.6249C43.9082 26.3855 43.1044 26.206 42.2844 26.0911L41.2106 25.9406L39.8002 20.8477L33.2709 21.999L33.6875 27.2671L32.7299 27.7758C31.9956 28.1659 31.2988 28.6116 30.6441 29.1063L29.7781 29.7608L25.1849 27.1599L21.382 32.5909L25.3999 36.0199L25.0823 37.0569C24.8426 37.8394 24.6632 38.6445 24.5484 39.4659L24.3983 40.5403L19.3051 41.9507L20.4564 48.4801L25.7288 48.0632L26.2377 49.02C26.6253 49.7487 27.0675 50.4403 27.5582 51.0905L28.2117 51.9564L25.6059 56.5581L31.0369 60.3609L34.4688 56.3397L35.5063 56.6581C36.2893 56.8985 37.0951 57.0785 37.9171 57.1937L38.9909 57.3443L40.4012 62.4371L46.9306 61.2858L46.514 56.0177L47.4716 55.509C48.2015 55.1213 48.8943 54.6786 49.5455 54.1874L50.4113 53.5344L55.018 56.1431L58.8208 50.712L54.7967 47.2777L55.1155 46.2401C55.3556 45.4583 55.5356 44.6538 55.6511 43.8332L55.802 42.76L60.8945 41.3497L59.7432 34.8204L54.4794 35.2366L53.9709 34.2783C53.5806 33.5428 53.1346 32.8449 52.6394 32.1892L51.9853 31.3232L54.5891 26.725L49.1581 22.9221Z" fill="#222222"/>
<path fill-rule="evenodd" clip-rule="evenodd" d="M40.9709 45.8667C43.2465 45.4655 44.766 43.2954 44.3647 41.0198C43.9635 38.7442 41.7934 37.2248 39.5178 37.626C37.2422 38.0273 35.7228 40.1973 36.124 42.4729C36.5253 44.7485 38.6953 46.268 40.9709 45.8667ZM41.2487 47.4424C44.3946 46.8877 46.4951 43.8878 45.9404 40.742C45.3857 37.5962 42.3858 35.4956 39.24 36.0503C36.0942 36.605 33.9936 39.6049 34.5483 42.7507C35.103 45.8966 38.1029 47.9971 41.2487 47.4424Z" fill="#222222"/>
<path fill-rule="evenodd" clip-rule="evenodd" d="M43.579 45.2321C45.2588 44.5176 45.8241 42.0662 44.8418 39.7565C43.8595 37.4469 41.7015 36.1537 40.0218 36.8681C39.9596 36.8945 39.899 36.9233 39.8399 36.9544C40.7076 37.0465 41.4342 37.6176 41.6074 38.4323C41.829 39.4749 41.0602 40.5218 39.8902 40.7705C39.3157 40.8926 38.7513 40.7996 38.2993 40.5498C38.3534 41.1354 38.5041 41.7443 38.7589 42.3436C39.7413 44.6533 41.8993 45.9465 43.579 45.2321Z" fill="#222222"/>
<rect x="1" y="1.5" width="78" height="78" rx="39" stroke="#222222" stroke-width="2"/>
</g>
<defs>
<filter id="filter0_d_8510_2697" x="0" y="0.5" width="83" height="83" filterUnits="userSpaceOnUse" color-interpolation-filters="sRGB">
<feFlood flood-opacity="0" result="BackgroundImageFix"/>
<feColorMatrix in="SourceAlpha" type="matrix" values="0 0 0 0 0 0 0 0 0 0 0 0 0 0 0 0 0 0 127 0" result="hardAlpha"/>
<feOffset dx="3" dy="3"/>
<feComposite in2="hardAlpha" operator="out"/>
<feColorMatrix type="matrix" values="0 0 0 0 0.133333 0 0 0 0 0.133333 0 0 0 0 0.133333 0 0 0 1 0"/>
<feBlend mode="normal" in2="BackgroundImageFix" result="effect1_dropShadow_8510_2697"/>
<feBlend mode="normal" in="SourceGraphic" in2="effect1_dropShadow_8510_2697" result="shape"/>
</filter>
</defs>
</svg>
