<svg width="83" height="84" viewBox="0 0 83 84" fill="none" xmlns="http://www.w3.org/2000/svg">
<g filter="url(#filter0_d_8510_2691)">
<rect y="0.5" width="80" height="80" rx="40" fill="white"/>
<path fill-rule="evenodd" clip-rule="evenodd" d="M45.3038 18.4728C45.3726 18.1627 45.2119 17.842 44.906 17.7561C43.7025 17.4183 42.3506 17.614 41.2632 18.4259L37.8225 20.9949C36.7896 21.7661 35.4448 22.0158 34.1939 21.6685L30.0038 20.5052C27.5726 19.8302 25.099 21.432 24.7872 23.8832L24.277 27.8929C24.1133 29.1795 23.3264 30.3104 22.1624 30.9316L18.5138 32.8789C16.2734 34.0746 15.6728 36.9536 17.2548 38.9133L19.8312 42.1049C20.6531 43.1231 20.924 44.4653 20.5592 45.7118L19.4223 49.5961C18.7272 51.9708 20.3611 54.3936 22.868 54.7057L27.1886 55.2435C28.4784 55.4041 29.6156 56.1499 30.2569 57.2558L32.3929 60.9395C32.9317 61.8685 33.7827 62.5013 34.7359 62.7958C35.1245 62.9158 35.5047 62.6443 35.5928 62.2472C35.6962 61.7812 35.3513 61.3382 34.9182 61.1376C34.4761 60.9329 34.0902 60.5975 33.8277 60.1449L31.6917 56.4612C30.7938 54.9129 29.2019 53.8688 27.3962 53.644L23.0755 53.1062C21.5714 52.9189 20.591 51.4653 21.0081 50.0405L22.145 46.1561C22.6558 44.411 22.2765 42.5319 21.1258 41.1064L18.5494 37.9149C17.6002 36.739 17.9606 35.0116 19.3048 34.2942L22.9534 32.3469C24.583 31.4772 25.6846 29.8941 25.9138 28.0927L26.424 24.0831C26.6111 22.6123 28.0952 21.6513 29.5539 22.0562L33.7441 23.2196C35.4953 23.7058 37.378 23.3562 38.8242 22.2765L42.2648 19.7075C42.7852 19.3189 43.4067 19.1656 44.0033 19.2223C44.5529 19.2746 45.1842 19.0117 45.3038 18.4728Z" fill="#222222"/>
<path d="M42.1695 18.9285C44.08 17.4335 46.8708 17.9696 48.0914 20.0661L50.205 23.6965C50.8395 24.7864 51.9509 25.5132 53.2038 25.6576L57.4008 26.1414C59.836 26.422 61.4482 28.8071 60.8008 31.1714L59.742 35.0387C59.4022 36.2797 59.6802 37.6084 60.4889 38.6092L63.024 41.7461C64.5807 43.6724 64.0306 46.536 61.871 47.7483L58.354 49.7227C57.232 50.3525 56.4815 51.4837 56.3372 52.7623L55.8878 56.7466C55.613 59.1825 53.2318 60.8004 50.866 60.1588L46.7885 59.0529C45.5713 58.7228 44.2697 58.9861 43.2764 59.7633L39.9682 62.3521C38.0576 63.8471 35.2668 63.311 34.0463 61.2145L31.9327 57.5842C31.2981 56.4942 30.1867 55.7674 28.9339 55.623L24.7369 55.1393C22.3017 54.8586 20.6895 52.4736 21.3368 50.1093L22.3957 46.242C22.7355 45.001 22.4575 43.6722 21.6488 42.6715L19.1137 39.5345C17.557 37.6083 18.1071 34.7447 20.2667 33.5323L23.7837 31.558C24.9057 30.9282 25.6562 29.797 25.8004 28.5184L26.2499 24.534C26.5247 22.0982 28.9059 20.4803 31.2717 21.1219L35.3492 22.2277C36.5664 22.5578 37.868 22.2946 38.8612 21.5173L42.1695 18.9285Z" fill="#FABD05"/>
<path fill-rule="evenodd" clip-rule="evenodd" d="M48.8223 24.5054L46.7087 20.8751C45.9763 19.6172 44.3019 19.2955 43.1556 20.1925L39.8473 22.7813C38.4567 23.8694 36.6345 24.238 34.9304 23.7758L30.8529 22.67C29.4334 22.285 28.0047 23.2558 27.8398 24.7173L27.3904 28.7017C27.1884 30.4917 26.1377 32.0753 24.5669 32.9571L21.0499 34.9314C19.7541 35.6588 19.4241 37.377 20.3581 38.5328L22.8932 41.6697C24.0255 43.0708 24.4146 44.931 23.9389 46.6684L22.88 50.5357C22.4916 51.9543 23.459 53.3853 24.9201 53.5537L29.117 54.0375C30.8711 54.2396 32.4271 55.2572 33.3154 56.7831L35.429 60.4134C36.1614 61.6713 37.8358 61.993 38.9821 61.096L42.2904 58.5072C43.6809 57.4191 45.5032 57.0505 47.2073 57.5126L51.2848 58.6185C52.7043 59.0034 54.133 58.0327 54.2978 56.5712L54.7473 52.5868C54.9493 50.7968 56 49.2132 57.5708 48.3314L61.0878 46.357C62.3835 45.6296 62.7136 43.9115 61.7796 42.7557L59.2445 39.6188C58.1122 38.2177 57.7231 36.3575 58.1988 34.6201L59.2576 30.7528C59.646 29.3342 58.6787 27.9031 57.2176 27.7348L53.0206 27.251C51.2666 27.0489 49.7106 26.0313 48.8223 24.5054ZM48.0914 20.0701C46.8708 17.9735 44.08 17.4374 42.1695 18.9324L38.8612 21.5212C37.868 22.2985 36.5664 22.5617 35.3492 22.2316L31.2717 21.1258C28.9059 20.4842 26.5247 22.1021 26.2499 24.5379L25.8004 28.5223C25.6562 29.8009 24.9057 30.9321 23.7837 31.5619L20.2667 33.5362C18.1071 34.7486 17.557 37.6122 19.1137 39.5384L21.6488 42.6754C22.4575 43.6762 22.7355 45.0049 22.3957 46.2459L21.3368 50.1132C20.6895 52.4775 22.3017 54.8625 24.7369 55.1432L28.9339 55.6269C30.1867 55.7713 31.2981 56.4982 31.9327 57.5881L34.0463 61.2184C35.2668 63.3149 38.0576 63.8511 39.9682 62.356L43.2764 59.7672C44.2697 58.99 45.5713 58.7267 46.7885 59.0569L50.866 60.1627C53.2318 60.8043 55.613 59.1864 55.8878 56.7505L56.3372 52.7662C56.4815 51.4876 57.232 50.3564 58.354 49.7266L61.871 47.7522C64.0306 46.5399 64.5807 43.6763 63.024 41.75L60.4889 38.6131C59.6802 37.6123 59.4022 36.2836 59.742 35.0426L60.8008 31.1753C61.4482 28.811 59.836 26.4259 57.4008 26.1453L53.2038 25.6616C51.9509 25.5172 50.8395 24.7903 50.205 23.7004L48.0914 20.0701Z" fill="#222222"/>
<path fill-rule="evenodd" clip-rule="evenodd" d="M45.1714 41.6783C44.7171 42.9827 44.342 44.3241 43.7611 45.6827C43.5478 46.1774 43.3509 46.701 42.954 47.209C42.8549 47.321 42.7549 47.433 42.6451 47.5401C42.506 47.6432 42.3971 47.7547 42.2234 47.8339C41.9043 48.017 41.4763 48.061 41.1345 47.9894C40.7523 47.9134 40.4869 47.7187 40.2754 47.5507C40.0634 47.3747 39.8936 47.1916 39.7318 47.0076C39.1038 46.2685 38.6291 45.5041 38.1283 44.7543C37.6896 44.0885 37.2256 43.4427 36.7371 42.8441C36.4291 42.4565 36.0976 42.0921 35.7589 41.7654C35.422 41.4432 35.0629 41.1472 34.7305 41.0481C34.5505 41.0067 34.4456 40.7627 34.7749 40.5139C34.9354 40.4081 35.2274 40.3339 35.526 40.3819C35.8278 40.4227 36.1527 40.5539 36.4087 40.7645C37.3211 41.5116 37.962 42.3632 38.5696 43.2232C39.1749 44.0779 39.7229 44.9587 40.2967 45.765C40.4678 46.0059 40.6558 46.2307 40.8505 46.4152C41.0398 46.5961 41.262 46.7432 41.3478 46.7339C41.4905 46.7525 41.5425 46.7361 41.6927 46.5961C41.8287 46.4543 41.9763 46.2459 42.0971 45.9876C42.378 45.4396 42.5927 44.7823 42.7989 44.129L43.4163 42.1263C43.6691 41.2961 43.9349 40.4627 44.2216 39.633C44.654 38.3756 45.1887 37.1361 45.8243 35.949C46.3185 35.0294 46.8367 34.1041 47.5847 33.3019C47.7451 33.1232 47.9163 32.9561 48.0976 32.7912C48.8127 32.221 49.1616 32.2067 49.5176 32.505C49.6003 32.5739 49.6923 32.6374 49.7567 32.7165C49.9749 32.9943 49.8105 33.3792 49.4283 33.7507C48.8571 34.3134 48.3598 34.941 47.9051 35.637C47.4425 36.3254 47.0243 37.0836 46.6514 37.8876C46.0976 39.0823 45.6269 40.3663 45.2091 41.6876L45.1714 41.6783Z" fill="#222222"/>
<path fill-rule="evenodd" clip-rule="evenodd" d="M54.326 23.1465C53.5535 23.1801 52.6647 23.2496 52.156 22.5435C51.3257 21.3239 51.775 19.6781 51.3106 18.333C51.2741 18.2154 51.3876 18.1156 51.569 18.1247C52.64 18.134 52.4782 20.6102 52.5708 21.2597C52.7926 22.6904 54.9403 22.1353 55.8825 22.2205C56.5266 22.2734 59.2636 22.4804 59.1847 23.5473C59.1645 23.8024 58.998 23.8925 58.7307 23.8428C57.2634 23.531 55.8165 23.0633 54.326 23.1465Z" fill="#222222"/>
<path fill-rule="evenodd" clip-rule="evenodd" d="M26.8086 57.2388C27.4739 57.5176 27.9676 57.7952 28.3233 58.2957C29.0725 59.2766 29.3305 60.4863 29.6498 61.6548C29.7571 62.0331 29.9252 62.5992 29.8656 62.9088C29.8059 63.2184 29.1985 62.9372 29.0493 62.5055C28.5697 61.0353 28.4969 58.8292 26.8198 58.1734C25.545 57.6523 24.426 57.9603 23.1476 58.1393C22.8245 58.1841 22.7096 58.1418 22.6219 57.9768C22.5005 57.7557 22.6161 57.6129 22.8549 57.527C24.2151 56.9857 25.3808 56.6405 26.8086 57.2388Z" fill="#222222"/>
<rect x="1" y="1.5" width="78" height="78" rx="39" stroke="#222222" stroke-width="2"/>
</g>
<defs>
<filter id="filter0_d_8510_2691" x="0" y="0.5" width="83" height="83" filterUnits="userSpaceOnUse" color-interpolation-filters="sRGB">
<feFlood flood-opacity="0" result="BackgroundImageFix"/>
<feColorMatrix in="SourceAlpha" type="matrix" values="0 0 0 0 0 0 0 0 0 0 0 0 0 0 0 0 0 0 127 0" result="hardAlpha"/>
<feOffset dx="3" dy="3"/>
<feComposite in2="hardAlpha" operator="out"/>
<feColorMatrix type="matrix" values="0 0 0 0 0.133333 0 0 0 0 0.133333 0 0 0 0 0.133333 0 0 0 1 0"/>
<feBlend mode="normal" in2="BackgroundImageFix" result="effect1_dropShadow_8510_2691"/>
<feBlend mode="normal" in="SourceGraphic" in2="effect1_dropShadow_8510_2691" result="shape"/>
</filter>
</defs>
</svg>
