<svg width="330" height="295" viewBox="0 0 330 295" fill="none" xmlns="http://www.w3.org/2000/svg">
<rect width="330" height="294" transform="translate(0 0.5)" fill="white"/>
<path d="M238.036 155.009C242.244 163.735 243.697 166.11 244.36 171.127C245.022 176.144 239.233 193.014 239.233 195.875C239.233 199.451 244.254 208.153 255.911 213.935C257.665 225.697 259.893 252.809 254.776 267.161L301.465 266.625C302.003 263.049 303.102 252.809 299.371 240.459L294.29 219.121C299.072 214.034 308.637 201.43 308.637 191.703C308.637 179.543 293.393 163.212 286.578 158.026C279.764 152.841 270.079 144.258 257.765 140.622C255.233 131.197 247.529 127.936 243.993 127.484C236.562 128.319 228.289 137.231 227.909 141.356C231.393 145.141 235.555 149.865 238.036 155.009Z" fill="white"/>
<path d="M244.955 171.938C243.658 165.473 237.93 154.312 235.228 149.539C243.75 140.487 253.292 138.686 256.998 138.917C257.306 139.533 258.156 140.857 259.082 141.226C260.24 141.688 308.412 164.087 308.412 191.566C308.412 201.542 298.068 215.12 292.895 220.662L290.579 209.116C283.168 215.766 264.486 214.966 256.071 213.734C245.649 208.192 239.165 199.417 239.165 196.184C239.165 193.598 243.025 178.943 244.955 171.938Z" fill="#B1E0DF"/>
<path d="M238.275 65.4303C240.364 55.8724 244.666 51.6445 255.358 51.6445C266.759 51.6445 270.077 64.894 270.311 71.5188C269.518 74.8345 268.721 82.1771 271.871 85.0222C275.81 88.5785 278.039 92.2089 277.742 96.358C277.444 100.507 274.546 104.656 266.744 105.172C252.239 105.172 245.343 86.5031 243.708 77.1686L242.148 79.3172C242.148 79.3172 244.915 86.7374 244.61 93.8389C244.306 100.94 243.425 107.672 240.081 109.524C237.406 111.006 232.594 109.547 231.504 108.312C233.845 120.994 229.839 130.819 221.831 135.899C213.498 141.187 203.346 136.099 198.842 127.382C197.856 128.58 194.899 129.712 193.443 128.019C192.279 126.664 193.281 122.536 193.927 120.641C192.91 118.657 192.196 116.902 191.8 115.702C188.944 112.096 187.925 107.18 187.773 105.172C177.706 109.036 168.487 101.802 168.487 89.8375C168.487 77.8726 181.025 72.4677 186.488 71.5188C190.857 70.7596 199.702 73.3204 203.578 74.6957C204.447 68.837 212.805 62.3594 221.081 62.3594C227.702 62.3594 231.013 64.1473 231.84 65.0412L238.275 65.4303Z" fill="white"/>
<path d="M158.522 134.79C159.7 136.721 161.006 137.52 161.512 137.677C162.31 137.677 163.027 137.061 163.286 136.753C164.328 135.411 167.584 132.715 172.273 132.663C178.134 132.598 185.428 135.844 186.405 147.207C187.186 156.297 183.179 162.042 181.078 163.778C181.841 164.004 183.369 165.313 183.369 168.739C183.369 174.306 177.951 175.508 175.242 175.413C173.752 183.693 169.347 190.096 167.331 192.263L175.242 194.517C189.816 200.863 194.963 207.347 204.193 228.304C211.577 245.07 213.096 261.072 212.932 266.977H105.211C105.918 259.85 109.833 252.846 111.703 250.235V208.818L129.665 207.347C131.748 204.682 142.05 197.223 146.941 193.827V193.143C139.005 186.176 135.628 171.72 134.932 165.363C133.223 165.666 130.36 165.016 129.141 164.653C118.652 164.653 115.756 151.07 120.408 148.042C125.018 145.04 128.276 139.76 129.812 137.271L129.853 137.204C131.372 134.743 136.404 127.266 144.473 127.266C152.542 127.266 157.051 132.377 158.522 134.79Z" fill="white"/>
<path d="M129.665 207.349C131.748 204.684 142.05 197.226 146.941 193.829C156.548 201.735 164.537 196.081 167.331 192.266L175.242 194.519C189.816 200.865 194.963 207.349 204.193 228.306C211.577 245.072 213.096 261.074 212.932 266.98H105.211C105.918 259.852 109.833 252.848 111.703 250.238V208.82L129.665 207.349Z" fill="#B1E0DF"/>
<path d="M97.8504 130.315L99.1834 121.244L95.0703 98.6721C93.5099 91.3623 90.1155 79.1981 89.021 89.0196C87.9265 98.8412 90.3216 109.313 91.656 113.321C90.9263 116.15 88.109 118.474 86.7915 119.282C82.9405 117.321 80.0974 117.433 75.3262 117.433C51.3058 121.244 27.8225 145.976 22.2339 159.121C21.9078 160.608 21.2962 164.966 21.4593 170.495C21.6632 177.407 26.0264 190.54 27.0051 192.329C27.7881 193.76 29.8052 193.847 30.7159 193.711L32.4694 197.793L32.0616 199.688L29.1256 203.404L27.8225 206.884C27.2909 209.871 25.9761 217.541 24.9698 224.329C23.9635 231.117 25.3891 254.556 26.2277 265.427C33.3319 267.079 44.9746 264.738 49.908 263.361C55.0585 264.954 62.5652 263.763 65.6748 262.968C63.2889 242.272 67.7984 214.635 70.3513 203.404L74.2234 197.793C76.9702 192.981 89.2915 180.578 91.332 178.113C93.3724 175.649 95.2168 169.232 96.9826 163.99C98.7484 158.747 102.003 144.437 102.305 139.8C102.607 135.162 101.882 133.326 101.188 132.272C100.632 131.428 98.7312 130.616 97.8504 130.315Z" fill="white"/>
<path d="M65.6744 262.968C63.2885 242.272 67.798 214.635 70.351 203.404L73.3407 191.107C66.3928 192.646 49.4862 188.798 41.8435 170.324L36.98 179.099C36.98 179.099 39.9907 189.259 43.2331 192.954C43.2331 192.954 38.1379 200.343 34.8956 201.729C31.6532 203.114 29.1252 203.404 29.1252 203.404C22.8526 218.355 25.4001 260.843 26.2274 265.427C33.3315 267.08 44.9743 264.738 49.9077 263.361C55.0582 264.955 62.5649 263.763 65.6744 262.968Z" fill="#B1E0DF"/>
<path d="M85.1503 63.0876C85.1503 50.1706 98.5004 45.2873 104.741 45.2873C113.841 44.0902 123.068 54.87 126.543 60.4096C128.492 59.8058 134.332 58.4406 142.105 57.8105C151.822 57.0229 158.615 62.2212 161.933 68.0496C164.587 72.7123 162.565 75.8733 161.222 76.8709C162.591 77.7898 165.33 80.872 165.33 85.8498C165.33 92.072 155.534 98.7667 148.899 98.7667C143.59 98.7667 139.893 96.6664 138.708 95.6163C138.266 98.0736 135.944 101.523 134.838 102.941C134.153 103.834 132.326 105.934 130.493 107.194C128.66 108.454 125.674 107.719 124.41 107.194C124.568 108.034 124.632 110.093 123.621 111.605C122.609 113.117 120.829 112.235 120.066 111.605C116.59 116.173 111.376 121.923 102.292 121.923C89.9689 121.923 88.1521 99.9744 88.7841 89.0003C85.7823 87.8188 83.4125 86.6374 83.5705 80.9665C83.6968 76.4298 86.6249 74.7706 88.0731 74.508C87.0989 72.8015 85.1503 68.1283 85.1503 63.0876Z" fill="white"/>
<path d="M237.08 151.156C241.342 145.798 252.134 140.764 256.998 138.917C256.535 135.222 251.208 130.142 247.966 128.526C244.723 126.91 243.334 126.448 235.691 131.297C229.577 135.176 227.739 141.072 227.585 143.535C233.143 145.937 236.231 149.616 237.08 151.156Z" fill="#B1E0DF"/>
<ellipse cx="150.463" cy="236.364" rx="8.5691" ry="8.54389" fill="#FABD05"/>
<path d="M84.0449 26.648C83.8132 27.089 83.729 27.9082 83.729 29.5884C83.729 31.4997 83.8132 32.0668 84.1503 32.7389C84.4662 33.369 84.719 33.579 85.0771 33.579C85.351 33.579 85.6248 33.453 85.6669 33.306C85.8355 32.8859 85.7091 26.543 85.5406 26.2699C85.2456 25.7868 84.382 25.9759 84.0449 26.648Z" fill="#222222"/>
<path d="M70.4579 38.9141C70.4579 39.3762 70.7107 39.5652 72.6697 40.5103C75.7663 42.0016 78.0414 42.3586 78.0414 41.3295C78.0414 41.1194 77.8939 40.9304 77.7254 40.9304C77.5569 40.9304 77.4094 40.8464 77.4094 40.7624C77.4094 40.5313 75.4293 39.6702 74.9237 39.6702C74.7131 39.6702 74.4392 39.5652 74.2918 39.4182C73.9126 39.0401 72.5433 38.5781 71.469 38.473C70.5 38.368 70.4579 38.389 70.4579 38.9141Z" fill="#222222"/>
<path d="M204.39 43.7448C203.801 44.2909 202.747 47.1054 202.747 48.1135C202.747 48.8906 203.442 49.2687 204.138 48.8906C204.411 48.7436 204.643 48.5336 204.643 48.4286C204.643 48.3235 204.917 47.6514 205.254 46.9163C206.118 45.047 206.265 44.1649 205.802 43.6608C205.317 43.1147 205.064 43.1358 204.39 43.7448Z" fill="#222222"/>
<path d="M101.108 45.131C100.076 45.341 98.8749 45.6141 98.4747 45.7401C97.5267 46.0341 95.4413 46.8743 95.3149 47.0213C95.2517 47.0843 94.7883 47.3573 94.2616 47.6304C91.9023 48.8696 88.8479 51.684 87.6261 53.7633C86.952 54.9185 86.2569 56.3467 86.2569 56.5987C86.2569 56.7668 86.1726 56.8928 86.0673 56.8928C85.962 56.8928 85.8145 57.2078 85.7303 57.5649C85.646 57.943 85.4564 58.6361 85.3089 59.0981C84.5085 61.4295 84.5085 66.6803 85.33 69.4947C85.8988 71.406 86.5307 73.1493 86.8678 73.6533C87.1205 74.0734 87.1205 74.1784 86.8678 74.3254C85.5828 75.0606 84.993 75.5016 84.993 75.7327C84.993 75.8797 84.9087 76.0057 84.8034 76.0057C84.5506 76.0057 84.024 77.0349 83.4552 78.6311C83.1182 79.5552 83.0128 80.3954 82.9918 81.7816C82.9918 83.5038 83.055 83.7979 83.708 85.0791C84.4663 86.5913 85.5828 87.7885 87.1206 88.6706C88.0474 89.2167 89.543 89.5108 89.6694 89.1537C89.7116 89.0697 89.206 88.6916 88.5319 88.3136C86.8888 87.4104 85.962 86.5913 85.0351 85.2681L84.2557 84.1549V81.5926C84.2768 79.2402 84.3189 78.9672 84.8455 77.98C85.4985 76.7408 86.5518 75.6276 87.268 75.4386C88.3423 75.1866 90.1961 75.4806 90.9544 76.0687C92.6607 77.3499 93.2084 79.1982 93.2084 83.5459C93.2084 86.1923 93.2716 86.6963 93.6508 87.4945C94.1774 88.5866 95.1674 88.9857 96.2418 88.5236C97.274 88.0825 99.4647 85.3521 100.476 83.2098C100.708 82.7057 101.024 82.3067 101.171 82.3067C101.466 82.3067 102.751 83.1468 102.856 83.3988C102.898 83.5038 103.025 83.5669 103.151 83.5669C103.32 83.5669 104.394 84.176 106.564 85.5202C106.795 85.6672 107.491 86.0872 108.08 86.4443C108.691 86.8223 109.281 87.1374 109.365 87.1374C109.471 87.1374 109.787 87.3684 110.103 87.6625C110.629 88.1456 110.65 88.2506 110.44 88.8597C110.313 89.2377 110.145 89.6368 110.061 89.7628C109.787 90.1199 109.049 92.8503 108.797 94.3415C108.396 96.8409 109.197 99.7813 110.735 101.441C112.378 103.205 114.105 103.94 116.97 104.087C118.697 104.171 119.961 103.898 121.12 103.184C121.836 102.722 121.857 102.743 123.058 106.775C123.268 107.469 123.437 108.666 123.437 109.443C123.437 111.165 123.1 111.564 121.71 111.438C120.635 111.333 119.308 110.703 117.159 109.254C116.254 108.645 115.264 108.141 114.99 108.141C114.252 108.141 114.463 108.372 116.443 109.779C119.961 112.257 120.319 112.425 121.983 112.446C123.1 112.446 123.542 112.362 123.837 112.089C124.427 111.48 124.806 110.325 124.806 109.065C124.806 108.015 124.848 107.91 125.185 108.057C125.375 108.162 126.302 108.246 127.229 108.246C128.514 108.246 129.103 108.141 129.756 107.805C131.484 106.922 132.284 106.334 133.738 104.843C135.065 103.478 135.128 103.373 135.128 102.596C135.128 101.126 132.032 97.87 129.925 97.1349C129.335 96.9459 128.977 96.9039 128.893 97.0299C128.745 97.2819 128.556 97.1349 130.62 98.6472C132.179 99.8023 133.359 101.021 134.033 102.218C134.37 102.806 134.285 102.911 132.748 104.402C130.051 107.006 126.597 108.015 125.27 106.607C124.743 106.04 124.174 104.759 124.174 104.129C124.174 103.688 124.195 103.688 124.701 104.234C125.522 105.116 126.66 104.99 127.713 103.877C127.903 103.688 128.261 103.52 128.535 103.52C129.082 103.52 129.314 102.932 129.125 102.05C128.998 101.504 128.324 100.768 126.807 99.6133L126.239 99.1722L127.018 98.0591C127.713 97.0719 127.797 96.8409 127.713 95.9587C127.65 95.2656 127.376 94.6145 126.744 93.6904C125.796 92.3252 123.5 89.8678 123.142 89.8678C123.037 89.8678 122.847 89.7418 122.763 89.5948C122.489 89.1957 121.436 88.5236 119.898 87.8095C118.887 87.3264 118.192 87.1374 117.391 87.1374C116.085 87.1374 116.212 87.2844 118.065 88.1035C118.824 88.4186 120.109 89.1117 120.909 89.6368C122.447 90.6029 125.649 93.6904 125.649 94.1945C125.649 94.3625 125.733 94.4885 125.817 94.4885C125.923 94.4885 126.154 94.8666 126.365 95.3287C126.702 96.1058 126.702 96.1688 126.344 96.7359C126.133 97.0509 125.923 97.366 125.859 97.429C125.796 97.492 125.333 98.0591 124.806 98.6892C123.479 100.306 121.625 101.84 120.572 102.155C120.298 102.239 120.003 102.407 119.919 102.533C119.835 102.659 118.887 102.806 117.813 102.848C116.127 102.932 115.685 102.869 114.842 102.491C114.316 102.239 113.81 102.05 113.726 102.05C113.452 102.05 111.746 100.558 111.177 99.8233C110.861 99.4033 110.482 98.4581 110.271 97.597C109.955 96.2108 109.955 95.9797 110.292 94.0895C110.629 92.1992 111.051 90.771 111.535 89.9098C111.64 89.7208 111.893 89.1957 112.083 88.7546C112.567 87.6625 112.293 87.2004 110.524 86.1712C109.745 85.7302 109.092 85.2891 109.049 85.2051C109.007 85.1211 108.881 85.0371 108.754 85.0371C108.649 85.0371 107.659 84.491 106.564 83.8189C105.468 83.1678 104.415 82.5167 104.204 82.4117C101.698 80.8995 101.361 80.6054 101.845 80.3114C101.971 80.2484 102.056 79.9963 102.056 79.7653C102.056 79.4502 102.203 79.3662 102.751 79.3662C103.509 79.3452 107.659 78.6941 109.955 78.211C110.777 78.043 111.956 77.812 112.588 77.686C116.043 77.0349 119.329 76.2367 121.014 75.6487C122.995 74.9765 124.174 74.4515 124.174 74.2624C124.174 74.1574 124.322 74.1784 124.49 74.3254C124.659 74.4725 124.806 74.6615 124.806 74.7665C124.806 74.8505 125.333 76.0477 125.986 77.4129C126.618 78.7781 127.229 80.0803 127.334 80.3114C127.439 80.5424 127.818 81.3825 128.177 82.1596C128.535 82.9578 128.914 83.7979 129.04 84.0499C129.588 85.3311 131.905 89.0697 132.221 89.1957C132.326 89.2377 132.39 89.3637 132.39 89.4898C132.39 89.5948 132.706 90.0778 133.085 90.5609C134.18 91.9051 134.18 91.9681 133.401 91.7161C132.2 91.338 131.294 91.275 131.126 91.5481C130.852 91.9891 131.147 92.5562 131.716 92.7033C132.01 92.7663 132.685 93.1233 133.19 93.4594C133.675 93.7954 134.138 94.0685 134.201 94.0685C134.264 94.0685 134.454 94.2155 134.623 94.3835C135.023 94.7826 136.16 94.8036 136.308 94.4045C136.392 94.1945 136.582 94.2785 137.066 94.7406C137.845 95.4967 140.121 96.9669 141.448 97.576C144.207 98.8362 147.388 99.2983 150.78 98.9202C153.349 98.6262 154.571 98.2481 157.162 97.0089C160.027 95.6017 161.986 93.9214 163.692 91.317C165.293 88.8807 165.736 87.2214 165.609 84.197C165.504 81.6346 165.083 80.4584 163.756 79.1352C162.113 77.4969 161.502 78.4421 162.808 80.6054C163.187 81.2565 163.629 82.1596 163.777 82.6217C164.093 83.5669 164.114 86.6333 163.819 86.9904C163.714 87.1374 163.545 87.5365 163.482 87.9145C162.934 90.3929 159.985 93.6484 156.467 95.5807C155.498 96.1268 155.414 96.0428 156.214 95.3287C156.615 94.9926 157.015 94.6986 157.12 94.6986C157.436 94.6986 160.828 91.149 160.828 90.813C160.828 90.6659 160.912 90.4979 161.017 90.4559C161.438 90.2879 162.702 87.4524 162.955 86.0872C163.44 83.3778 162.513 80.5424 160.427 78.3581C159.564 77.4549 159.416 77.0979 159.753 76.7408C159.838 76.6148 160.048 75.8167 160.175 74.9345C160.68 71.658 159.585 68.4866 157.036 65.9242C155.646 64.538 154.487 63.6138 154.108 63.6138C154.002 63.6138 153.876 63.5298 153.834 63.4458C153.644 62.9627 148.504 60.8834 147.493 60.8834C147.219 60.8834 146.925 60.7994 146.798 60.6944C146.588 60.4843 144.544 60.1693 141.132 59.8122C139.973 59.6862 137.361 59.6232 135.339 59.6862C133.316 59.7492 131.884 59.7492 132.179 59.7072C132.474 59.6442 133.316 59.4552 134.075 59.2662C136.16 58.7201 144.902 58.7411 147.241 59.2872C154.171 60.8834 158.426 63.7188 160.512 68.1295C162.302 71.9101 162.386 73.8004 160.891 76.5098L160.554 77.1189L161.165 76.9719C162.407 76.6568 163.355 74.9766 163.355 73.0443C163.355 71.238 162.407 68.3395 161.101 66.1342C160.322 64.811 157.562 62.0386 156.299 61.3035C155.835 61.0304 155.414 60.7364 155.351 60.6734C155.245 60.5473 154.129 60.0013 152.612 59.3502C151.98 59.0771 150.969 58.7411 148.294 57.943C145.892 57.2288 139.51 56.9768 135.739 57.4599C132.958 57.8169 129.693 58.6151 127.713 59.4342C127.165 59.6442 126.639 59.8332 126.512 59.8332C126.386 59.8332 126.091 59.3922 125.859 58.8671C124.722 56.3887 122.805 53.7843 120.235 51.3059C119.287 50.3818 118.086 49.3316 117.602 48.9956C117.096 48.6595 116.654 48.3235 116.591 48.2395C116.359 47.9244 112.799 46.1812 111.577 45.7821C108.249 44.6689 104.626 44.4379 101.108 45.131ZM95.1042 49.2686C94.9357 49.3316 94.7461 49.4577 94.6829 49.5417C94.6197 49.6257 94.1142 50.0878 93.5665 50.5498C92.6186 51.3689 91.9445 52.0831 90.3225 54.0784C89.543 55.0025 87.9632 58.132 87.4576 59.7282C87.1627 60.6524 86.8888 62.5637 86.5307 66.3022C86.4886 66.9323 86.3833 67.3944 86.3411 67.3314C86.1726 67.1634 86.1937 61.8706 86.3622 61.0934C86.8467 58.7201 88.1527 55.7586 89.4799 53.9523C90.3225 52.8182 92.9556 50.1718 93.2295 50.1718C93.3137 50.1718 93.5244 50.0457 93.6718 49.8987C94.0931 49.4787 94.7461 49.1426 95.1042 49.1426C95.3781 49.1636 95.3781 49.1636 95.1042 49.2686ZM125.733 100.747C125.838 100.916 124.764 102.05 124.511 102.05C124.448 102.05 124.385 101.903 124.385 101.735C124.385 101.567 124.469 101.42 124.574 101.42C124.68 101.42 124.806 101.231 124.869 101C124.975 100.579 125.522 100.432 125.733 100.747ZM124.322 103.247C124.258 103.457 124.216 103.289 124.216 102.89C124.216 102.491 124.258 102.323 124.322 102.512C124.364 102.722 124.364 103.058 124.322 103.247Z" fill="#222222"/>
<path d="M188.781 44.984C188.634 45.404 189.139 46.4542 189.876 47.2103C190.213 47.5674 190.572 47.8614 190.656 47.8614C190.719 47.8614 191.519 48.6385 192.446 49.5837L194.089 51.3269L194.574 50.8439L195.058 50.3818L194.637 49.5837C194.405 49.1636 194.132 48.7015 194.005 48.5545C193.9 48.4285 193.563 48.0084 193.268 47.6304C192.488 46.6012 190.909 45.131 190.593 45.131C190.445 45.131 190.319 45.026 190.319 44.921C190.319 44.6059 188.907 44.6689 188.781 44.984Z" fill="#222222"/>
<path d="M250.354 51.201C248.311 51.5791 245.846 52.4402 244.835 53.1333C244.54 53.3644 244.224 53.5324 244.161 53.5324C244.098 53.5324 243.782 53.7424 243.466 53.9945C241.549 55.5907 240.117 57.544 239.464 59.5183C238.979 60.9465 238.6 63.7189 238.958 63.1939C239.085 63.0258 239.19 62.7528 239.19 62.6268C239.19 62.2067 240.664 59.1612 241.36 58.1531C242.982 55.8007 245.552 53.9734 248.459 53.1123C252.608 51.8941 256.885 52.2512 260.129 54.0995C260.613 54.3515 261.203 54.6666 261.477 54.7926C262.193 55.1076 264.91 57.901 265.753 59.2032C266.764 60.7575 267.691 62.9208 268.26 65.0841C268.934 67.5415 268.997 73.1914 268.386 75.5437C267.607 78.5682 268.218 81.8867 270.008 84.5961C270.556 85.4152 272.115 87.4105 272.473 87.7676C272.936 88.2297 273.652 89.5319 274.453 91.4222C275.169 93.0814 275.106 96.2109 274.327 98.3112C273.695 99.9915 271.778 101.609 269.524 102.386C267.923 102.911 261.856 103.079 260.887 102.617C260.55 102.428 259.981 102.239 259.623 102.155C259.286 102.071 258.991 101.945 258.991 101.861C258.991 101.798 258.738 101.609 258.422 101.462C258.085 101.315 257.601 101.084 257.327 100.916C256.59 100.475 254.146 98.0172 254.146 97.7021C254.146 97.5551 254.062 97.4291 253.957 97.4291C253.872 97.4291 253.198 96.2949 252.482 94.9087C251.766 93.5225 251.092 92.3883 250.986 92.3883C250.691 92.3883 250.523 93.5855 250.67 94.5516C250.797 95.3078 252.019 98.1222 252.503 98.7943C253.219 99.7394 254.799 101.336 255.6 101.924C258.57 104.066 262.614 105.41 266.153 105.41C269.903 105.41 273.294 104.129 275.654 101.798C276.644 100.811 277.465 99.5924 277.655 98.7523C277.739 98.4372 277.887 98.0592 277.992 97.9121C278.097 97.7861 278.245 96.967 278.308 96.1269C278.434 94.4886 278.139 93.0184 277.276 91.1281C276.812 90.141 274.685 87.2845 273.273 85.8143C272.283 84.7641 271.209 83.1889 270.577 81.7817C269.924 80.3745 269.777 77.518 270.219 75.2497C270.724 72.7503 270.83 70.629 270.598 68.6547C270.05 64.16 269.102 61.4506 266.954 58.2161C266.027 56.8299 263.541 54.1625 263.183 54.1625C263.099 54.1625 262.888 54.0365 262.741 53.8684C262.572 53.7004 261.919 53.3013 261.287 52.9443C258.001 51.096 254.188 50.4869 250.354 51.201Z" fill="#222222"/>
<path d="M218.862 62.3537C216.692 62.6058 213.448 63.6559 211.278 64.8111C210.036 65.4622 208.013 66.8274 208.013 66.9954C208.013 67.1004 207.908 67.1845 207.782 67.1845C207.402 67.1845 205.675 69.1168 205.17 70.1249C204.664 71.1331 204.243 73.0023 204.58 72.7923C204.685 72.7293 205.001 72.2252 205.296 71.6581C205.886 70.503 207.866 68.4237 209.404 67.3525C210.773 66.3863 214.122 64.7691 215.618 64.328C216.25 64.16 217.998 63.8029 219.494 63.5719C222.169 63.1518 222.274 63.1518 224.655 63.5089C225.982 63.7189 227.183 63.95 227.288 64.034C227.414 64.118 227.794 64.244 228.131 64.328C228.889 64.5171 230.637 65.3362 230.722 65.5462C230.764 65.6512 230.89 65.7142 231.017 65.7142C231.522 65.7142 233.924 67.8986 235.503 69.8309C238.368 73.2754 241.086 78.7782 241.949 82.8739C243.003 87.9146 243.445 94.2366 243.003 97.7441C242.876 98.7733 242.666 100.307 242.56 101.147C242.055 105.095 240.58 107.616 238.79 107.616C238.137 107.616 237.821 107.448 237.21 106.839C236.788 106.418 236.451 105.998 236.451 105.893C236.451 105.62 235.524 104.78 235.23 104.78C234.387 104.78 235.546 108.036 236.894 109.443C237.757 110.346 237.947 110.451 238.79 110.451C240.159 110.451 241.212 109.632 242.497 107.637C244.056 105.221 244.856 99.7184 244.73 92.4933C244.646 87.4315 244.224 84.8061 242.75 79.8494C242.476 78.9673 242.476 78.9463 243.192 78.2111C244.161 77.224 244.456 76.2368 244.456 74.0105C244.456 69.6418 242.013 66.1553 238.01 64.7901C236.704 64.349 235.524 64.37 234.113 64.8321C232.997 65.2102 232.238 65.2312 232.238 64.8741C232.238 64.6431 229.732 63.4669 228.004 62.8998C225.94 62.2067 222.022 61.9757 218.862 62.3537Z" fill="#222222"/>
<path d="M185.474 71.3222C183.599 71.4902 179.576 72.5614 178.333 73.1915C178.038 73.3595 177.659 73.4855 177.532 73.4855C177.385 73.4855 177.258 73.5695 177.258 73.6956C177.258 73.8006 177.153 73.9056 177.027 73.9056C176.584 73.9056 174.815 75.2498 173.467 76.615C171.908 78.1902 170.791 79.8075 169.865 81.7818C169.275 83 169.085 83.5881 168.39 86.0874C168.285 86.4865 168.179 88.2928 168.2 90.0781C168.2 92.6614 168.285 93.6486 168.601 94.7618C169.738 98.6894 170.939 100.811 173.446 103.331C175.931 105.809 178.459 106.881 181.787 106.881C183.599 106.881 185.832 106.482 187.096 105.914C187.454 105.746 187.812 105.62 187.875 105.62C188.233 105.62 190.319 104.045 190.319 103.772C190.319 103.583 190.192 103.52 189.961 103.604C184.926 105.263 183.978 105.473 181.682 105.347C180.039 105.263 178.143 104.885 177.89 104.591C177.827 104.507 177.553 104.339 177.258 104.192C176.016 103.583 174.394 102.134 173.109 100.475C172.161 99.2144 170.307 95.5179 170.307 94.8248C170.307 94.6568 170.159 93.9636 169.991 93.2915C169.549 91.6323 169.591 89.0489 170.096 86.6755C170.728 83.6301 171.529 81.8658 173.319 79.4714C175.91 76.0059 179.323 74.1156 184.694 73.1705C188.318 72.5194 191.499 72.8974 197.165 74.6197C201.336 75.9009 202.094 76.0689 204.854 76.405C207.213 76.699 210.331 76.3 210.331 75.6909C210.331 75.2918 210.015 75.2078 206.708 74.9557C205.064 74.8297 203.358 74.6197 202.958 74.5357C201.21 74.1156 199.756 73.6956 196.322 72.6454C192.299 71.4272 188.781 70.9861 185.474 71.3222Z" fill="#222222"/>
<path d="M119.772 82.0758C119.034 82.2859 118.992 82.6849 119.687 82.937C122.826 84.1131 123.563 84.5962 124.764 86.2975C126.576 88.8809 126.892 89.2379 127.229 89.1119C127.755 88.9019 127.587 88.0617 126.702 86.2135C126.091 84.9113 125.586 84.1971 124.722 83.42C123.69 82.4749 123.437 82.3489 122.11 82.1388C120.488 81.8658 120.509 81.8658 119.772 82.0758Z" fill="#222222"/>
<path d="M226.951 87.6625C226.319 88.0826 225.666 88.7547 224.908 89.7628C224.507 90.3299 223.981 92.4723 223.854 94.1735L223.707 96.0638L221.158 96.0428C219.346 96.0218 218.251 95.9168 217.472 95.6437C215.534 95.0136 213.301 93.8165 212.205 92.7873C210.246 90.96 209.909 90.708 209.488 90.708C209.067 90.708 208.224 91.3801 208.224 91.7372C208.224 91.8212 207.992 92.1572 207.718 92.4513C207.445 92.7453 207.086 93.1654 206.918 93.3964C206.518 93.9425 204.643 95.3287 204.306 95.3287C204.137 95.3287 204.011 95.4127 204.011 95.4967C204.011 95.6647 202.768 96.2108 200.851 96.8619C199.545 97.324 196.512 97.8491 194.405 97.9961C192.467 98.1431 190.024 97.7651 186.948 96.8409C184.589 96.1478 183.367 96.0218 183.367 96.4419C183.367 96.8199 185.2 97.7441 186.822 98.1851C190.656 99.2353 191.646 99.3823 195.416 99.4033C197.776 99.4243 199.166 99.5083 199.145 99.6344C199.145 99.7394 199.061 100.033 198.976 100.264C198.724 100.853 199.082 101.42 199.714 101.42C200.114 101.42 200.304 101.252 200.535 100.706C200.704 100.306 201.188 99.7184 201.631 99.3823C202.326 98.8572 202.6 98.7942 204.348 98.7312C206.075 98.6472 206.328 98.6052 206.455 98.2271C206.518 97.9751 206.433 97.6601 206.223 97.429C205.865 97.03 205.907 96.9669 207.339 95.5597C208.161 94.7406 208.877 93.9005 208.961 93.6484C209.024 93.4174 209.193 93.2284 209.298 93.2284C209.404 93.2284 209.488 93.0814 209.488 92.9133C209.488 92.3462 210.015 92.5773 210.752 93.4804C212.332 95.3707 214.059 96.5259 216.861 97.555C218.967 98.3112 222.843 98.4372 223.096 97.7441C223.159 97.576 223.496 97.387 223.833 97.324C224.739 97.114 225.013 96.5049 225.181 94.4046C225.476 90.3929 227.414 87.9986 229.963 88.4817C230.785 88.6287 232.407 89.8889 233.06 90.876C233.608 91.6951 234.134 93.7955 234.134 95.2027C234.134 96.4629 233.586 99.3823 233.165 100.306C232.997 100.664 232.87 101.042 232.87 101.147C232.87 101.588 231.333 102.89 230.553 103.121C229.373 103.478 229.163 103.793 229.732 104.339C230.321 104.885 230.869 104.885 231.943 104.381C234.345 103.226 235.609 100.096 235.609 95.2657C235.609 92.0942 235.145 90.624 233.629 89.1328C232.049 87.5785 231.08 87.1375 229.226 87.1585C228.004 87.1585 227.562 87.2635 226.951 87.6625Z" fill="#222222"/>
<path d="M191.583 100.937C191.14 101.063 190.298 101.42 189.687 101.714C189.013 102.029 188.907 102.701 189.476 103.058C189.834 103.268 190.129 103.247 191.288 102.869C192.067 102.617 192.889 102.491 193.184 102.554C193.457 102.617 193.942 102.743 194.237 102.806C195.29 103.079 195.543 101.735 194.553 101.147C193.963 100.811 192.32 100.685 191.583 100.937Z" fill="#222222"/>
<path d="M89.2691 104.087C89.3955 107.405 90.4698 111.9 91.6705 114.231C91.818 114.526 91.9444 114.883 91.9444 115.009C91.9444 115.156 92.0497 115.282 92.155 115.282C92.2814 115.282 92.3657 115.408 92.3657 115.555C92.3657 115.702 92.6606 116.248 93.0398 116.773C95.2516 119.839 97.5477 121.478 100.813 122.297C103.088 122.885 106.353 122.654 108.691 121.73C111.409 120.637 114.737 118.39 116.801 116.227C118.508 114.421 118.571 114.379 118.971 113.769C119.434 113.034 119.434 112.971 118.781 112.971C118.423 112.971 117.855 113.328 117.054 114.105C116.401 114.715 115.516 115.534 115.116 115.912C110.482 120.133 105.068 122.024 100.876 120.848C97.5477 119.902 94.5143 117.256 93.0187 113.979C92.787 113.433 92.5763 112.929 92.5763 112.866C92.5763 112.782 92.4499 112.425 92.2814 112.068C91.818 111.018 91.0175 107.805 90.5962 105.305C90.2802 103.499 89.7536 102.05 89.3955 102.05C89.248 102.05 89.2059 102.743 89.2691 104.087Z" fill="#222222"/>
<path d="M227.52 105.515C226.846 106.145 226.551 106.86 226.551 107.973C226.551 108.687 226.677 108.96 227.372 109.632C228.152 110.409 228.257 110.451 229.5 110.451C231.691 110.451 233.081 109.485 233.081 107.91C233.081 107.49 233.018 106.986 232.955 106.797C232.786 106.355 232.112 106.355 231.943 106.797C231.817 107.112 231.754 107.112 231.333 106.712C231.059 106.46 230.553 106.187 230.174 106.124C229.647 106.019 229.5 105.872 229.5 105.494C229.5 105.053 229.395 104.99 228.784 104.99C228.341 104.99 227.899 105.179 227.52 105.515Z" fill="#222222"/>
<path d="M205.127 106.713C205.022 106.86 204.706 107.637 204.432 108.456C203.842 110.304 203.716 110.514 202.81 111.522C201.862 112.551 201.272 112.593 200.535 111.627C199.966 110.871 199.166 108.855 199.166 108.141C199.166 107.805 199.019 107.721 198.534 107.721C197.944 107.721 197.902 107.763 197.902 108.498C197.923 110.094 198.997 112.446 200.072 113.266C202.01 114.757 204.411 113.055 205.717 109.275C206.244 107.679 206.265 106.46 205.717 106.46C205.507 106.46 205.233 106.586 205.127 106.713Z" fill="#222222"/>
<path d="M195.058 108.498C194.447 112.32 193.352 115.135 192.425 115.24C191.688 115.324 191.119 114.484 190.635 112.593C190.255 111.165 190.213 111.081 189.645 111.081C189.16 111.081 189.055 111.165 189.055 111.627C189.055 112.572 189.708 114.505 190.403 115.534C190.887 116.29 191.224 116.563 191.73 116.668C193.205 116.941 194.11 116.29 195.058 114.337C195.627 113.119 196.428 109.737 196.428 108.519C196.428 107.784 196.385 107.721 195.796 107.721C195.248 107.721 195.164 107.805 195.058 108.498Z" fill="#222222"/>
<path d="M108.817 113.16C108.628 113.286 108.523 113.791 108.501 114.568L108.48 115.807H109.407C110.229 115.807 110.355 115.744 110.777 115.03C111.177 114.295 111.198 114.19 110.903 113.665C110.65 113.223 110.397 113.055 109.85 113.013C109.449 112.992 108.986 113.055 108.817 113.16Z" fill="#222222"/>
<path d="M72.7751 117.172C69.5521 117.781 68.4778 118.033 68.2461 118.222C68.1407 118.306 67.6984 118.453 67.2981 118.537C66.8979 118.621 66.287 118.831 65.9289 118.978C65.5919 119.125 64.6439 119.504 63.8224 119.798C61.4631 120.701 57.7135 122.57 54.8697 124.25C51.4361 126.288 51.415 126.288 51.2886 126.414C51.2254 126.477 50.762 126.813 50.2354 127.149C49.7087 127.506 49.2032 127.842 49.0768 127.926C45.7485 130.425 43.979 131.769 43.8105 131.958C43.7051 132.084 42.9047 132.736 42.0621 133.408C39.7028 135.298 32.9198 142.166 30.9607 144.665C30.729 144.959 30.392 145.358 30.2234 145.526C30.0549 145.716 29.6757 146.199 29.3808 146.64C29.0859 147.06 28.791 147.417 28.7067 147.417C28.6014 147.417 28.5382 147.564 28.5382 147.732C28.5382 147.9 28.454 148.047 28.3697 148.047C28.2644 148.047 27.4428 149.16 26.516 150.504C25.6102 151.869 24.7886 153.004 24.7044 153.046C24.599 153.088 24.5358 153.256 24.5358 153.403C24.5358 153.571 24.4094 153.823 24.262 153.97C23.4405 154.789 21.8606 158.338 21.4814 160.229C20.5124 165.059 21.039 173.566 22.7664 181.127C23.3983 183.836 24.3673 187.134 24.8729 188.31C25.0414 188.667 25.1678 189.045 25.1678 189.15C25.1678 189.717 26.6845 192.763 27.2532 193.351C27.8641 193.981 28.0327 194.044 29.2334 194.044H30.5394L30.8765 194.947C31.6769 196.984 32.1404 198.665 31.9718 198.938C31.8876 199.085 31.361 199.61 30.8133 200.093L29.8443 200.996L29.9496 200.135C30.1181 198.959 29.6125 199.022 28.7067 200.303C27.7377 201.647 27.2111 203.18 27.506 203.789C28.2854 205.302 30.1813 205.344 33.2779 203.894C36.1638 202.55 40.6086 198.455 42.7993 195.136C44.0422 193.246 44.1054 193.162 44.6109 192.049C45.7695 189.57 45.8538 188.499 44.8427 188.625C44.295 188.688 44.0422 189.024 43.3892 190.62C43.0943 191.313 42.9468 191.46 42.7361 191.292C41.8303 190.557 38.9655 183.059 38.0176 178.964C37.7648 177.892 37.7858 177.85 38.2914 177.451C38.5863 177.22 39.3236 176.002 39.9345 174.763C41.072 172.453 41.8093 171.276 41.8093 171.801C41.8093 171.97 42.2517 172.999 42.7993 174.091C44.9269 178.375 48.6344 182.87 52.2365 185.538C52.7 185.874 53.1845 186.252 53.3109 186.378C53.5847 186.609 53.8375 186.777 55.4595 187.848C56.0915 188.247 56.6813 188.583 56.7656 188.583C56.8709 188.583 57.0815 188.709 57.229 188.856C57.7767 189.36 61.758 191.166 62.8955 191.418C63.2747 191.502 63.7381 191.65 63.9277 191.755C64.981 192.322 70.2262 192.763 71.3216 192.385C72.0167 192.154 72.0378 192.217 71.6376 193.456C71.469 193.96 71.2163 194.779 71.0899 195.304C70.9635 195.829 70.7107 196.816 70.5422 197.509C70.2473 198.665 69.9523 199.883 69.0676 203.705C68.5199 206.142 67.7616 210.006 67.2349 213.262C67.0454 214.312 66.8136 215.74 66.6872 216.412C65.8446 221.18 65.1916 227.166 64.5386 236.05C64.2437 240.293 64.3911 257.957 64.7493 260.309C64.8967 261.233 65.0863 262.409 65.1495 262.913C65.3601 264.216 65.7183 264.216 66.0342 262.934C66.2238 262.115 66.2449 261.296 66.0764 259.511C65.3391 251.992 65.7604 235.126 66.8558 227.124C66.9822 226.2 67.1928 224.583 67.3192 223.553C67.8458 219.08 68.8359 212.821 69.51 209.586C69.6785 208.83 69.9102 207.696 70.0366 207.066C70.3315 205.47 70.7739 203.453 71.1952 201.71C71.3848 200.891 71.6797 199.715 71.8272 199.085C71.9746 198.455 72.3116 197.173 72.5644 196.249C72.8172 195.325 73.1543 194.086 73.3017 193.519C73.4492 192.931 73.7862 191.797 74.039 190.998C74.2707 190.179 74.5656 189.234 74.6499 188.898C74.9027 187.953 76.1455 184.361 76.4826 183.605C76.6511 183.248 76.7775 182.828 76.7775 182.66C76.7775 182.492 76.9249 182.177 77.0934 181.946C77.262 181.736 77.4094 181.4 77.4094 181.232C77.4094 181.064 77.5569 180.644 77.7254 180.308C77.8939 179.993 78.0414 179.615 78.0414 179.51C78.0414 179.405 78.231 178.88 78.4837 178.333C78.7155 177.787 78.9893 177.157 79.0946 176.926C80.2322 174.259 80.9905 172.558 81.3275 171.949C81.4961 171.654 81.6225 171.255 81.6225 171.066C81.6225 170.877 81.7278 170.73 81.8331 170.73C81.9595 170.73 82.0438 170.604 82.0438 170.457C82.0438 170.226 82.9917 168.294 85.0139 164.429C85.5195 163.442 85.9829 162.602 86.0461 162.539C86.1093 162.476 86.2779 162.224 86.4253 161.951C86.5517 161.699 86.8045 161.279 86.9519 161.006C87.0783 160.754 87.3101 160.397 87.4364 160.229C87.6682 159.956 88.1527 159.053 89.4166 156.658C90.5541 154.516 91.0807 152.71 90.3856 153.277C89.7957 153.781 86.1936 159.179 84.9718 161.384C84.4873 162.308 83.8554 163.442 83.6026 163.904C82.7178 165.459 81.4118 168.168 81.4118 168.399C81.4118 168.525 81.3275 168.63 81.2012 168.63C81.0958 168.63 80.9905 168.714 80.9905 168.819C80.9905 168.924 80.5481 169.932 80.0215 171.066C78.4837 174.364 78.3363 174.721 77.5147 176.716C77.0934 177.745 76.6089 178.88 76.4404 179.195C76.2719 179.531 76.1455 179.909 76.1455 180.035C76.1244 180.182 75.9559 180.665 75.7242 181.127C75.4925 181.589 75.324 182.072 75.3029 182.177C75.3029 182.303 75.0712 182.744 74.7763 183.185C73.6809 184.76 70.8371 185.979 68.7727 185.748C65.8236 185.412 63.0219 184.655 60.8522 183.626C59.4408 182.933 56.7445 181.211 55.8387 180.413C54.7854 179.489 51.9206 176.632 51.9206 176.527C51.9206 176.464 51.6678 176.128 51.3518 175.792C50.6145 175.015 48.9082 172.684 48.5501 171.991C48.4027 171.696 48.2131 171.423 48.1499 171.36C47.8761 171.129 45.1797 165.963 45.1797 165.669C45.1797 165.543 45.4746 165.017 45.8117 164.492C46.1698 163.988 46.4436 163.526 46.4436 163.463C46.4436 163.379 48.6765 160.103 49.0136 159.725C49.1189 159.599 49.5613 158.99 50.0247 158.401C50.4671 157.792 50.9516 157.162 51.1201 156.994C51.8363 156.196 51.9206 156.007 51.9206 155.272V154.516L51.3307 154.894C51.0148 155.104 50.5724 155.503 50.3407 155.776C48.5712 157.96 43.8105 164.933 43.1575 166.32C43.0732 166.488 42.7783 166.992 42.5044 167.433C40.9877 169.848 38.2703 175.204 38.1018 176.107C37.9544 176.926 37.6805 177.031 37.4909 176.338C37.4277 176.086 37.2803 175.54 37.1749 175.141C36.9432 174.259 36.1217 169.071 36.1217 168.462C36.1217 167.937 35.6372 167.727 35.1738 168.084C34.8788 168.294 34.8367 168.609 34.921 169.89C35.1106 172.684 35.9953 178.123 36.543 179.867C36.6483 180.203 36.9432 181.148 37.196 181.967C37.4277 182.765 37.7226 183.626 37.8069 183.857C37.9122 184.088 38.1861 184.781 38.4178 185.37C38.6706 185.979 39.0497 186.945 39.2815 187.512C39.5132 188.079 39.7028 188.688 39.7028 188.877C39.7028 189.297 39.2815 189.549 39.0919 189.234C38.9865 189.066 38.6074 189.213 37.9333 189.675C35.7214 191.187 34.7314 191.713 32.983 192.238C31.7191 192.637 28.5382 192.91 28.2222 192.637C27.6746 192.217 25.7576 187.47 25.0414 184.802C23.0613 177.472 22.3661 172.747 22.3661 166.635C22.3661 162.581 22.4083 161.783 22.8296 160.187C23.2509 158.443 23.7986 157.036 24.3673 156.133C24.5148 155.902 25.0835 155.02 25.6312 154.138C26.1789 153.277 26.7056 152.458 26.8109 152.353C26.8951 152.226 27.2532 151.68 27.5692 151.134C27.8852 150.588 28.2433 150.147 28.3486 150.147C28.454 150.147 28.5382 150.042 28.5382 149.937C28.5382 149.685 31.6769 145.631 33.004 144.161C39.2604 137.23 45.6431 131.517 51.3939 127.758C52.4472 127.086 53.3319 126.456 53.353 126.351C53.3951 126.267 53.5215 126.204 53.6268 126.204C53.7743 126.204 55.6702 125.153 57.8188 123.893C58.4086 123.557 61.0629 122.255 62.1372 121.793C62.727 121.541 63.4853 121.205 63.8645 121.037C64.2226 120.869 64.5807 120.743 64.665 120.743C64.7492 120.743 65.1074 120.617 65.4655 120.449C66.287 120.092 68.4567 119.398 70.0366 118.999C75.0712 117.697 80.0215 117.697 84.4663 118.978C86.3411 119.525 87.3311 119.672 87.2469 119.42C87.1626 119.146 84.5926 117.802 84.1292 117.802C83.9607 117.802 83.729 117.718 83.6026 117.613C83.4973 117.508 82.5915 117.277 81.6014 117.088C79.2421 116.647 75.345 116.689 72.7751 117.172ZM40.756 190.641C40.9667 190.998 41.3669 191.629 41.6829 192.028C41.9778 192.427 42.2306 192.889 42.2306 193.036C42.2306 193.288 40.5032 195.556 39.6817 196.375C39.1551 196.9 36.6694 198.938 36.1428 199.295C35.8689 199.463 35.4265 199.778 35.1738 199.967C34.3522 200.597 34.4154 200.681 33.1094 197.509C32.3932 195.745 31.8455 194.044 31.9718 193.918C32.035 193.855 32.6038 193.666 33.2568 193.498C34.6471 193.141 38.2071 191.334 39.2815 190.473C39.6817 190.137 40.103 189.885 40.2083 189.927C40.3137 189.948 40.5664 190.263 40.756 190.641Z" fill="#222222"/>
<path d="M195.353 117.025C194.932 117.361 194.49 118.327 193.731 120.638C192.446 124.502 192.383 127.338 193.563 128.472C194.553 129.396 197.039 129.27 198.176 128.22L198.724 127.716L199.398 128.892C199.756 129.522 200.156 130.173 200.304 130.32C200.43 130.488 200.641 130.719 200.746 130.866C202.789 133.513 205.359 135.739 207.571 136.747C208.33 137.083 209.151 137.461 209.383 137.566C210.773 138.217 214.523 138.553 216.208 138.175C218.167 137.755 220.021 137.104 221.116 136.474C221.685 136.138 222.19 135.865 222.254 135.865C222.317 135.865 222.591 135.697 222.865 135.487C223.117 135.298 223.56 134.983 223.834 134.815C224.465 134.395 227.394 131.559 227.394 131.349C227.394 131.265 227.667 130.845 227.983 130.425C229.605 128.367 230.743 125.678 230.427 124.691C230.301 124.292 230.301 124.292 230.027 124.67C229.879 124.88 229.374 125.804 228.868 126.729C228.384 127.653 227.836 128.556 227.688 128.745C227.52 128.913 227.394 129.144 227.394 129.207C227.394 129.627 224.803 132.378 223.391 133.45C220.758 135.466 217.008 136.915 214.375 136.915C213.175 136.915 210.773 136.432 209.488 135.928C206.876 134.899 203.948 132.483 201.884 129.669C201.378 128.976 200.894 128.367 200.809 128.346C200.704 128.304 200.641 128.157 200.641 128.031C200.641 127.905 200.451 127.611 200.219 127.359C199.798 126.918 199.819 126.203 200.241 126.203C200.493 126.203 200.472 125.426 200.219 125.258C200.093 125.195 199.609 125.552 199.103 126.056C197.902 127.296 196.533 128.136 195.627 128.157C195.058 128.178 194.785 128.052 194.384 127.569C193.942 127.002 193.9 126.771 193.963 125.573C194.068 124.145 194.405 122.423 194.721 121.688C195.712 119.419 196.259 117.151 195.88 116.899C195.775 116.836 195.543 116.899 195.353 117.025Z" fill="#222222"/>
<path d="M86.6358 120.995C86.4462 121.331 86.362 122.36 86.3831 124.313C86.4041 127.191 86.699 128.745 87.6259 130.908C88.5317 133.051 90.4065 135.256 91.9864 136.075C93.0397 136.621 95.1883 136.663 95.9677 136.117C97.6108 135.004 97.8846 134.395 98.1796 131.139C98.327 129.627 98.5166 128.115 98.5798 127.737C98.6851 127.296 98.6219 126.918 98.4323 126.645L98.1164 126.204L97.6951 126.687C97.042 127.38 96.5786 128.976 96.5786 130.53C96.5786 132.525 95.8624 133.534 94.4089 133.555C93.3556 133.555 92.1549 132.925 90.9753 131.706C89.9009 130.593 88.3632 128.031 88.3632 127.296C88.3632 127.044 88.2789 126.834 88.1525 126.834C88.0261 126.834 87.9419 125.636 87.9419 123.683V120.533H87.4152C87.0993 120.533 86.8044 120.722 86.6358 120.995Z" fill="#222222"/>
<path d="M243.192 126.834C242.076 127.023 240.601 127.506 239.717 127.968C239.38 128.157 238.958 128.304 238.832 128.304C238.684 128.304 238.558 128.388 238.558 128.472C238.558 128.577 238.305 128.766 237.989 128.913C237.463 129.165 235.293 130.677 233.924 131.769C232.849 132.63 230.427 135.172 229.816 136.075C229.479 136.6 229.142 137.062 229.079 137.125C229.016 137.188 228.594 137.944 228.152 138.826C227.562 140.003 227.372 140.612 227.436 141.221C227.52 142.355 227.92 142.355 228.426 141.242C228.679 140.717 228.868 140.255 228.868 140.192C228.868 140.045 230.385 137.482 230.638 137.188C230.764 137.062 231.08 136.684 231.333 136.348C233.692 133.261 238.284 129.9 241.76 128.703C243.93 127.947 244.793 128.073 247.827 129.522C248.227 129.711 248.606 129.921 248.669 129.984C248.733 130.047 249.196 130.362 249.723 130.698C251.829 132.021 254.568 135.34 255.916 138.217C256.569 139.582 256.779 139.793 257.201 139.435C257.727 138.994 257.559 138.133 256.611 136.264C254.82 132.672 251.597 129.564 248.037 127.947C245.489 126.771 244.625 126.581 243.192 126.834Z" fill="#222222"/>
<path d="M143.028 126.96C141.911 127.107 139.236 127.737 139.025 127.884C138.92 127.968 138.583 128.115 138.288 128.199C136.898 128.619 133.696 131.139 132.263 132.966C131.779 133.576 129.019 137.566 129.019 137.65C129.019 137.776 126.049 142.187 125.543 142.775C125.312 143.069 124.911 143.51 124.659 143.783C124.385 144.056 124.174 144.329 124.174 144.392C124.174 144.497 122.91 145.694 121.983 146.45C121.646 146.745 120.951 147.186 120.425 147.438C118.592 148.383 117.433 150.525 117.433 152.983C117.433 154.39 118.023 156.784 118.76 158.338C119.708 160.334 122.299 162.875 124.385 163.862C126.007 164.618 128.893 165.227 129.588 164.975C129.925 164.828 129.925 164.786 129.44 164.429C129.146 164.198 128.787 164.009 128.64 164.009C128.261 164.009 125.691 163.085 124.764 162.602C123.521 161.972 121.773 160.418 121.099 159.346C120.762 158.8 120.425 158.338 120.34 158.338C120.235 158.338 120.172 158.212 120.172 158.065C120.172 157.939 120.003 157.519 119.814 157.183C119.287 156.28 119.287 151.596 119.814 150.672C120.003 150.315 120.172 149.916 120.172 149.769C120.172 149.643 120.256 149.517 120.361 149.517C120.467 149.517 120.593 149.328 120.656 149.097C120.72 148.866 120.909 148.677 121.099 148.677C121.288 148.677 121.436 148.572 121.436 148.467C121.436 148.341 121.52 148.257 121.646 148.257C122.257 148.257 124.701 146.051 126.365 143.972C127.376 142.712 129.862 139.036 129.862 138.805C129.862 138.679 129.925 138.595 130.03 138.595C130.115 138.595 130.367 138.259 130.599 137.839C131.041 137.02 132.39 135.109 132.916 134.584C133.085 134.395 133.232 134.185 133.232 134.08C133.232 133.975 134.012 133.134 134.981 132.21C136.202 131.013 137.171 130.299 138.183 129.795C139.952 128.934 142.501 128.304 144.165 128.304C145.408 128.304 149.179 128.997 149.832 129.354C150.021 129.459 150.674 129.753 151.243 130.026C153.539 131.055 155.582 132.714 157.562 135.13C158.974 136.852 159.816 137.755 159.985 137.755C160.259 137.755 159.88 136.474 159.29 135.319C158.7 134.164 157.268 132.273 156.425 131.517C155.498 130.698 152.949 128.997 152.402 128.829C152.107 128.745 151.833 128.619 151.77 128.535C151.664 128.43 149.452 127.695 147.873 127.254C147.093 127.044 143.891 126.855 143.028 126.96Z" fill="#222222"/>
<path d="M205.127 127.401C204.517 127.527 204.39 127.989 204.727 128.829C205.043 129.564 205.675 129.879 206.476 129.732C206.749 129.69 206.876 129.438 206.918 128.829C206.939 128.367 206.897 127.884 206.813 127.737C206.602 127.443 205.759 127.275 205.127 127.401Z" fill="#222222"/>
<path d="M100.307 131.601C100.455 131.643 100.771 132.147 101.024 132.673C101.971 134.773 101.445 142.397 99.9282 148.572C99.8018 149.034 99.5911 149.979 99.4226 150.672C98.896 152.941 98.1166 156.007 97.4635 158.233C96.305 162.182 95.9047 163.568 95.6309 164.429C94.388 168.231 94.2195 168.735 92.6396 173.104C92.0919 174.616 90.491 177.766 89.9012 178.481C89.1849 179.363 87.4997 181.232 85.6039 183.227C84.8244 184.025 83.7923 185.16 83.2867 185.727C82.7811 186.294 82.086 187.05 81.7279 187.407C80.8221 188.352 78.0415 191.524 77.3042 192.448C76.9671 192.889 76.5248 193.414 76.3562 193.624C76.1877 193.834 75.8928 194.212 75.7243 194.464C75.5558 194.716 75.1134 195.325 74.7553 195.808C74.0601 196.711 73.1965 198.224 73.1965 198.497C73.1965 199.001 74.4393 197.95 75.5558 196.48C76.272 195.535 77.1778 194.401 77.578 193.939C78.9473 192.322 80.0427 191.04 80.3586 190.704C80.5272 190.515 81.3908 189.57 82.2545 188.583C83.1182 187.617 84.7402 185.895 85.8356 184.781C88.6583 181.925 90.9544 179.384 91.1861 178.901C91.2915 178.691 91.46 178.502 91.5442 178.502C91.6917 178.502 93.2084 175.498 93.2084 175.225C93.2084 175.162 93.398 174.721 93.6086 174.238C94.051 173.272 94.9989 170.646 95.357 169.47C95.4624 169.071 95.652 168.651 95.7573 168.546C95.8626 168.42 95.9469 168.147 95.9469 167.916C95.9469 167.664 96.0732 167.223 96.2418 166.929C96.3892 166.635 96.5788 166.11 96.6631 165.774C96.7473 165.438 97.0844 164.219 97.4425 163.064C98.7064 158.822 98.6853 158.927 99.4015 155.797C99.549 155.146 99.7386 154.537 99.8018 154.411C99.865 154.306 100.076 153.55 100.244 152.752C100.434 151.953 100.729 150.693 100.918 149.937C101.34 148.173 101.824 145.632 102.077 143.636C102.182 142.775 102.372 141.305 102.498 140.381C102.751 138.637 102.667 136.138 102.287 134.248C101.993 132.673 101.129 131.433 100.392 131.475C100.16 131.475 100.139 131.517 100.307 131.601Z" fill="#222222"/>
<path d="M170.201 132.21C167.484 132.631 163.692 134.626 163.06 135.97C162.618 136.873 162.618 137.755 163.039 137.755C163.208 137.755 163.355 137.671 163.355 137.545C163.355 136.999 166.136 134.878 167.358 134.5C167.652 134.416 167.99 134.248 168.116 134.164C168.495 133.87 171.465 133.345 172.687 133.345C174.309 133.366 176.142 133.807 177.785 134.605C179.723 135.55 182.335 138.133 183.325 140.066C183.683 140.822 183.999 141.515 183.999 141.599C183.999 141.704 184.125 142.082 184.294 142.439C185.221 144.476 185.747 149.58 185.305 152.038C184.926 154.075 184.61 155.272 184.294 155.965C184.125 156.322 183.999 156.721 183.999 156.868C183.999 156.994 183.873 157.351 183.704 157.666C183.536 157.981 183.346 158.59 183.262 159.032C183.114 159.767 183.135 159.809 183.62 159.809C184.273 159.809 184.631 159.41 185.368 157.813C186.611 155.188 187.032 152.479 186.864 148.152C186.738 144.371 186.085 141.809 184.631 139.478C184.294 138.911 183.999 138.343 183.999 138.196C183.999 138.07 183.894 137.965 183.788 137.965C183.662 137.965 183.493 137.797 183.43 137.587C183.178 136.936 180.755 134.71 179.47 133.954C177.406 132.736 175.784 132.294 173.15 132.189C171.887 132.147 170.559 132.168 170.201 132.21Z" fill="#222222"/>
<path d="M143.343 135.046C142.29 135.193 141.342 135.55 139.657 136.432C138.835 136.873 135.971 139.771 135.971 140.192C135.971 140.255 135.823 140.612 135.655 140.969C135.191 141.956 134.496 144.077 134.496 144.476C134.496 145.232 133 149.979 132.663 150.315C132.516 150.462 132.39 150.735 132.39 150.903C132.39 151.155 132.474 151.155 132.811 150.987C133.043 150.861 133.232 150.63 133.232 150.462C133.232 150.294 133.316 150.147 133.422 150.147C133.632 150.147 134.707 147.816 134.707 147.354C134.707 147.165 134.791 146.976 134.896 146.913C135.002 146.829 135.149 146.387 135.233 145.883C135.318 145.4 135.465 144.896 135.549 144.791C135.634 144.665 135.781 144.245 135.865 143.846C136.139 142.544 137.508 140.002 138.498 138.994C140.921 136.495 145.134 135.298 148.357 136.201C149.874 136.621 151.769 137.377 151.769 137.545C151.769 137.755 153.476 138.238 153.623 138.07C153.834 137.86 152.338 136.558 151.327 136.075C150.822 135.823 150.232 135.529 150.042 135.424C149.052 134.899 145.576 134.71 143.343 135.046Z" fill="#222222"/>
<path d="M240.243 136.663C240.243 137.104 240.749 137.755 241.107 137.755C241.212 137.755 241.654 138.091 242.055 138.511C242.497 138.952 243.045 139.268 243.382 139.289C243.866 139.331 243.929 139.268 243.908 138.658C243.887 138.196 243.635 137.734 243.129 137.209C242.518 136.558 242.223 136.432 241.317 136.327C240.348 136.243 240.243 136.264 240.243 136.663Z" fill="#222222"/>
<path d="M146.735 138.301C144.355 139.037 141.595 141.011 141.49 142.061C141.405 142.649 141.427 142.649 141.932 142.313C142.227 142.124 142.711 141.725 143.027 141.452C143.343 141.158 144.418 140.528 145.408 140.045C147.051 139.268 147.346 139.184 148.926 139.163C150.906 139.142 151.306 139.352 153.181 141.284C154.339 142.502 154.845 142.586 154.487 141.557C154.192 140.696 152.191 138.89 151.032 138.385C149.895 137.902 148.125 137.86 146.735 138.301Z" fill="#222222"/>
<path d="M255.832 140.213C255.832 140.318 256.232 140.57 256.737 140.78C260.466 142.355 270.261 147.459 272.894 149.202C273.505 149.601 274.411 150.189 276.454 151.512C277.402 152.121 282.268 155.797 282.9 156.385C283.132 156.595 283.848 157.183 284.48 157.708C285.112 158.233 285.891 158.905 286.207 159.22C286.523 159.557 286.839 159.809 286.924 159.809C287.071 159.809 293.875 166.635 295.181 168.084C296.572 169.638 299.647 173.65 299.647 173.881C299.647 173.986 299.752 174.091 299.858 174.091C299.984 174.091 300.153 174.259 300.216 174.448C300.3 174.637 300.785 175.477 301.311 176.296C301.838 177.115 302.407 177.976 302.554 178.186C302.68 178.417 302.912 178.837 303.039 179.132C303.144 179.405 303.312 179.699 303.397 179.762C303.671 179.972 305.693 184.34 305.882 185.159C305.967 185.474 306.093 185.832 306.177 185.958C306.325 186.147 306.514 186.861 307.02 189.108C307.273 190.221 307.273 193.288 306.999 194.464C306.893 194.989 306.683 195.871 306.577 196.459C306.451 197.026 306.283 197.593 306.177 197.719C306.093 197.824 305.967 198.202 305.882 198.559C305.798 198.896 305.609 199.463 305.44 199.82C304.618 201.626 302.723 205.365 302.364 205.911C302.154 206.247 301.88 206.751 301.754 207.024C301.648 207.297 301.29 207.906 300.953 208.389C300.005 209.859 299.858 210.09 299.626 210.636C299.521 210.909 299.352 211.203 299.268 211.266C299.184 211.329 298.762 212.044 298.341 212.863C297.562 214.312 297.351 215.047 297.709 215.047C298.046 215.047 299.373 213.787 299.963 212.905C300.321 212.422 300.637 211.96 300.7 211.897C300.827 211.792 301.501 210.762 301.859 210.174C301.964 209.964 302.596 208.935 303.249 207.864C307.041 201.647 308.958 196.102 309 191.418C309 190.053 308.537 186.924 308.284 186.588C308.2 186.462 308.052 186.063 307.968 185.685C307.884 185.306 307.694 184.739 307.525 184.424C307.357 184.109 307.231 183.752 307.231 183.626C307.231 183.29 305.25 179.363 304.029 177.304C302.617 174.931 298.952 169.827 297.772 168.609C297.583 168.42 297.056 167.811 296.593 167.244C295.56 165.963 289.62 160.04 288.103 158.758C287.492 158.233 286.671 157.54 286.313 157.204C285.934 156.868 284.923 156.028 284.059 155.335C283.195 154.642 282.458 154.012 282.416 153.907C282.374 153.802 282.247 153.718 282.142 153.718C282.037 153.718 280.92 152.92 279.656 151.932C278.371 150.945 277.276 150.147 277.213 150.147C277.128 150.147 276.855 149.979 276.581 149.769C275.485 148.95 272.031 146.724 271.019 146.22C270.598 146.009 270.219 145.778 270.156 145.715C269.924 145.463 262.593 141.956 260.992 141.347C258.844 140.528 255.832 139.856 255.832 140.213Z" fill="#222222"/>
<path d="M87.1836 140.801C87.0993 140.969 87.0993 141.305 87.1625 141.557C87.2467 141.893 87.2046 141.956 86.8676 141.851C86.1935 141.641 86.3199 142.964 87.0361 143.573C87.7312 144.182 88.4053 144.182 89.1005 143.573C90.4065 142.46 89.7746 140.486 88.1315 140.486C87.5838 140.486 87.2467 140.591 87.1836 140.801Z" fill="#222222"/>
<path d="M57.6081 141.179C57.2079 141.431 56.8498 141.704 56.8076 141.788C56.7655 141.872 56.597 141.956 56.4285 141.956C56.2599 141.956 56.1335 142.04 56.1335 142.124C56.1335 142.376 53.69 144.056 53.3319 144.056C53.1634 144.056 52.9106 144.203 52.7631 144.371C52.6157 144.539 52.405 144.686 52.2997 144.686C52.1312 144.686 51.0779 145.358 50.5302 145.841C50.4038 145.946 50.0878 146.198 49.814 146.366C47.6443 147.858 46.4436 148.887 43.3891 151.932C40.7138 154.6 38.8601 156.595 38.8601 156.826C38.8601 156.91 38.5652 157.246 38.2281 157.582C37.8911 157.918 37.5541 158.359 37.4909 158.569C37.4066 158.8 37.2802 158.968 37.1959 158.968C37.1328 158.968 36.7746 159.493 36.4376 160.124C36.0795 160.754 35.7425 161.279 35.6582 161.279C35.5529 161.279 35.4897 161.405 35.4897 161.531C35.4897 161.678 35.3633 162.056 35.1948 162.35C35.0473 162.644 34.8366 163.442 34.7735 164.093L34.6049 165.29L35.1948 165.227C35.8267 165.164 35.7635 165.269 37.0696 162.476C38.1228 160.25 40.4189 157.162 42.5886 155.104C44.1896 153.55 45.9801 151.911 47.1808 150.882C47.9813 150.189 48.7818 149.475 48.9924 149.286C49.6665 148.614 54.8696 144.686 55.0592 144.686C55.1645 144.686 55.2909 144.602 55.3331 144.497C55.3752 144.392 55.965 143.867 56.6391 143.342C58.5982 141.83 59.3354 140.171 57.6081 141.179Z" fill="#222222"/>
<path d="M251.618 140.969C251.324 141.095 250.671 141.368 250.144 141.578C248.016 142.481 246.415 143.384 244.646 144.728C242.603 146.282 240.665 148.089 240.665 148.446C240.665 148.824 240.812 148.719 242.034 147.543C244.119 145.547 247.363 143.531 250.523 142.271C251.366 141.956 252.145 141.557 252.293 141.389C252.651 140.969 252.229 140.696 251.618 140.969Z" fill="#222222"/>
<path d="M233.881 141.053C232.955 141.284 233.987 142.586 235.082 142.586C235.251 142.586 236.03 143.216 236.788 143.972C238.537 145.716 239.063 145.653 238.558 143.804C238.41 143.3 238.01 142.754 237.378 142.229C235.946 141.032 235.082 140.738 233.881 141.053Z" fill="#222222"/>
<path d="M164.893 145.421C164.977 146.913 165.525 149.664 165.862 150.315C165.967 150.504 166.41 151.407 166.852 152.311C167.99 154.684 169.991 156.7 170.581 156.112C170.77 155.923 170.328 155.167 169.759 154.726C169.506 154.516 168.938 153.802 168.495 153.151C167.758 152.037 167.505 151.596 166.578 149.622C166.199 148.824 165.904 147.669 165.63 145.947C165.504 145.19 165.272 144.434 165.104 144.266C164.83 143.993 164.809 144.119 164.893 145.421Z" fill="#222222"/>
<path d="M227.92 144.476C227.73 145.064 227.899 145.253 228.847 145.379C229.984 145.526 231.838 146.807 233.502 148.572C235.883 151.092 236.262 151.428 236.746 151.365C237.736 151.218 237.357 150.504 235.04 148.131C233.292 146.345 232.386 145.589 231.185 144.917C229.374 143.93 228.152 143.762 227.92 144.476Z" fill="#222222"/>
<path d="M84.8244 146.723C83.5816 147.207 83.1181 148.719 83.9818 149.517C84.5295 150.021 85.014 150.042 85.8355 149.622C86.5307 149.265 86.7624 148.719 86.5728 147.837C86.3832 146.997 85.5406 146.45 84.8244 146.723Z" fill="#222222"/>
<path d="M156.109 148.299C155.919 148.551 155.772 148.887 155.772 149.013C155.772 149.16 155.646 149.538 155.477 149.874C155.309 150.189 154.866 151.113 154.487 151.932C153.56 153.844 152.086 155.776 150.169 157.603C149.326 158.401 148.504 159.178 148.357 159.283C147.725 159.787 145.871 161.069 145.766 161.069C145.724 161.069 145.197 161.363 144.586 161.699C142.901 162.707 140.184 163.547 137.551 163.883C135.17 164.219 133.422 164.66 133.022 165.059C132.621 165.458 132.621 165.479 133.043 165.71C133.906 166.151 138.288 165.521 141.764 164.429C142.922 164.051 143.954 163.673 144.081 163.568C144.186 163.463 144.418 163.379 144.607 163.379C145.113 163.379 147.156 162.287 148.673 161.216C149.937 160.313 151.096 159.157 152.507 157.393C152.865 156.973 153.244 156.511 153.349 156.364C153.56 156.133 154.171 155.251 154.656 154.453C154.803 154.222 155.014 153.781 155.161 153.445C155.287 153.129 155.477 152.877 155.582 152.877C155.688 152.877 155.772 152.751 155.772 152.604C155.772 152.478 155.898 152.1 156.067 151.806C156.53 150.903 157.289 148.278 157.141 148.047C156.931 147.69 156.446 147.816 156.109 148.299Z" fill="#222222"/>
<path d="M158.868 148.194C158.405 148.635 158.953 151.933 159.732 153.445C159.837 153.655 159.985 154.075 160.069 154.39C160.196 154.915 160.153 154.978 159.627 154.999C159.29 154.999 158.658 155.167 158.194 155.356C156.214 156.217 155.456 156.973 155.709 157.876C155.898 158.612 156.593 158.591 157.899 157.813C158.552 157.393 159.521 157.015 160.069 156.952C160.954 156.826 161.08 156.868 161.712 157.54C162.091 157.939 162.702 158.633 163.081 159.095C164.704 161.09 166.41 162.56 169.338 164.492C172.35 166.488 173.087 166.824 174.162 166.677C174.625 166.614 175.068 166.467 175.131 166.362C175.194 166.257 175.784 165.816 176.416 165.354C177.469 164.618 177.701 164.555 178.944 164.534C180.629 164.534 181.261 164.913 181.998 166.467C182.82 168.189 182.693 169.638 181.514 171.949C180.839 173.251 178.396 174.427 175.531 174.826C174.983 174.91 174.436 175.099 174.288 175.267C173.93 175.687 174.899 175.855 176.921 175.708C181.556 175.372 184.399 171.844 183.62 167.37C183.325 165.606 182.63 164.429 181.429 163.652C180.671 163.148 180.355 163.064 178.965 163.064C177.258 163.064 176.711 163.274 174.92 164.681C174.499 164.997 173.972 165.27 173.783 165.27C172.266 165.27 166.789 160.376 163.777 156.343C161.544 153.34 160.406 151.239 160.006 149.286C159.922 148.887 159.774 148.425 159.69 148.299C159.521 148.026 159.079 147.963 158.868 148.194Z" fill="#222222"/>
<path d="M247.258 152.73C247.132 153.003 246.542 153.739 245.952 154.39C244.793 155.671 244.667 155.986 245.257 156.511C245.805 157.015 245.973 156.973 246.9 156.07C248.691 154.327 249.238 153.234 248.669 152.562C248.269 152.079 247.511 152.163 247.258 152.73Z" fill="#222222"/>
<path d="M269.46 153.025C269.376 153.088 269.313 153.424 269.313 153.739C269.313 154.39 269.861 154.915 271.335 155.629C272.136 156.007 272.389 156.049 272.81 155.839C273.21 155.671 273.336 155.482 273.273 155.041C273.231 154.621 272.957 154.369 272.094 153.928C271.483 153.613 270.872 153.256 270.745 153.13C270.472 152.857 269.671 152.794 269.46 153.025Z" fill="#222222"/>
<path d="M236.873 153.697C236.873 153.844 237.062 154.327 237.273 154.747C237.505 155.167 237.968 156.112 238.305 156.868C238.663 157.624 239.274 158.968 239.695 159.872C240.117 160.754 240.454 161.552 240.454 161.615C240.454 161.699 240.812 162.581 241.507 164.114C241.612 164.345 241.907 165.059 242.139 165.689C242.392 166.32 242.687 167.034 242.792 167.265C242.897 167.496 243.108 168.063 243.255 168.525C243.782 170.037 244.709 172.516 244.899 172.936C245.109 173.419 246.921 178.942 247.595 181.232C248.374 183.773 248.711 184.844 249.006 185.748C249.575 187.47 249.596 188.184 249.133 189.087C248.501 190.368 248.058 191.544 247.911 192.427C247.848 192.847 247.7 193.246 247.616 193.309C247.384 193.456 247.11 195.619 247.258 196.039C247.405 196.375 248.037 196.249 248.037 195.85C248.058 195.724 248.227 195.241 248.459 194.779C248.69 194.317 248.859 193.834 248.88 193.687C248.88 193.561 248.943 193.414 249.048 193.372C249.133 193.33 249.449 192.805 249.765 192.175C250.312 191.082 250.333 191.04 250.523 191.544C250.776 192.175 251.176 193.771 251.492 195.304C251.618 195.934 251.787 196.543 251.85 196.669C251.934 196.774 252.061 197.404 252.145 198.034C252.229 198.665 252.377 199.337 252.482 199.526C252.566 199.715 252.756 200.387 252.861 200.996C252.988 201.626 253.261 202.97 253.493 204.02C256.264 216.086 258.008 229.957 257.432 242.246C257.101 249.829 256.705 257.534 255.157 264.993L254.883 266.085H213.343L213.195 262.892C213.132 261.128 212.964 259.07 212.858 258.314C212.226 253.945 211.573 250.269 210.857 247.077C210.668 246.258 210.436 245.187 210.331 244.662C210.225 244.136 209.994 243.212 209.804 242.624C209.635 242.015 209.32 240.965 209.151 240.314C208.961 239.642 208.688 238.718 208.54 238.256C208.393 237.793 208.077 236.701 207.824 235.84C207.55 234.979 207.255 234.076 207.15 233.845C207.066 233.614 206.728 232.669 206.412 231.745C206.097 230.82 205.759 229.98 205.675 229.854C205.57 229.749 205.486 229.539 205.486 229.371C205.486 228.993 203.421 224.204 201.862 220.949C200.535 218.197 197.755 213.304 197.439 213.199C197.354 213.157 197.27 213.01 197.27 212.884C197.27 212.674 194.827 208.998 194.174 208.221C194.089 208.095 193.837 207.759 193.647 207.465C193.457 207.171 193.162 206.772 193.015 206.625C192.868 206.457 192.32 205.806 191.793 205.175C191.288 204.545 190.298 203.432 189.581 202.697C188.886 201.962 188.296 201.29 188.254 201.185C188.212 201.059 188.086 200.975 187.98 200.975C187.875 200.975 187.517 200.702 187.201 200.387C186.401 199.568 184.126 197.824 182.735 196.942C179.934 195.157 178.185 194.443 175.826 194.149C174.878 194.023 174.752 194.044 174.857 194.338C174.92 194.527 175.089 194.674 175.194 194.674C176.015 194.674 181.366 197.698 183.894 199.589C186.653 201.647 190.761 205.953 192.847 208.956C193.12 209.355 193.436 209.712 193.521 209.754C193.605 209.796 193.689 209.901 193.689 209.985C193.689 210.09 194.279 211.056 195.016 212.128C196.217 213.934 196.786 214.9 197.67 216.622C197.86 216.958 198.05 217.294 198.113 217.357C198.176 217.42 198.513 218.029 198.85 218.723C199.208 219.416 199.524 220.025 199.587 220.088C200.009 220.508 202.621 226.557 204.327 231.009C204.475 231.409 204.748 232.123 204.938 232.585C205.38 233.719 207.592 241.049 207.592 241.427C207.592 241.595 207.676 241.889 207.803 242.099C207.992 242.456 208.182 243.191 208.772 245.985C208.919 246.783 209.109 247.497 209.172 247.602C209.362 247.917 210.394 253.609 210.857 256.948C211.447 261.002 211.573 262.367 211.573 264.237L211.595 266.085H186.738L186.864 264.867C186.927 264.215 187.075 262.955 187.18 262.094C187.496 259.637 187.643 236.008 187.391 226.914C187.054 214.102 186.611 210.069 185.453 209.124C184.252 208.116 180.46 207.507 170.623 206.709C166.62 206.394 163.355 206.331 146.503 206.331C132.811 206.352 126.238 206.415 124.385 206.604C122.931 206.73 120.424 206.961 118.824 207.066C115.095 207.339 112.062 207.822 111.409 208.242C111.135 208.431 110.819 208.914 110.692 209.355C110.419 210.321 110.419 226.809 110.692 232.06C110.798 234.202 110.987 238.676 111.114 242.036C111.219 245.376 111.366 248.421 111.43 248.757C111.514 249.282 111.303 249.786 110.397 251.278C107.849 255.499 105.932 259.952 105.826 261.884C105.763 263.459 105.805 263.606 106.311 263.522C106.648 263.48 106.837 263.249 106.964 262.724C107.49 260.561 107.933 259.217 108.839 257.053C109.576 255.289 110.566 253.189 110.692 253.063C110.756 253 110.987 252.664 111.219 252.328L111.64 251.698L111.893 255.163C112.146 258.881 112.63 262.577 112.988 263.774C113.115 264.173 113.22 264.762 113.22 265.056V265.623L81.5803 265.581C52.5946 265.56 49.6034 265.602 46.1276 265.938C42.1674 266.316 40.3136 266.694 40.1662 267.093C40.0608 267.429 37.849 267.408 84.1502 267.45C157.731 267.513 193.12 267.597 199.798 267.765C207.276 267.954 265.795 268.101 266.069 267.912C266.174 267.849 273.042 267.744 281.32 267.681C299.584 267.534 304.997 267.408 306.872 267.093C308.305 266.862 308.305 266.841 307.757 266.547C306.577 265.938 302.87 265.833 288.651 265.938C276.791 266.022 274.622 266.001 274.874 265.77C275.022 265.602 275.401 265.413 275.717 265.329C276.012 265.266 276.328 265.119 276.391 265.014C276.454 264.909 277.992 264.825 279.804 264.804C284.564 264.783 289.199 264.342 290.484 263.795C290.715 263.69 291.579 263.396 292.379 263.144C293.201 262.892 294.107 262.535 294.423 262.388C296.213 261.464 300.131 261.59 301.753 262.619L302.533 263.123L302.807 262.64C306.982 254.836 294.026 213.283 290.378 205.281C290.273 205.049 289.957 204.104 289.662 203.18C289.346 202.256 289.009 201.311 288.925 201.08C288.819 200.849 288.335 199.526 287.871 198.139C286.481 194.065 286.376 193.75 286.165 193.309C286.06 193.078 285.765 192.364 285.533 191.733C285.302 191.103 285.007 190.389 284.901 190.158C284.796 189.927 284.459 189.129 284.143 188.373C282.542 184.445 279.867 179.195 278.708 177.703C277.107 175.624 276.201 175.12 277.044 176.758C279.403 181.337 280.667 183.857 281.152 184.907C281.468 185.601 282.058 186.924 282.479 187.848C282.9 188.772 283.385 189.822 283.553 190.2C283.722 190.557 283.848 190.956 283.848 191.103C283.848 191.25 283.974 191.607 284.143 191.901C284.627 192.868 285.112 194.044 285.112 194.317C285.112 194.464 285.238 194.8 285.386 195.094C285.533 195.388 285.87 196.27 286.144 197.089C286.397 197.887 286.755 198.833 286.902 199.19C287.05 199.526 287.303 200.219 287.429 200.681L287.682 201.563C286.165 204.498 277.61 211.362 272.515 212.443C267.419 213.523 258.85 213.966 256.821 212.443C256.59 211.035 256.021 207.906 255.621 205.911C254.357 199.673 254.083 198.412 253.914 198.139C253.83 198.013 253.725 197.551 253.641 197.089C253.556 196.627 253.367 195.766 253.198 195.199C253.03 194.611 252.651 193.246 252.335 192.154C252.04 191.061 251.703 189.738 251.618 189.213C251.513 188.688 251.302 187.974 251.113 187.638C250.923 187.281 250.776 186.819 250.776 186.588C250.776 186.378 250.649 185.811 250.481 185.327C250.333 184.865 250.038 183.962 249.87 183.332C249.301 181.4 248.648 179.321 248.1 177.766C247.806 176.947 247.511 176.002 247.405 175.666C247.068 174.511 245.257 169.554 244.793 168.525C244.625 168.168 244.14 166.992 243.719 165.9C243.277 164.807 242.855 163.757 242.771 163.589C242.371 162.791 241.296 160.439 240.875 159.389C240.601 158.758 240.285 158.086 240.159 157.918C240.033 157.75 239.822 157.414 239.695 157.183C239.358 156.574 238.895 155.776 238.726 155.524C238.284 154.831 236.873 153.445 236.873 153.697ZM166.094 208.221C175.068 208.746 176.058 208.83 179.891 209.376C183.725 209.943 184.631 210.3 184.631 211.287C184.631 211.981 184.252 212.065 182.946 211.687C180.039 210.804 172.097 209.88 162.934 209.355C157.963 209.082 135.044 209.229 131.758 209.565C130.536 209.691 128.071 209.88 126.281 210.006C120.551 210.363 115.137 211.098 114.126 211.644C113.136 212.191 113.115 212.38 113.157 220.298C113.178 224.393 113.283 228.846 113.41 230.169C113.515 231.492 113.684 233.614 113.747 234.895C113.81 236.155 113.979 238.424 114.084 239.936C114.695 247.623 114.905 250.458 115.116 252.748C115.348 255.52 115.853 260.729 116.169 263.648C116.275 264.678 116.317 265.602 116.254 265.707C116.085 265.98 114.568 265.896 114.316 265.602C114.189 265.476 114.042 263.795 113.979 261.884C113.894 259.973 113.705 256.381 113.536 253.903C112.378 237.352 111.661 211.014 112.335 209.859C112.609 209.355 112.651 209.355 116.38 208.872C118.634 208.578 130.367 207.969 136.708 207.822C142.501 207.675 161.165 207.927 166.094 208.221ZM152.717 231.661C153.349 231.892 153.876 232.186 153.876 232.291C153.876 232.396 154.002 232.48 154.15 232.48C154.508 232.501 155.688 234.139 156.13 235.252C156.53 236.26 156.635 238.508 156.277 238.739C156.151 238.823 155.982 239.075 155.898 239.327C155.666 240.041 154.466 241.133 153.265 241.679C152.338 242.099 151.917 242.183 150.948 242.078C148.862 241.889 146.777 240.566 145.892 238.886C143.596 234.433 147.893 229.854 152.717 231.661Z" fill="#222222"/>
<path d="M149.663 166.215C149.663 167.181 146.967 167.433 143.786 166.74C142.712 166.509 141.764 166.362 141.637 166.425C141.532 166.509 141.448 166.761 141.448 167.034C141.448 167.559 142.164 168 143.028 168C143.428 168 143.554 168.105 143.554 168.462C143.554 168.735 143.702 169.47 143.87 170.1C144.312 171.801 145.281 172.389 146.398 171.654C146.819 171.381 146.714 171.717 145.597 173.902C144.355 176.338 144.291 176.569 144.228 178.207C144.165 179.636 144.207 180.035 144.544 180.476C144.755 180.77 145.008 181.022 145.113 181.022C145.218 181.022 145.492 181.19 145.703 181.379C146.019 181.652 146.482 181.736 147.62 181.736C149.368 181.736 150.948 181.211 152.739 180.077C153.623 179.51 153.876 179.237 153.876 178.816C153.876 178.375 153.771 178.291 153.265 178.291C152.907 178.291 152.086 178.606 151.411 179.005C148.82 180.518 146.967 180.728 145.935 179.636C145.471 179.132 145.408 178.921 145.513 178.06C145.576 177.514 145.745 176.884 145.85 176.674C145.977 176.464 146.293 175.729 146.588 175.036C147.009 173.986 147.83 172.347 149.6 169.05C149.747 168.756 149.874 168.399 149.874 168.252C149.874 168.126 149.979 168 150.084 168C150.211 168 150.295 167.517 150.295 166.95C150.295 166.152 150.211 165.899 149.979 165.899C149.81 165.899 149.663 166.047 149.663 166.215ZM148.188 168.84C148.188 168.945 147.999 169.344 147.746 169.722C147.493 170.1 147.367 170.247 147.43 170.037C147.493 169.827 147.557 169.407 147.557 169.134C147.557 168.819 147.683 168.63 147.873 168.63C148.041 168.63 148.188 168.714 148.188 168.84Z" fill="#222222"/>
<path d="M155.414 166.887C155.245 167.328 156.067 168 156.741 168C157.204 168 157.246 168.084 157.246 169.092C157.246 169.995 157.352 170.289 157.815 170.772C158.953 171.969 160.596 171.318 160.933 169.554C161.164 168.231 161.354 168.021 162.47 167.958C163.313 167.895 163.461 167.832 163.524 167.412C163.566 167.16 163.461 166.908 163.313 166.866C163.166 166.803 161.354 166.719 159.29 166.676C156.003 166.571 155.519 166.613 155.414 166.887Z" fill="#222222"/>
<path d="M134.896 167.097C134.791 168.336 135.212 172.075 135.549 173.041C135.654 173.335 135.928 174.28 136.181 175.141C136.434 176.002 136.708 176.905 136.813 177.136C136.918 177.367 137.34 178.459 137.782 179.552C138.519 181.463 139.657 183.878 140.542 185.433C141.321 186.798 142.669 188.898 143.027 189.297C143.154 189.423 143.617 190.011 144.059 190.578C144.523 191.166 145.344 192.07 145.913 192.616C146.903 193.603 146.903 193.624 146.44 193.855C146.187 194.002 145.724 194.317 145.408 194.59C145.092 194.842 144.713 195.094 144.586 195.136C143.912 195.367 146.103 199.169 148.146 201.311C149.22 202.466 150.758 203.705 151.095 203.705C151.201 203.705 151.411 203.831 151.538 203.999C151.664 204.146 152.486 204.482 153.37 204.755C154.74 205.155 155.329 205.218 157.12 205.134C160.912 204.945 163.945 203.663 167.779 200.618C169.401 199.337 171.781 196.816 171.781 196.375C171.781 196.249 171.866 196.144 171.95 196.144C172.16 196.144 172.624 195.199 172.624 194.758C172.624 194.506 172.455 194.485 171.887 194.59C171.465 194.653 171.023 194.632 170.875 194.506C170.538 194.212 168.2 193.414 167.737 193.414C167.526 193.414 167.358 193.372 167.358 193.309C167.358 193.246 168.011 192.385 168.79 191.355C170.37 189.36 171.234 187.995 171.971 186.378C172.224 185.79 172.561 185.033 172.729 184.697C172.877 184.34 173.214 183.395 173.466 182.597C173.719 181.778 174.014 180.917 174.119 180.644C174.225 180.371 174.309 179.741 174.309 179.237C174.309 177.43 173.277 178.291 172.287 180.875C170.644 185.223 169.738 187.155 168.39 189.108C167.358 190.557 165.314 192.7 164.092 193.54C162.344 194.758 159.29 195.808 156.825 196.081C153.813 196.375 149.536 194.254 146.503 190.956C144.923 189.234 144.186 188.352 144.186 188.163C144.186 188.058 144.06 187.89 143.912 187.806C143.765 187.722 143.406 187.26 143.133 186.798C142.859 186.336 142.564 185.916 142.501 185.853C142.416 185.79 142.227 185.496 142.058 185.181C141.258 183.626 140.184 181.463 139.91 180.812C139.72 180.413 139.383 179.636 139.151 179.09C138.899 178.544 138.709 178.039 138.709 177.976C138.709 177.892 138.583 177.535 138.414 177.178C138.267 176.8 137.93 175.834 137.677 175.036C137.424 174.217 137.108 173.23 136.982 172.831C136.855 172.432 136.623 171.528 136.476 170.835C136.097 169.008 135.844 168.126 135.528 167.391C135.212 166.677 134.938 166.551 134.896 167.097Z" fill="#222222"/>
<path d="M82.1492 172.347C82.0649 172.915 81.9385 173.587 81.8332 173.881C81.7279 174.175 81.5804 174.742 81.4962 175.141C81.3698 175.834 80.0427 178.102 79.6846 178.249C79.5792 178.291 79.516 178.438 79.516 178.564C79.516 178.69 79.3897 178.943 79.2211 179.111C79.0737 179.3 78.863 179.657 78.7998 179.909C78.6734 180.287 78.7366 180.392 79.0315 180.392C79.3897 180.371 81.1591 178.249 81.7911 177.031C82.0228 176.632 82.8654 172.326 82.8865 171.507C82.8865 171.423 82.7601 171.36 82.5916 171.36C82.3809 171.36 82.2335 171.696 82.1492 172.347Z" fill="#222222"/>
<path d="M262.994 171.549C262.994 171.654 262.572 172.138 262.046 172.642C260.718 173.923 260.761 174.931 262.151 174.931C262.509 174.931 264.005 173.461 264.426 172.684C264.552 172.453 264.594 172.075 264.531 171.823C264.447 171.465 264.257 171.36 263.71 171.36C263.309 171.36 262.994 171.444 262.994 171.549Z" fill="#222222"/>
<path d="M293.686 174.553C293.222 174.805 293.222 175.603 293.707 175.897C293.917 176.023 294.402 176.212 294.802 176.296C295.202 176.38 295.645 176.548 295.792 176.653C296.256 177.031 296.909 176.632 296.909 175.96C296.909 175.624 296.887 175.351 296.845 175.351C296.824 175.351 296.171 175.12 295.413 174.847C294.444 174.511 293.917 174.406 293.686 174.553Z" fill="#222222"/>
<path d="M243.508 176.233C243.255 176.884 242.392 180.203 241.928 182.177C241.802 182.744 241.612 183.416 241.507 183.647C241.402 183.878 241.254 184.403 241.191 184.802C241.107 185.202 240.917 185.958 240.77 186.483C239.843 189.486 238.769 194.506 238.726 196.039C238.663 197.551 241.149 202.256 243.298 204.713C245.046 206.709 248.732 210.111 249.701 210.615C250.102 210.846 250.144 210.804 250.144 210.258C250.144 209.775 249.828 209.355 248.732 208.305C244.33 204.125 243.508 203.18 241.781 200.45C241.36 199.799 240.728 198.455 240.264 197.257C239.822 196.144 239.822 195.178 240.243 193.729C240.348 193.372 240.496 192.574 240.559 191.944C240.643 191.313 240.791 190.683 240.875 190.578C240.959 190.452 241.107 189.843 241.191 189.213C241.275 188.583 241.423 187.932 241.507 187.743C241.591 187.575 241.886 186.63 242.139 185.643C242.392 184.655 242.729 183.437 242.897 182.912C243.824 179.888 244.351 175.981 243.824 175.981C243.698 175.981 243.55 176.107 243.508 176.233Z" fill="#222222"/>
<path d="M285.238 179.531C285.154 179.636 285.449 179.93 285.849 180.182C286.249 180.434 286.587 180.728 286.587 180.833C286.587 180.938 286.713 181.022 286.86 181.022C287.556 181.022 292.906 187.47 292.906 188.31C292.906 188.457 292.99 188.583 293.096 188.583C293.201 188.583 293.327 188.751 293.412 188.94C293.475 189.15 293.707 189.591 293.917 189.948C294.718 191.292 295.497 192.511 296.066 193.309C296.445 193.876 296.592 194.275 296.487 194.464C296.403 194.632 296.255 195.199 296.171 195.724C296.087 196.249 295.939 196.753 295.855 196.879C295.771 196.984 295.602 197.656 295.455 198.349C295.329 199.043 295.034 200.261 294.802 201.08C293.791 204.545 293.749 204.755 293.98 205.217C294.317 205.848 294.633 205.406 295.202 203.495C295.476 202.634 295.771 201.731 295.855 201.5C295.961 201.269 296.255 200.324 296.508 199.4C296.761 198.475 297.224 196.816 297.54 195.724C298.846 191.229 299.141 189.108 298.446 189.255C298.214 189.297 297.962 189.675 297.772 190.263C297.119 192.385 297.203 192.342 296.277 190.914C295.813 190.2 295.434 189.528 295.434 189.423C295.434 189.339 295.371 189.213 295.286 189.171C295.076 189.087 294.17 187.806 294.17 187.617C294.17 187.533 293.833 187.071 293.433 186.567C293.032 186.084 292.695 185.621 292.695 185.579C292.695 185.306 288.272 180.686 287.408 180.056C286.481 179.363 285.47 179.131 285.238 179.531Z" fill="#222222"/>
<path d="M158.152 185.958C156.994 186.882 155.646 187.365 154.445 187.281C153.539 187.239 153.349 187.281 153.286 187.596C153.139 188.31 153.644 188.583 155.077 188.583C156.425 188.583 157.078 188.331 158.847 187.176C159.5 186.756 159.816 186.063 159.521 185.685C159.206 185.306 158.911 185.369 158.152 185.958Z" fill="#222222"/>
<path d="M243.593 187.449C243.382 187.722 243.403 187.89 243.719 188.436C244.351 189.507 244.793 189.885 245.341 189.801C246.099 189.696 246.078 188.94 245.299 187.953C244.583 187.071 244.056 186.903 243.593 187.449Z" fill="#222222"/>
<path d="M272.81 190.389C272.557 191.061 272.705 191.44 273.379 191.839C273.737 192.049 274.095 192.28 274.158 192.343C274.39 192.616 275.612 193.204 275.928 193.204C276.096 193.204 276.412 192.952 276.623 192.658C276.981 192.112 276.96 192.091 276.349 191.587C274.58 190.158 273.105 189.654 272.81 190.389Z" fill="#222222"/>
<path d="M48.5502 193.099C48.5502 193.435 48.6766 193.624 51.4572 197.404C52.363 198.623 53.3741 200.03 53.7112 200.555C54.0693 201.08 54.4485 201.605 54.5538 201.731C54.6802 201.857 54.9119 202.193 55.0804 202.466C55.2489 202.718 55.7756 203.369 56.239 203.894C56.7024 204.42 57.1869 204.966 57.2923 205.134C57.9032 205.911 60.0729 207.99 60.8733 208.536C61.8634 209.208 62.2426 209.313 62.2426 208.893C62.2426 208.599 58.4719 203.768 57.2291 202.466C56.7656 201.962 56.1126 201.185 55.7756 200.702C55.4596 200.219 55.1015 199.715 54.9751 199.589C54.8698 199.463 54.617 199.127 54.4485 198.875C54.2799 198.623 54.0272 198.287 53.9218 198.161C53.7954 198.035 53.4163 197.551 53.0792 197.089C52.2788 196.039 51.6679 195.325 50.3197 193.918C49.2454 192.805 48.5502 192.469 48.5502 193.099Z" fill="#222222"/>
<path d="M301.248 195.367C300.89 195.64 300.89 195.724 301.395 197.215C301.88 198.664 301.943 198.769 302.512 198.769C303.102 198.769 303.123 198.727 303.102 197.803C303.059 196.564 302.322 195.115 301.732 195.094C301.669 195.094 301.458 195.22 301.248 195.367Z" fill="#222222"/>
<path d="M141.3 197.467C140.816 197.845 139.868 198.517 139.215 198.98C138.098 199.757 136.223 201.353 134.117 203.327C133.422 203.978 133.232 204.314 133.274 204.734C133.316 205.028 133.443 205.281 133.59 205.281C133.717 205.281 134.349 204.797 134.959 204.209C135.57 203.621 137.171 202.34 138.498 201.332C139.825 200.345 141.089 199.379 141.3 199.19C141.49 199.022 141.7 198.875 141.763 198.875C142.016 198.875 143.343 197.404 143.343 197.11C143.343 196.543 142.269 196.732 141.3 197.467Z" fill="#222222"/>
<path d="M261.877 198.496C260.866 199.841 260.613 200.555 260.908 201.101C261.371 201.962 262.024 201.752 262.783 200.492C263.141 199.904 263.541 199.232 263.668 199.043C263.878 198.77 263.836 198.601 263.541 198.265C262.972 197.635 262.467 197.719 261.877 198.496Z" fill="#222222"/>
<path d="M173.066 200.534C172.287 201.29 169.022 203.306 167.884 203.726C167.295 203.936 167.021 204.167 166.979 204.503C166.936 204.755 167.021 204.965 167.168 204.965C167.316 204.965 168.601 204.398 170.033 203.705C172.708 202.382 174.309 201.122 174.309 200.324C174.309 199.736 173.783 199.841 173.066 200.534Z" fill="#222222"/>
<path d="M143.343 200.618C143.343 200.786 143.533 201.08 143.765 201.29C143.997 201.5 144.186 201.752 144.186 201.857C144.186 202.151 146.482 204.335 146.798 204.335C147.472 204.335 147.177 203.81 145.724 202.382C144.881 201.542 144.186 200.744 144.186 200.597C144.186 200.471 143.997 200.345 143.765 200.345C143.533 200.345 143.343 200.471 143.343 200.618Z" fill="#222222"/>
<path d="M50.3196 202.823C48.6555 204.104 46.9492 205.533 46.1487 206.331C45.1376 207.339 42.8625 209.25 42.7993 209.145C41.3248 207.024 39.6396 205.197 39.134 205.176C38.7548 205.176 38.797 205.911 39.1761 206.226C39.3447 206.373 39.4921 206.583 39.4921 206.688C39.4921 206.793 39.8292 207.297 40.2294 207.78C40.6296 208.284 40.9667 208.746 40.9667 208.83C40.9667 208.914 41.1773 209.25 41.409 209.586L41.8725 210.195L40.2294 211.729C38.0386 213.766 35.4897 216.37 35.4897 216.559C35.4897 216.937 34.8788 216.685 34.5207 216.16C33.3411 214.522 29.7179 211.077 29.444 211.33C29.3598 211.435 30.392 212.947 30.8554 213.367C31.6559 214.102 34.0152 217.399 34.0152 217.798C34.0152 217.925 33.6149 218.492 33.1304 219.017C31.066 221.243 29.1702 223.637 29.1702 223.994C29.1702 224.057 28.9595 224.373 28.7067 224.709C28.4118 225.129 28.3276 225.423 28.454 225.549C28.5804 225.675 29.7811 224.646 31.8033 222.608C33.5517 220.886 35.0263 219.458 35.1106 219.458C35.1738 219.458 35.3423 219.71 35.4687 220.025C35.5951 220.361 35.9742 221.117 36.3113 221.726C36.6483 222.356 37.1328 223.301 37.3856 223.826C37.6173 224.373 37.9965 225.108 38.2282 225.486C38.4389 225.843 39.0287 226.893 39.5132 227.796C39.9977 228.699 40.4822 229.581 40.6086 229.77C40.756 230.022 40.4611 230.463 39.1551 231.787C37.0064 233.992 34.6261 236.575 33.8677 237.521C33.32 238.214 33.0251 238.571 32.4142 239.264C31.8455 239.915 31.066 241.49 31.2556 241.616C31.4873 241.742 33.32 240.125 35.4687 237.899C36.227 237.1 37.3013 235.966 37.8701 235.378C38.4178 234.811 38.8602 234.307 38.8602 234.265C38.8602 234.202 39.471 233.53 40.2083 232.753L41.5565 231.346L42.7783 232.648C43.979 233.929 44.6741 234.328 44.4003 233.572C44.316 233.383 44.2107 233.173 44.1475 233.11C44.0633 233.047 43.8947 232.774 43.7473 232.48C43.5998 232.186 43.2838 231.619 43.0732 231.22C42.8625 230.82 42.673 230.421 42.6519 230.358C42.6519 230.295 43.0943 229.728 43.663 229.077C45.0323 227.502 46.8649 225.234 47.4547 224.373C48.2342 223.196 49.1821 221.726 49.1821 221.642C49.1821 221.6 49.0768 221.558 48.9293 221.558C48.6765 221.558 47.7497 222.503 45.7063 224.835C43.5156 227.334 42.1674 228.72 41.9357 228.636C41.7461 228.573 40.756 226.977 40.3558 226.032C40.2294 225.78 39.9134 225.213 39.6396 224.772C39.3657 224.33 38.5863 222.923 37.9333 221.663C37.2592 220.382 36.5851 219.206 36.4166 219.017C36.2481 218.849 36.1217 218.597 36.1217 218.492C36.1217 217.883 42.378 211.54 42.673 211.834C42.7783 211.939 43.1996 212.716 43.663 213.577C44.8216 215.803 45.264 216.601 45.4114 216.727C45.4746 216.79 45.7485 217.21 46.0223 217.672C46.7175 218.849 48.1288 220.13 48.1288 219.584C48.1288 219.29 46.9281 216.286 46.5279 215.572C46.2751 215.11 45.7906 214.228 45.4746 213.619C45.1376 213.031 44.8216 212.527 44.7373 212.527C44.6531 212.527 44.5267 212.233 44.4424 211.897C44.3582 211.54 44.2318 211.267 44.1265 211.267C44.0422 211.267 43.9158 211.056 43.8526 210.804C43.7473 210.405 44.4003 209.649 47.9182 206.163C50.2353 203.873 52.1312 201.962 52.1312 201.899C52.1312 201.605 51.4361 201.941 50.3196 202.823Z" fill="#222222"/>
<path d="M27.5061 207.192C27.2533 207.507 27.0637 207.864 27.0637 208.011C27.0637 208.158 26.9163 208.557 26.7478 208.872C26.5792 209.208 26.4318 209.649 26.4318 209.859C26.4318 210.069 26.3475 210.405 26.2422 210.594C25.8209 211.392 24.9151 218.932 24.5359 224.918C24.3042 228.867 24.3042 248.085 24.557 252.958C24.873 259.385 25.5681 265.287 26.0315 265.77C26.1579 265.896 26.3054 265.875 26.4528 265.665C26.7056 265.287 26.5371 259.931 26.2211 257.998C25.8419 255.814 25.3364 238.066 25.4838 232.164C25.6313 225.548 25.9473 219.668 26.2211 217.672C26.3475 216.853 26.5371 215.488 26.6424 214.627C26.832 213.094 27.2323 210.993 27.6536 209.271C27.8853 208.305 28.117 206.646 28.0117 206.646C27.9695 206.646 27.7378 206.898 27.5061 207.192Z" fill="#222222"/>
<path d="M65.7603 207.864C64.37 208.494 60.7678 211.897 60.7678 212.569C60.7678 213.283 61.5683 212.947 63.6327 211.351C65.9709 209.523 67.0874 208.389 67.0874 207.843C67.0874 207.402 66.7714 207.402 65.7603 207.864Z" fill="#222222"/>
<path d="M54.0482 212.653C53.7954 212.968 53.5005 213.598 53.3952 214.081C53.2688 214.543 53.0792 215.173 52.9739 215.467C52.8686 215.761 52.5947 217.084 52.3419 218.407C52.1102 219.731 51.8153 221.243 51.71 221.768C51.5836 222.293 51.4151 223.364 51.3097 224.183C51.2044 224.981 51.0148 226.305 50.8884 227.124C49.8984 233.698 49.3296 240.461 49.0347 248.967C48.7608 257.326 48.9294 261.779 49.5403 263.186C50.3197 264.992 50.3829 264.383 50.5093 254.89C50.6146 246.531 50.7831 243.065 51.4993 235.945C52.047 230.337 53.4162 220.319 53.7322 219.458C53.7954 219.29 53.985 218.386 54.1325 217.462C54.301 216.538 54.5116 215.299 54.638 214.732C54.9119 213.388 54.9329 212.106 54.6802 212.106C54.5748 212.106 54.2799 212.358 54.0482 212.653Z" fill="#222222"/>
<path d="M58.0927 220.529C58.1559 221.012 58.2823 221.474 58.3876 221.537C58.4719 221.6 58.83 222.209 59.1671 222.881C59.8201 224.162 60.5574 224.918 61.2104 224.918C61.9055 224.918 61.6738 223.952 60.5363 222.23C59.2724 220.319 58.7036 219.668 58.2823 219.668C58.0506 219.668 58.0085 219.857 58.0927 220.529Z" fill="#222222"/>
<path d="M56.0703 230.085C55.8807 230.274 56.2599 231.22 57.271 233.173C57.7977 234.202 58.1768 235.147 58.0926 235.273C57.9451 235.525 57.7345 235.777 56.3442 237.31C55.4805 238.277 55.2277 238.718 55.5016 238.886C55.8386 239.096 56.8076 238.466 57.7977 237.394C58.8509 236.26 58.6613 236.197 59.9884 238.235C60.3676 238.802 60.7889 239.327 60.9364 239.369C61.3577 239.495 61.0628 238.109 60.3676 236.575C59.7989 235.336 59.7989 235.315 60.178 234.895C60.3887 234.685 60.81 234.076 61.1049 233.551C61.9896 231.955 61.1892 231.913 59.6303 233.446C59.2301 233.845 58.9984 233.971 58.9352 233.782C58.872 233.635 58.7035 233.383 58.5349 233.236C58.3664 233.068 58.24 232.879 58.24 232.816C58.24 232.669 56.5127 230.169 56.3442 230.064C56.2599 230.001 56.1335 230.022 56.0703 230.085Z" fill="#222222"/>
<path d="M26.2422 239.243C26.516 239.621 26.832 240.041 26.9584 240.188C27.3375 240.629 27.5903 240.965 28.2223 241.826C28.5804 242.288 28.9174 242.708 28.9806 242.771C29.0438 242.834 29.7179 243.717 30.4552 244.767C31.1925 245.796 32.0983 247.077 32.4775 247.602C32.8356 248.127 33.5518 249.198 34.0363 250.017C34.5208 250.816 34.9842 251.53 35.0685 251.593C35.1527 251.656 35.4687 252.139 35.7847 252.685C36.2481 253.462 36.3113 253.756 36.1428 254.092C36.0164 254.302 35.8479 254.533 35.7426 254.575C35.4055 254.722 32.0983 259.154 31.5506 260.204C31.1293 261.023 31.0661 261.338 31.2557 261.527C31.4453 261.716 31.9087 261.359 33.299 259.994C34.2891 259.007 35.574 257.579 36.1639 256.78C36.7326 256.003 37.2803 255.373 37.3646 255.373C37.4488 255.373 37.6384 255.583 37.8069 255.835C38.144 256.318 40.2084 258.419 40.8193 258.902C41.388 259.322 41.2616 258.755 40.6718 258.125C39.9345 257.327 38.2282 254.701 38.2282 254.365C38.2282 254.197 38.3546 253.945 38.5232 253.819C39.5132 253.021 43.4945 247.098 43.2207 246.825C43.0732 246.678 41.5987 247.623 41.5987 247.854C41.5987 247.938 41.388 248.232 41.1142 248.505C40.8614 248.799 39.9345 249.849 39.0709 250.837C38.2072 251.824 37.4067 252.643 37.2803 252.643C37.175 252.622 36.6905 252.013 36.2271 251.236C35.7636 250.48 35.2791 249.744 35.1738 249.618C35.0474 249.492 34.7104 249.009 34.4365 248.547C34.1627 248.085 33.8467 247.602 33.7624 247.497C33.6782 247.371 33.0462 246.573 32.3932 245.712C31.7402 244.851 31.1293 244.095 31.0661 244.032C31.0029 243.969 30.5816 243.464 30.1182 242.897C29.6758 242.33 29.107 241.637 28.8542 241.385C28.6225 241.133 27.9695 240.398 27.3797 239.747C26.2211 238.445 25.4417 238.109 26.2422 239.243Z" fill="#222222"/>
<path d="M55.2279 245.124C55.7335 246.615 56.3023 247.686 57.1238 248.631C57.819 249.45 58.788 250.059 59.0197 249.828C59.2935 249.576 58.5773 248.085 57.7768 247.203C57.2713 246.657 56.4708 245.775 55.9863 245.229C55.5018 244.682 55.0594 244.241 55.0173 244.241C54.9541 244.241 55.0594 244.64 55.2279 245.124Z" fill="#222222"/>
<path d="M202.326 253.777C198.281 255.793 195.079 258.02 192.172 260.876C190.276 262.724 189.687 263.501 189.687 264.174C189.687 264.531 190.066 264.825 190.529 264.825C190.614 264.825 190.993 264.363 191.351 263.795C192.004 262.787 193.352 261.422 195.164 259.994C196.217 259.154 199.292 257.053 199.482 257.053C199.566 257.053 199.735 256.927 199.903 256.78C200.051 256.654 200.999 256.024 201.989 255.394C203.779 254.281 204.053 253.945 203.526 253.525C203.337 253.357 203 253.441 202.326 253.777Z" fill="#222222"/>
<path d="M304.012 266.845C304.568 258.348 302.545 247.448 301.464 243.061L283.4 246.294L255.84 266.845H304.012Z" fill="#222222"/>
<path d="M124.149 102.941C124.287 100.716 125.758 99.4599 126.562 98.7109L128.254 98.6055L131.185 101.042L130.117 106.265C129.711 106.588 128.491 107.235 126.858 107.235C124.816 107.235 124.012 105.167 124.149 102.941Z" fill="white"/>
<path d="M123.138 98.4575C123.86 97.6376 123.779 96.3894 122.956 95.6697L121.468 94.367C121.468 94.3667 121.467 94.3667 121.467 94.367C121.467 94.3673 121.466 94.3673 121.466 94.3671L119.844 92.9473C119.441 92.595 118.829 92.6348 118.475 93.0361C118.122 93.4373 118.162 94.0482 118.564 94.4004L119.011 94.7917C119.661 95.36 119.725 96.3456 119.155 96.993L118.884 97.3004C118.165 98.1176 118.249 99.3637 119.068 100.081C119.891 100.801 121.145 100.722 121.867 99.9018L123.138 98.4575Z" fill="#222222"/>
<path d="M130.117 103.972C130.805 103.124 130.673 101.88 129.823 101.194L128.283 99.9519C128.282 99.9517 128.282 99.9517 128.282 99.9521C128.281 99.9524 128.281 99.9525 128.28 99.9522L126.602 98.599C126.186 98.2632 125.575 98.3275 125.239 98.7427C124.902 99.1579 124.966 99.7666 125.383 100.102L125.845 100.475C126.517 101.017 126.621 101.999 126.078 102.669L125.82 102.987C125.134 103.832 125.268 105.074 126.116 105.758C126.967 106.444 128.217 106.314 128.905 105.466L130.117 103.972Z" fill="#222222"/>
<ellipse cx="1.79772" cy="2.04984" rx="1.79772" ry="2.04984" transform="matrix(0.767978 0.640476 -0.6427 0.766118 109.517 111.723)" fill="#222222"/>
</svg>
