<svg width="249" height="153" viewBox="0 0 249 153" fill="none" xmlns="http://www.w3.org/2000/svg">
<path d="M156.414 142.862C166.168 144.815 184.953 119.395 184.953 119.395V74.353C192.087 70.0632 191.374 56.1216 184.953 52.5469L156.414 67.1711V142.862Z" fill="#B1E0DF"/>
<path d="M64.1383 72.499C64.5732 63.0788 70.8462 58.6305 73.9283 57.5839C99.4444 49.2051 119.596 42.7452 146.673 44.9382L156.606 68.2777L156.606 87.5814L157.319 142.633C140.196 151.927 72.5803 143.109 72.5803 143.109L70.6243 86.9064C68.2811 86.029 63.7034 81.9192 64.1383 72.499Z" fill="#FABD05"/>
<path fill-rule="evenodd" clip-rule="evenodd" d="M71.1612 141.423L69.1069 86.0924L72.3454 85.9375L74.3996 141.268L71.1612 141.423Z" fill="#222222"/>
<path fill-rule="evenodd" clip-rule="evenodd" d="M116.589 143.675C130.439 144.041 145.427 144.649 159.128 142.212C159.976 142.075 160.161 142.629 159.486 143.488C158.541 144.688 156.885 145.402 155.406 145.581C141.071 147.567 126.563 148.297 112.893 147.636C99.2219 146.974 72.1264 146.731 71.1548 141.558C71.0324 140.885 72.2258 140.129 75.0793 140.129C77.9328 140.129 100.337 143.245 116.589 143.675Z" fill="#222222"/>
<path fill-rule="evenodd" clip-rule="evenodd" d="M157.392 130.615C157.329 134.522 157.879 138.481 157.521 142.373C157.494 142.637 157.332 142.799 157.12 142.866C157.077 142.879 156.986 142.909 157.12 142.866C156.836 142.985 156.486 142.771 156.268 142.582C154.001 140.411 154.665 135.342 154.666 130.615C154.667 127.988 154.668 99.3687 155.027 91.7368C155.114 89.894 155.496 87.0959 156.662 87.3907C157.644 87.6391 157.66 90.3942 157.75 91.7368C157.839 93.0795 157.65 117.241 157.392 130.615Z" fill="#222222"/>
<path fill-rule="evenodd" clip-rule="evenodd" d="M178.794 123.44C180.128 122.229 181.476 121.033 182.848 119.863C183.352 119.37 183.108 119.958 183.251 118.569L183.42 115.698L183.547 111.5C183.77 106.566 183.89 101.614 183.981 96.6575C184.024 94.4564 184.004 92.2443 183.984 90.0616C183.951 87.2553 183.864 84.437 184.069 81.6301C184.182 79.8819 185.61 82.1026 185.757 85.3245C185.927 91.0406 186.158 96.7604 185.897 102.55C185.759 106.009 185.871 109.614 185.788 113.16C185.736 115.109 185.671 117.058 185.573 119.008L185.533 119.841C185.51 120.225 185.51 120.623 185.444 120.983L184.111 122.189L182.119 124.002C180.489 125.504 178.867 127.024 177.258 128.563C174.807 130.891 172.346 133.232 169.914 135.543C168.026 137.351 166.24 139.231 164.33 141.001C163.907 141.387 163.516 141.8 163.07 142.164C162.259 142.861 161.678 143.249 161.186 143.375C160.712 143.529 160.353 143.467 159.99 143.28C159.826 143.196 159.642 143.14 159.521 143.044C159.129 142.746 159.521 141.732 160.579 140.599C163.839 137.426 167.327 134.18 170.843 130.843C173.473 128.363 176.114 125.874 178.75 123.389L178.794 123.44Z" fill="#222222"/>
<path fill-rule="evenodd" clip-rule="evenodd" d="M110.966 120.618L111.055 114.253C111.071 113.477 111.001 112.706 111.026 111.931C111.123 109.193 111.25 106.457 111.394 103.714C111.444 102.491 111.496 101.271 111.545 100.058C111.643 98.4922 111.609 96.9035 112.264 95.3175C112.455 94.8299 112.836 95.0976 113.188 95.6262C113.527 96.1601 113.885 96.8559 113.894 97.7051C113.861 99.1688 113.924 100.713 113.939 102.246C113.967 103.787 113.846 105.342 113.743 106.916C113.591 108.798 113.804 110.755 113.853 112.684L113.938 119.063L113.997 122.997C114.045 124.982 114.044 126.981 114.168 128.954C114.249 130.489 114.566 131.984 114.69 133.521C114.72 133.859 114.781 134.189 114.794 134.531C114.835 135.811 114.53 136.218 113.716 136.459C113.538 136.515 113.369 136.589 113.212 136.618C112.727 136.717 112.047 136.19 111.828 135.306C111.189 132.673 111.062 129.863 110.982 127.013C110.917 124.895 110.925 122.76 110.891 120.625L110.966 120.618Z" fill="#222222"/>
<path fill-rule="evenodd" clip-rule="evenodd" d="M119.458 114.32C115.962 114.124 112.46 113.967 108.958 113.865C107.68 113.829 106.402 113.887 105.126 113.842C100.622 113.694 96.114 113.538 91.6086 113.543C89.611 113.553 87.601 113.635 85.6246 113.779C83.0984 113.944 80.513 114.295 78.084 114.272C77.3527 114.286 77.2685 113.716 77.8535 112.986C78.1475 112.615 78.6345 112.206 79.1884 111.896C79.7483 111.568 80.4423 111.293 81.1793 111.241C86.4372 110.737 91.6543 110.609 96.9307 110.831C100.082 110.974 103.358 110.768 106.58 110.792C110.121 110.83 113.665 110.932 117.206 111.053L123.743 111.319C127.043 111.48 130.358 111.64 133.634 111.8C136.18 111.892 138.69 111.823 141.224 111.894C141.781 111.908 142.328 111.896 142.889 111.953C144.971 112.142 145.614 112.445 145.973 113.369C146.054 113.578 146.168 113.791 146.207 113.997C146.337 114.691 145.446 115.159 143.934 115.212C141.698 115.274 139.396 115.316 137.08 115.194C134.752 115.149 132.401 114.991 130.033 114.898C126.523 114.72 122.991 114.523 119.461 114.4L119.458 114.32Z" fill="#222222"/>
<path fill-rule="evenodd" clip-rule="evenodd" d="M176.879 100.274L176.624 106.13C176.6 106.843 176.632 107.555 176.594 108.267C176.456 110.783 176.306 113.298 176.219 115.815C176.183 116.931 176.17 118.055 176.181 119.163C176.228 120.59 176.105 122.016 175.951 123.462C175.816 124.339 174.787 123.171 174.581 121.567C174.126 118.689 174.12 115.789 174.289 112.859C174.402 111.105 174.239 109.285 174.223 107.493C174.209 105.523 174.269 103.549 174.303 101.574L174.381 97.9305C174.408 96.0916 174.485 94.2424 174.468 92.4112C174.452 90.9874 174.313 89.5873 174.267 88.1544C174.258 87.838 174.219 87.5258 174.261 87.2109C174.363 86.0244 174.709 85.6612 175.303 85.5047C175.439 85.467 175.57 85.4114 175.694 85.3996C175.905 85.3767 176.083 85.4965 176.259 85.7254C176.432 85.9556 176.624 86.2977 176.682 86.704C176.989 87.9385 177.006 89.1896 177.087 90.4785C177.152 91.762 177.132 93.0715 177.106 94.385C177.053 96.3419 176.998 98.3091 176.943 100.27L176.879 100.274Z" fill="#222222"/>
<path fill-rule="evenodd" clip-rule="evenodd" d="M171.296 106.278C172.289 105.64 173.277 104.956 174.233 104.197C174.583 103.926 174.895 103.597 175.243 103.316C176.479 102.319 177.723 101.316 178.956 100.322C179.501 99.8687 180.028 99.3775 180.543 98.8886C181.208 98.2625 181.864 97.6049 182.652 97.1529C183.13 96.8566 183.208 98.2797 182.53 99.06C181.279 100.417 180.043 101.814 178.598 102.993C177.712 103.669 176.932 104.57 176.077 105.344C175.129 106.187 174.153 106.998 173.141 107.76C172.522 108.234 171.883 108.677 171.238 109.111C170.264 109.779 169.224 110.324 168.212 110.915C167.411 111.341 166.655 111.879 165.814 112.27C165.633 112.367 165.459 112.485 165.254 112.501C164.886 112.578 164.629 112.545 164.432 112.396C164.237 112.269 164.113 112.092 164 111.842C163.949 111.728 163.887 111.623 163.853 111.517C163.74 111.178 163.965 110.725 164.359 110.249C165.587 109.252 166.931 108.821 168.274 108.033C169.274 107.495 170.286 106.91 171.264 106.229L171.296 106.278Z" fill="#222222"/>
<path d="M156.249 68.6338L184.788 52.5474C182.291 51.1175 174.728 47.7572 164.454 45.7553C154.18 43.7534 121.17 46.3511 105.95 47.9002C95.2476 50.76 76.3407 55.7646 70.9897 60.0544L156.249 68.6338Z" fill="#B1E0DF"/>
<path fill-rule="evenodd" clip-rule="evenodd" d="M63.1499 69.6986C63.3698 68.0615 63.8391 66.4305 64.5169 64.8724C65.1882 63.3168 66.2112 61.8279 67.5652 60.7483C67.7472 60.6071 67.8611 60.4781 68.1007 60.33C68.3821 60.1756 68.6772 60.0367 68.9737 59.923C69.4441 59.7871 69.8225 59.7299 70.2327 59.6599C70.9642 59.5882 71.6828 59.5395 72.3573 59.5457C73.7286 59.5269 75.0502 59.5996 76.3729 59.6739C81.6405 60.0301 86.8193 60.6481 92.0055 61.2459C95.7864 61.6701 99.5648 62.0927 103.341 62.5151C116.635 64.1192 129.93 65.8046 143.245 66.2927C146.197 66.3916 149.158 66.4024 152.095 66.2392C152.832 66.2151 153.561 66.1478 154.292 66.0879C154.641 66.0526 155.06 66.0421 155.35 65.9841C155.469 65.9366 155.554 65.9328 155.707 65.8725L156.186 65.6678C157.491 65.0783 158.833 64.3464 160.152 63.6352C166.948 59.9142 173.752 55.8985 181.136 53.4302C183.471 52.7278 183.283 53.4944 181.575 54.8038C179.869 56.134 176.733 58.2337 172.82 60.3137C169.341 62.1391 165.899 64.076 162.395 65.9575C160.616 66.9011 158.947 67.8541 156.934 68.7218C156.596 68.9245 155.351 69.2209 155.062 69.1801L153.58 69.2912C152.591 69.3652 151.61 69.3821 150.624 69.4283C142.764 69.6189 134.987 69.0086 127.201 68.2178C117.896 67.2436 108.217 66.3519 98.7314 65.2754C93.5175 64.6848 88.3055 64.0825 83.0997 63.5721C80.4989 63.3258 77.896 63.0987 75.3115 62.9789C74.0196 62.9123 72.7344 62.8979 71.4902 62.9508L70.5843 63.0282C70.327 63.0808 70.0232 63.1277 69.8229 63.1851C69.7605 63.2139 69.7106 63.2537 69.6268 63.2384C69.5473 63.3252 69.4192 63.4253 69.3175 63.5167C69.1069 63.7123 68.8623 63.8571 68.6869 64.1079C66.7188 66.2948 65.9355 69.8849 65.9555 73.2823C65.9723 75.0013 66.1838 76.729 66.5969 78.3712C66.6908 78.7871 66.806 79.1924 66.9491 79.5847C67.0775 79.9849 67.2101 80.381 67.3842 80.7485C67.5435 81.1285 67.7028 81.5084 67.9082 81.8468L68.1973 82.3732C68.2935 82.5428 68.3905 82.6091 68.4795 82.7383C69.0981 83.4482 70.1968 83.9829 71.2643 84.4036C72.3537 84.83 73.5191 85.1311 74.6857 85.4056C77.03 85.9392 79.4378 86.2817 81.8487 86.5565C86.676 87.099 91.5401 87.3515 96.3762 87.5063C103.897 87.7457 111.287 87.527 118.749 87.5828C120.393 87.592 122.003 87.5712 123.662 87.6168C129.815 87.7865 131.776 88.2028 133.04 89.2684C133.328 89.5128 133.71 89.7613 133.871 89.9953C134.409 90.7977 131.896 91.2061 127.425 91.2457C114.144 91.4164 100.101 91.6422 85.8787 90.5687C83.2362 90.3555 80.5859 90.0841 77.9162 89.67C75.2424 89.2319 72.5687 88.7349 69.7867 87.6263L68.7288 87.1382C68.3698 86.9442 68.0034 86.7128 67.6442 86.4951C67.2786 86.2476 66.8952 85.906 66.5337 85.5981C66.3432 85.3861 66.156 85.1594 65.9755 84.9302C65.7862 84.6932 65.6189 84.4589 65.5396 84.2888C64.632 82.7987 64.0819 81.1956 63.6399 79.5886C62.8021 76.3595 62.6182 73.0218 63.0705 69.7012L63.1499 69.6986Z" fill="#222222"/>
<path fill-rule="evenodd" clip-rule="evenodd" d="M183.417 118.258L183.711 72.8555L185.952 72.8911L183.417 118.258Z" fill="#222222"/>
<path fill-rule="evenodd" clip-rule="evenodd" d="M185.578 106.792C185.578 106.792 200.907 107.742 203.148 115.916C205.847 125.764 181.441 144.22 160.031 142.57L184.405 119.465L185.578 106.792Z" fill="#222222"/>
<path d="M109.032 29.4139C116.293 29.8458 124.071 41.6242 127.052 47.4594C130.417 40.2798 139.353 26.0518 148.17 26.5764C159.191 27.2321 146.845 55.2786 123.881 59.8163C100.029 55.4454 99.9557 28.8739 109.032 29.4139Z" fill="#B1E0DF"/>
<path fill-rule="evenodd" clip-rule="evenodd" d="M102.983 43.7937C102.375 41.7103 102.025 39.5406 102.104 37.2398C102.196 34.993 102.779 32.3606 104.495 30.4879C105.743 29.1393 107.09 28.2881 108.693 27.9422C110.087 27.665 111.49 27.8311 112.731 28.2503C113.979 28.6699 115.095 29.3149 116.1 30.061C118.099 31.5762 119.746 33.4246 121.191 35.4043C122.482 37.1533 123.687 38.971 124.782 40.8545C126.163 43.2658 127.585 45.8315 127.865 48.921C127.94 49.8996 126.969 49.9098 125.934 49.4718C124.888 49.0244 123.746 48.248 123.225 46.9462C121.309 42.3055 118.607 37.7257 115.281 34.235C114.28 33.1968 113.076 32.4389 111.868 32.0748C110.653 31.7221 109.492 31.8036 108.435 32.3119C107.181 32.8823 106.442 33.7918 105.993 35.2395C105.592 36.6843 105.59 38.4391 105.87 40.1501C106.195 42.2904 106.957 44.3017 108.06 46.1119C109.715 48.8715 112.081 51.1922 114.694 52.9417C116.734 54.3102 118.961 55.1866 121.192 56.0042C121.687 56.1694 122.175 56.3342 122.674 56.5012C124.507 57.1859 125.02 57.637 125.129 58.8493C125.154 59.1239 125.21 59.4091 125.197 59.6711C125.161 60.5515 124.188 60.9748 122.698 60.6589C118.298 59.7167 113.792 57.5786 109.824 54.1264C106.883 51.6018 104.282 48.0952 102.899 43.8345L102.983 43.7937Z" fill="#222222"/>
<path fill-rule="evenodd" clip-rule="evenodd" d="M107.542 48.9744C100.065 51.0964 83.2905 55.6655 78.0802 57.3553C75.7249 58.1192 71.8365 59.5018 70.6042 61.9499L66.5176 61.8435C67.9371 59.0236 74.7383 56.2345 77.5672 55.317C82.8149 53.615 99.0807 48.946 106.543 46.8281L107.542 48.9744Z" fill="#222222"/>
<path fill-rule="evenodd" clip-rule="evenodd" d="M148.616 37.4361C149.343 35.5001 149.861 33.3524 149.754 31.7122C149.704 30.8768 149.495 30.4186 149.246 30.1558C148.997 29.8694 148.36 29.6633 147.565 29.6721C146.982 29.6979 146.329 29.8052 145.719 30.0493L144.788 30.354L143.861 30.7948C141.658 31.8209 139.551 33.4903 137.618 35.3974C135.681 37.313 133.891 39.4958 132.295 41.8553C130.877 43.9465 129.622 46.2127 128.595 48.5574C127.25 51.5695 126.307 54.7398 125.139 57.7684C124.766 58.7085 123.871 58.3512 123.214 57.1801C122.535 56.0091 122.167 53.9563 122.86 51.9828C125.347 45.0773 129.042 38.8663 133.953 33.8702C135.448 32.4108 136.932 30.883 138.623 29.5489C140.263 28.1676 142.144 26.9954 144.209 26.2784C145.361 25.8983 146.51 25.6153 147.81 25.644C149.06 25.6549 150.64 26.0205 151.798 27.3306C152.957 28.6335 153.292 30.3419 153.345 31.7413C153.392 33.1773 153.204 34.5018 152.923 35.7603C152.211 38.8558 151.002 41.6354 149.502 44.2221C148.345 46.1384 147.044 47.9502 145.569 49.5746C144.103 51.2069 142.458 52.6041 140.778 53.8606C138.166 55.8114 135.527 57.5171 132.948 59.1968C132.387 59.5722 131.837 59.9424 131.272 60.3221C129.16 61.6591 128.413 61.8744 127.452 61.2151C127.236 61.0664 126.983 60.9407 126.806 60.7634C126.209 60.1788 126.755 58.9493 128.277 57.7101C132.812 54.0095 138.056 51.6692 141.865 47.8399C143.298 46.4271 144.58 44.8222 145.723 43.0497C146.892 41.3068 147.818 39.4092 148.529 37.4044L148.616 37.4361Z" fill="#222222"/>
<path fill-rule="evenodd" clip-rule="evenodd" d="M172.11 48.391C163.324 46.3753 153.092 46.2661 146.399 46.5827L146.321 44.4646C153.074 44.1452 163.478 44.248 172.48 46.3131C176.977 47.3449 181.19 48.8805 184.431 51.1502C187.683 53.4275 190.039 56.5077 190.609 60.6226L188.764 60.9517C188.306 57.6468 186.414 55.0297 183.45 52.9545C180.476 50.8718 176.507 49.3998 172.11 48.391Z" fill="#222222"/>
<path fill-rule="evenodd" clip-rule="evenodd" d="M178.235 75.8594C180.738 74.6511 183.274 73.4128 185.574 71.8386L186.059 71.4956L186.357 71.1886C187.233 70.302 187.887 68.89 188.29 67.4026C188.707 65.9072 188.891 64.2872 188.838 62.6782C188.791 61.2511 188.523 59.8124 188.01 58.5347C187.369 56.8686 186.368 55.4895 185.218 54.2713C184.873 53.873 185.124 53.4997 185.735 53.4283C186.042 53.3935 186.445 53.4366 186.892 53.5902C187.298 53.7943 187.755 54.1079 188.14 54.5662C190.745 57.9904 191.44 62.6987 190.602 66.876C190.376 68.1393 189.981 69.3984 189.487 70.6339C188.959 71.8614 188.252 73.0592 187.073 73.9321C184.992 75.3448 182.873 76.5353 180.726 77.6931C179.408 78.4029 178.073 79.0718 176.744 79.7439C172.855 81.6968 169.009 83.8397 165.046 85.6308C163.745 86.1925 163.264 86.1491 162.747 85.4527C162.073 84.5406 162.356 83.7534 163.364 83.1323C165.99 81.4864 168.885 80.2328 171.775 78.8801C173.921 77.8801 176.085 76.8857 178.205 75.7956L178.235 75.8594Z" fill="#222222"/>
<path d="M154.987 90.443L154.274 68.6369L156.771 67.207L157.485 89.3706L154.987 90.443Z" fill="#222222"/>
<path d="M154.987 87.2223L167.83 80.7877C172.11 78.7859 171.991 81.1452 171.397 82.5751L156.414 90.4396C153.275 90.7256 127.043 91.0354 114.32 91.1546C112.417 90.0821 109.753 87.8658 114.32 87.5798C118.886 87.2938 143.334 87.2223 154.987 87.2223Z" fill="#222222"/>
<path d="M80.1058 8.10407C79.55 9.99818 77.7204 11.1273 76.0193 10.6261C74.3181 10.1249 73.3896 8.18308 73.9454 6.28897C74.5011 4.39486 76.3307 3.2657 78.0319 3.76693C79.733 4.26815 80.6616 6.20996 80.1058 8.10407Z" fill="white"/>
<path fill-rule="evenodd" clip-rule="evenodd" d="M76.4218 9.25427C77.2348 9.49381 78.3624 8.97671 78.7368 7.70071C79.1112 6.42471 78.4423 5.3783 77.6294 5.13876C76.8164 4.89923 75.6887 5.41632 75.3144 6.69232C74.94 7.96832 75.6088 9.01474 76.4218 9.25427ZM76.0193 10.6261C77.7204 11.1273 79.55 9.99818 80.1058 8.10407C80.6616 6.20996 79.733 4.26815 78.0319 3.76693C76.3307 3.2657 74.5011 4.39486 73.9454 6.28897C73.3896 8.18308 74.3181 10.1249 76.0193 10.6261Z" fill="#222222"/>
<path d="M46.9256 34.9551C46.2142 36.3005 45.3577 37.0183 44.2649 36.6964C43.1721 36.3744 42.937 34.6835 42.9682 33.7891C42.9994 32.8948 44.5361 31.7259 45.6289 32.0479C46.7216 32.3699 47.637 33.6097 46.9256 34.9551Z" fill="white"/>
<path fill-rule="evenodd" clip-rule="evenodd" d="M44.9217 35.2783C45.0938 35.158 45.3558 34.8698 45.6647 34.2856C45.7379 34.1471 45.7504 34.0507 45.7499 33.9917C45.7493 33.9296 45.7337 33.8637 45.6953 33.7918C45.6102 33.6321 45.4321 33.4841 45.238 33.4233C45.2266 33.4229 45.1884 33.4231 45.1181 33.4416C45.0035 33.4717 44.8585 33.537 44.7123 33.6383C44.5654 33.7401 44.4594 33.8493 44.4013 33.9301C44.3981 33.9346 44.3952 33.9388 44.3925 33.9427C44.3923 34.2592 44.4373 34.6706 44.5486 35.0046C44.6182 35.2135 44.68 35.3027 44.7082 35.335C44.7611 35.3464 44.7866 35.3424 44.7953 35.3409C44.8083 35.3386 44.8484 35.3296 44.9217 35.2783ZM44.7242 35.3507C44.7242 35.3508 44.7227 35.3498 44.7199 35.3473C44.7229 35.3493 44.7243 35.3506 44.7242 35.3507ZM44.3672 33.9853C44.367 33.9853 44.3679 33.9832 44.3702 33.9788C44.3684 33.9832 44.3673 33.9853 44.3672 33.9853ZM44.2649 36.6964C45.3577 37.0183 46.2142 36.3005 46.9256 34.9551C47.637 33.6097 46.7216 32.3699 45.6289 32.0479C44.5361 31.7259 42.9994 32.8948 42.9682 33.7891C42.937 34.6835 43.1721 36.3744 44.2649 36.6964Z" fill="#222222"/>
<path d="M242.416 29.9512C241.704 31.2966 240.848 32.0144 239.755 31.6925C238.662 31.3705 238.427 29.6796 238.458 28.7852C238.49 27.8909 240.026 26.722 241.119 27.044C242.212 27.3659 243.127 28.6058 242.416 29.9512Z" fill="white"/>
<path fill-rule="evenodd" clip-rule="evenodd" d="M240.412 30.2744C240.584 30.1541 240.846 29.8659 241.155 29.2817C241.228 29.1432 241.241 29.0468 241.24 28.9878C241.24 28.9257 241.224 28.8598 241.186 28.7879C241.1 28.6282 240.922 28.4802 240.728 28.4194C240.717 28.419 240.679 28.4192 240.608 28.4377C240.494 28.4677 240.349 28.5331 240.203 28.6344C240.056 28.7362 239.95 28.8454 239.892 28.9262C239.888 28.9307 239.885 28.9349 239.883 28.9388C239.882 29.2553 239.928 29.6667 240.039 30.0007C240.108 30.2096 240.17 30.2988 240.198 30.3311C240.251 30.3425 240.277 30.3385 240.286 30.337C240.298 30.3347 240.339 30.3257 240.412 30.2744ZM240.214 30.3468C240.214 30.3469 240.213 30.3459 240.21 30.3433C240.213 30.3454 240.215 30.3467 240.214 30.3468ZM239.857 28.9814C239.857 28.9814 239.858 28.9793 239.86 28.9749C239.859 28.9793 239.858 28.9814 239.857 28.9814ZM239.755 31.6925C240.848 32.0144 241.704 31.2966 242.416 29.9512C243.127 28.6058 242.212 27.3659 241.119 27.044C240.026 26.722 238.49 27.8909 238.458 28.7852C238.427 29.6796 238.662 31.3705 239.755 31.6925Z" fill="#222222"/>
<path d="M16.9508 38.4687C16.1045 40.2738 14.8332 40.9348 13.7404 40.6129C12.6476 40.2909 11.4906 38.5571 11.6002 37.3956C11.7097 36.2341 13.1509 34.1611 15.0509 34.3488C16.9508 34.5364 17.7971 36.6636 16.9508 38.4687Z" fill="white"/>
<path fill-rule="evenodd" clip-rule="evenodd" d="M14.6821 39.1257C14.9509 38.9574 15.3196 38.5853 15.6593 37.8606C15.9158 37.3135 15.8936 36.7626 15.7248 36.3786C15.5682 36.0224 15.2985 35.8101 14.9109 35.7718C14.5451 35.7357 14.1138 35.9062 13.6848 36.3552C13.2337 36.8273 13.0378 37.3492 13.0208 37.5302C13.0095 37.6491 13.0836 38.0407 13.4063 38.5253C13.7317 39.0139 14.0548 39.2151 14.1429 39.241C14.2607 39.2757 14.433 39.2816 14.6821 39.1257ZM13.7404 40.6129C14.8332 40.9348 16.1045 40.2738 16.9508 38.4687C17.7971 36.6636 16.9508 34.5364 15.0509 34.3488C13.1509 34.1611 11.7097 36.2341 11.6002 37.3956C11.4906 38.5571 12.6476 40.2909 13.7404 40.6129Z" fill="#222222"/>
<path d="M215.295 42.7577C214.448 44.5628 213.177 45.2239 212.084 44.9019C210.991 44.5799 209.834 42.8461 209.944 41.6847C210.053 40.5232 211.495 38.4502 213.395 38.6378C215.295 38.8255 216.141 40.9526 215.295 42.7577Z" fill="white"/>
<path fill-rule="evenodd" clip-rule="evenodd" d="M213.026 43.4147C213.295 43.2465 213.663 42.8743 214.003 42.1497C214.26 41.6026 214.237 41.0516 214.069 40.6677C213.912 40.3114 213.642 40.0991 213.255 40.0608C212.889 40.0247 212.458 40.1952 212.029 40.6442C211.577 41.1163 211.382 41.6383 211.365 41.8193C211.353 41.9381 211.427 42.3298 211.75 42.8144C212.075 43.303 212.399 43.5041 212.487 43.5301C212.604 43.5648 212.777 43.5706 213.026 43.4147ZM212.084 44.9019C213.177 45.2239 214.448 44.5628 215.295 42.7577C216.141 40.9526 215.295 38.8255 213.395 38.6378C211.495 38.4502 210.053 40.5232 209.944 41.6847C209.834 42.8461 210.991 44.5799 212.084 44.9019Z" fill="#222222"/>
<path d="M218.959 9.87257C218.112 11.6777 216.841 12.3387 215.748 12.0168C214.656 11.6948 213.499 9.96099 213.608 8.79952C213.718 7.63805 214.562 5.42745 217.059 5.75268C219.556 6.0779 219.805 8.06746 218.959 9.87257Z" fill="white"/>
<path fill-rule="evenodd" clip-rule="evenodd" d="M216.69 10.5296C216.959 10.3613 217.328 9.98917 217.667 9.26454C218.004 8.54595 218.013 8.00767 217.917 7.73302C217.877 7.61847 217.812 7.52529 217.695 7.44051C217.567 7.34807 217.321 7.22874 216.875 7.17066C216.148 7.07603 215.789 7.32271 215.542 7.62432C215.231 8.00522 215.065 8.55364 215.029 8.93411C215.017 9.05298 215.092 9.44462 215.414 9.9292C215.74 10.4178 216.063 10.619 216.151 10.6449C216.269 10.6796 216.441 10.6855 216.69 10.5296ZM215.748 12.0168C216.841 12.3387 218.112 11.6777 218.959 9.87257C219.805 8.06746 219.556 6.0779 217.059 5.75268C214.562 5.42745 213.718 7.63805 213.608 8.79952C213.499 9.96099 214.656 11.6948 215.748 12.0168Z" fill="#222222"/>
<path d="M9.50759 81.4291C11.3923 82.07 12.19 83.262 11.9929 84.3862C11.7959 85.5104 10.2059 86.8565 9.04188 86.8773C7.87784 86.898 5.66094 85.6947 5.63454 83.7818C5.60814 81.8689 7.62289 80.7882 9.50759 81.4291Z" fill="white"/>
<path fill-rule="evenodd" clip-rule="evenodd" d="M10.4128 83.6148C10.2159 83.366 9.80565 83.0404 9.04907 82.7832C8.4778 82.5889 7.93397 82.6726 7.57208 82.8837C7.23633 83.0794 7.05595 83.3718 7.06133 83.762C7.06642 84.1303 7.28374 84.5407 7.77698 84.9177C8.29557 85.3141 8.83508 85.4508 9.01648 85.4476C9.13561 85.4455 9.5157 85.328 9.96015 84.9524C10.4083 84.5737 10.5716 84.2294 10.5875 84.1388C10.6088 84.0177 10.5953 83.8454 10.4128 83.6148ZM11.9929 84.3862C12.19 83.262 11.3923 82.07 9.50759 81.4291C7.62289 80.7882 5.60814 81.8689 5.63454 83.7818C5.66094 85.6947 7.87784 86.898 9.04188 86.8773C10.2059 86.8565 11.7959 85.5104 11.9929 84.3862Z" fill="#222222"/>
</svg>
