<?xml version="1.0" encoding="utf-8"?><svg viewBox="0 0 502.66 502.66" xmlns="http://www.w3.org/2000/svg" xmlns:xlink="http://www.w3.org/1999/xlink"><style>:root>svg{display:none}:root>svg:target{display:block}</style><svg viewBox="0 0 12 22" id="fb" xmlns="http://www.w3.org/2000/svg"><path d="M7.906 21.834v-9.883h3.44L11.86 8.1H7.906V5.64c0-1.115.321-1.875 1.98-1.875H12V.32C11.634.273 10.38.168 8.92.168c-3.05 0-5.137 1.795-5.137 5.091V8.1H.333v3.852h3.449v9.884h4.124z"/></svg><svg viewBox="0 0 502.664 502.664" id="icon" xmlns="http://www.w3.org/2000/svg"><path d="M153.821 358.226L0 274.337v-46.463l153.821-83.414v54.574L46.636 250.523l107.185 53.431v54.272zm26.273 29.358L282.103 115.08h32.227L212.084 387.584h-31.99zm168.749-29.358v-54.272l107.164-52.999-107.164-52.59v-53.927l153.821 83.522v46.183l-153.821 84.083z"/></svg><svg viewBox="0 0 21 20" id="in" xmlns="http://www.w3.org/2000/svg"><path d="M20.514 19.159a79.008 79.008 0 00-3.637 0c-.262 0-.32-.056-.32-.307v-6.22c0-.474-.03-.948-.175-1.395-.436-1.45-2.181-1.98-3.432-1.004-.67.502-.931 1.2-.931 2.036v5.858c0 .25-.03.502 0 .78.029.224-.088.28-.291.252H8.004c-.233 0-.29-.056-.29-.28.028-1.756.028-3.514.028-5.299 0-2.175 0-4.351-.029-6.499 0-.25.058-.307.291-.307h3.724c.232 0 .29.056.29.28v1.422l.146-.14C13.3 6.746 14.9 6.3 16.79 6.58c2.182.335 3.578 1.785 3.927 4.017.087.53.117 1.06.117 1.59v6.666c0 .223-.059.307-.32.307zM5.386 12.966v5.858c0 .251-.058.335-.32.335-1.222-.028-2.444 0-3.666 0-.233 0-.29-.056-.29-.28V7.054c0-.195.057-.279.29-.279h3.753c.262 0 .29.084.29.307-.057 1.953-.057 3.905-.057 5.885zm.204-9.427c-.292 1.115-1.484 1.757-2.852 1.534C1.284 4.85.47 3.483.993 2.144 1.342 1.307 2.186.805 3.262.834c1.63-.03 2.706 1.226 2.327 2.704z"/></svg><svg viewBox="0 0 22 22" id="inst" xmlns="http://www.w3.org/2000/svg"><path d="M7.39 11.001a3.611 3.611 0 117.222 0 3.611 3.611 0 01-7.222 0zm-1.953 0a5.563 5.563 0 1011.126 0 5.563 5.563 0 00-11.126 0zm10.046-5.783a1.3 1.3 0 101.301-1.3 1.3 1.3 0 00-1.3 1.3zm-8.86 14.601c-1.056-.048-1.63-.224-2.011-.372a3.367 3.367 0 01-1.247-.81 3.342 3.342 0 01-.81-1.246c-.149-.381-.325-.955-.373-2.012-.052-1.142-.063-1.485-.063-4.378s.012-3.235.063-4.378c.048-1.056.226-1.629.373-2.011a3.36 3.36 0 01.81-1.246c.38-.38.74-.615 1.247-.81.38-.15.955-.325 2.011-.373C7.765 2.13 8.108 2.12 11 2.12c2.892 0 3.236.01 4.378.063 1.057.048 1.63.225 2.012.372a3.36 3.36 0 011.246.81c.38.38.614.74.81 1.247.15.381.325.955.373 2.011.053 1.143.064 1.485.064 4.378s-.011 3.236-.063 4.378c-.049 1.057-.225 1.63-.373 2.012a3.356 3.356 0 01-.81 1.245c-.38.379-.74.614-1.247.81-.381.15-.955.325-2.012.373-1.142.053-1.485.063-4.378.063s-3.235-.01-4.377-.063zM6.533.234C5.38.286 4.594.469 3.905.737a5.314 5.314 0 00-1.92 1.25A5.293 5.293 0 00.736 3.904c-.267.689-.45 1.477-.503 2.63C.18 7.69.167 8.059.167 11s.012 3.312.065 4.467c.053 1.153.236 1.94.503 2.63a5.296 5.296 0 001.25 1.918 5.326 5.326 0 001.92 1.25c.689.268 1.475.45 2.629.503 1.155.053 1.524.066 4.466.066s3.312-.013 4.467-.066c1.153-.052 1.94-.235 2.63-.503a5.327 5.327 0 001.919-1.25 5.306 5.306 0 001.25-1.919c.267-.688.45-1.476.502-2.63.053-1.155.065-1.524.065-4.466s-.012-3.311-.065-4.466c-.052-1.153-.235-1.941-.503-2.63a5.327 5.327 0 00-1.25-1.919 5.301 5.301 0 00-1.918-1.25c-.69-.267-1.477-.45-2.63-.502C14.313.18 13.944.168 11.002.168S7.69.18 6.534.234z"/></svg><svg viewBox="0 0 40 40" id="instagram" xmlns="http://www.w3.org/2000/svg"><path d="M16.39 20.001a3.611 3.611 0 117.222 0 3.611 3.611 0 01-7.222 0zm-1.953 0a5.563 5.563 0 1011.126 0 5.563 5.563 0 00-11.126 0zm10.046-5.783a1.3 1.3 0 101.301-1.3 1.3 1.3 0 00-1.3 1.3zm-8.86 14.601c-1.056-.048-1.63-.224-2.011-.372a3.367 3.367 0 01-1.247-.81 3.344 3.344 0 01-.81-1.246c-.149-.381-.325-.955-.373-2.012-.052-1.142-.063-1.485-.063-4.378s.012-3.235.063-4.378c.048-1.056.226-1.629.373-2.011a3.36 3.36 0 01.81-1.246c.38-.38.74-.615 1.247-.81.38-.15.955-.325 2.011-.373 1.142-.053 1.485-.063 4.377-.063 2.892 0 3.235.01 4.378.063 1.057.048 1.63.225 2.012.372a3.36 3.36 0 011.246.81c.38.38.614.74.81 1.247.15.381.325.955.373 2.011.053 1.143.064 1.485.064 4.378s-.011 3.235-.063 4.378c-.049 1.057-.225 1.63-.373 2.012a3.356 3.356 0 01-.81 1.245c-.38.379-.74.614-1.247.81-.381.15-.955.325-2.012.373-1.142.053-1.485.063-4.378.063s-3.235-.01-4.377-.063zm-.09-19.585c-1.153.052-1.94.235-2.629.503a5.314 5.314 0 00-1.92 1.25 5.294 5.294 0 00-1.249 1.918c-.267.689-.45 1.477-.503 2.63-.053 1.155-.066 1.524-.066 4.466s.013 3.312.066 4.467c.053 1.153.236 1.94.503 2.63a5.297 5.297 0 001.25 1.918 5.327 5.327 0 001.92 1.25c.689.268 1.475.45 2.629.503 1.155.053 1.524.066 4.466.066s3.312-.013 4.467-.066c1.153-.052 1.94-.235 2.63-.503a5.327 5.327 0 001.919-1.25 5.306 5.306 0 001.25-1.919c.267-.688.45-1.476.502-2.63.053-1.155.065-1.524.065-4.466s-.012-3.311-.065-4.466c-.052-1.153-.235-1.941-.503-2.63a5.328 5.328 0 00-1.25-1.919 5.301 5.301 0 00-1.918-1.25c-.69-.267-1.477-.45-2.63-.502-1.154-.053-1.524-.066-4.466-.066s-3.312.012-4.467.066z"/><rect x=".75" y=".75" width="38.5" height="38.5" rx="19.25"/></svg><svg viewBox="0 0 40 40" id="linkedin" xmlns="http://www.w3.org/2000/svg"><path d="M30.514 29.159a79.008 79.008 0 00-3.637 0c-.262 0-.32-.056-.32-.307v-6.22c0-.474-.03-.949-.175-1.395-.436-1.45-2.181-1.98-3.432-1.004-.67.502-.931 1.2-.931 2.036v5.858c0 .25-.03.502 0 .78.029.224-.088.28-.291.252h-3.724c-.233 0-.29-.056-.29-.28.028-1.756.028-3.514.028-5.299 0-2.175 0-4.351-.029-6.499 0-.25.058-.307.291-.307h3.724c.232 0 .29.056.29.28v1.422l.146-.14C23.3 16.746 24.9 16.3 26.79 16.58c2.182.335 3.578 1.785 3.927 4.017.087.53.117 1.06.117 1.59v6.666c0 .223-.059.307-.32.307zm-15.128-6.193v5.858c0 .251-.058.335-.32.335-1.222-.028-2.444 0-3.666 0-.233 0-.29-.056-.29-.28V17.054c0-.195.057-.279.29-.279h3.753c.262 0 .29.084.29.307-.057 1.953-.057 3.905-.057 5.886zm.204-9.427c-.292 1.116-1.484 1.757-2.852 1.534-1.454-.223-2.269-1.59-1.745-2.929.349-.837 1.193-1.339 2.269-1.31 1.63-.029 2.706 1.226 2.327 2.705z"/><rect x=".75" y=".75" width="38.5" height="38.5" rx="19.25"/></svg><svg viewBox="0 0 66.915 66.915" id="to-top" xmlns="http://www.w3.org/2000/svg"><path d="M17.284 42.279c.479 0 .959-.171 1.342-.519l15.487-14.037L48.15 43.209a1.994 1.994 0 002.824.138 1.999 1.999 0 00.139-2.824L35.882 23.721a1.985 1.985 0 00-1.541-.647 1.987 1.987 0 00-1.596.493L15.94 38.798a1.999 1.999 0 001.344 3.481z"/><path d="M33.457 66.915c18.449 0 33.458-15.009 33.458-33.458C66.915 15.009 51.906 0 33.457 0 15.009 0 0 15.009 0 33.457c0 18.449 15.009 33.458 33.457 33.458zm0-62.915C49.7 4 62.915 17.215 62.915 33.457c0 16.243-13.215 29.458-29.458 29.458C17.215 62.915 4 49.7 4 33.457 4 17.215 17.215 4 33.457 4z"/></svg><svg viewBox="0 0 66.915 66.915" id="to-top_copy" xmlns="http://www.w3.org/2000/svg"><path d="M17.284 42.279c.479 0 .959-.171 1.342-.519l15.487-14.037L48.15 43.209a1.994 1.994 0 002.824.138 1.999 1.999 0 00.139-2.824L35.882 23.721a1.985 1.985 0 00-1.541-.647 1.987 1.987 0 00-1.596.493L15.94 38.798a1.999 1.999 0 001.344 3.481z"/><path d="M33.457 66.915c18.449 0 33.458-15.009 33.458-33.458C66.915 15.009 51.906 0 33.457 0 15.009 0 0 15.009 0 33.457c0 18.449 15.009 33.458 33.457 33.458zm0-62.915C49.7 4 62.915 17.215 62.915 33.457c0 16.243-13.215 29.458-29.458 29.458C17.215 62.915 4 49.7 4 33.457 4 17.215 17.215 4 33.457 4z"/></svg><svg viewBox="0 0 23 21" id="x" xmlns="http://www.w3.org/2000/svg"><path d="M17.95.523h3.392L13.93 8.995l8.72 11.528h-6.828l-5.347-6.991-6.12 6.991H.962l7.928-9.061L.524.523h7l4.835 6.391 5.59-6.39zm-1.191 17.97h1.88L6.503 2.448H4.486l12.273 16.045z"/></svg></svg>