<svg width="22" height="20" viewBox="0 0 22 20" fill="none" xmlns="http://www.w3.org/2000/svg">
<path d="M10.7704 1.42939C10.8572 1.2279 11.1428 1.2279 11.2296 1.42939L13.3209 6.28551C13.5742 6.87382 14.1288 7.2767 14.7666 7.33586L20.0312 7.82414C20.2497 7.8444 20.338 8.11611 20.1731 8.26089L16.2009 11.7504C15.7197 12.1732 15.5079 12.8251 15.6487 13.4499L16.8112 18.6078C16.8595 18.8218 16.6283 18.9898 16.4397 18.8778L11.8935 16.1783C11.3427 15.8512 10.6573 15.8512 10.1065 16.1783L5.5603 18.8778C5.37166 18.9898 5.14054 18.8218 5.18877 18.6078L6.35126 13.4499C6.4921 12.8251 6.28029 12.1732 5.79906 11.7504L5.30407 12.3139L5.79906 11.7504L1.82685 8.26089C1.66204 8.1161 1.75032 7.8444 1.96876 7.82414L7.23344 7.33586C7.87125 7.2767 8.42577 6.87382 8.67912 6.28551L10.7704 1.42939Z" fill="#FABD05" stroke="#222222" stroke-width="1.5"/>
</svg>
